<?xml version="1.0" encoding="utf-8"?>
<!-- Generator: Adobe Illustrator 19.2.1, SVG Export Plug-In . SVG Version: 6.00 Build 0)  -->
<svg version="1.1" xmlns="http://www.w3.org/2000/svg" xmlns:xlink="http://www.w3.org/1999/xlink" x="0px" y="0px"
	 viewBox="0 0 1280 720" style="enable-background:new 0 0 1280 720;" xml:space="preserve">
<style type="text/css">
	.st0{fill:#90D7EA;}
	.st1{fill:#51C6DA;}
	.st2{fill:#028CA4;}
	.st3{fill:#00A9C6;}
	.st4{fill:#A9DDE4;}
	.st5{fill:#1E657C;}
	.st6{fill:#7E5F44;}
	.st7{fill:#9E6741;}
	.st8{fill:#674E3D;}
	.st9{fill:#FFFFFF;}
	.st10{display:none;}
	.st11{display:inline;fill:#FFFFFF;}
	.st12{display:inline;fill:#C5C4C2;}
	.st13{display:inline;fill:#00A9C6;}
	.st14{display:inline;fill:#20657D;}
</style>
<g id="water">
	<rect y="0" class="st0" width="1280" height="352"/>
	<rect y="448" class="st1" width="1280" height="272"/>
	<rect y="352" class="st2" width="1280" height="32"/>
	<rect y="384" class="st3" width="1280" height="64"/>
	<path class="st1" d="M152,432H40c-4.4,0-8-3.6-8-8l0,0c0-4.4,3.6-8,8-8h112c4.4,0,8,3.6,8,8l0,0C160,428.4,156.4,432,152,432z"/>
	<path class="st1" d="M200,432h-16c-4.4,0-8-3.6-8-8l0,0c0-4.4,3.6-8,8-8h16c4.4,0,8,3.6,8,8l0,0C208,428.4,204.4,432,200,432z"/>
	<circle class="st1" cx="224" cy="416" r="0"/>
	<path class="st1" d="M232,432L232,432c-4.4,0-8-3.6-8-8l0,0c0-4.4,3.6-8,8-8h0c4.4,0,8,3.6,8,8l0,0C240,428.4,236.4,432,232,432z"
		/>
	<path class="st1" d="M376,416L376,416c-4.4,0-8-3.6-8-8l0,0c0-4.4,3.6-8,8-8l0,0c4.4,0,8,3.6,8,8l0,0C384,412.4,380.4,416,376,416z
		"/>
	<path class="st1" d="M504,416h-96c-4.4,0-8-3.6-8-8l0,0c0-4.4,3.6-8,8-8h96c4.4,0,8,3.6,8,8l0,0C512,412.4,508.4,416,504,416z"/>
	<path class="st1" d="M568,416h-32c-4.4,0-8-3.6-8-8l0,0c0-4.4,3.6-8,8-8h32c4.4,0,8,3.6,8,8l0,0C576,412.4,572.4,416,568,416z"/>
	<path class="st1" d="M840,432h-96c-4.4,0-8-3.6-8-8l0,0c0-4.4,3.6-8,8-8h96c4.4,0,8,3.6,8,8l0,0C848,428.4,844.4,432,840,432z"/>
	<path class="st1" d="M904,432h-32c-4.4,0-8-3.6-8-8l0,0c0-4.4,3.6-8,8-8h32c4.4,0,8,3.6,8,8l0,0C912,428.4,908.4,432,904,432z"/>
	<path class="st1" d="M936,432L936,432c-4.4,0-8-3.6-8-8l0,0c0-4.4,3.6-8,8-8l0,0c4.4,0,8,3.6,8,8l0,0C944,428.4,940.4,432,936,432z
		"/>
	<path class="st1" d="M1048,416L1048,416c-4.4,0-8-3.6-8-8l0,0c0-4.4,3.6-8,8-8l0,0c4.4,0,8,3.6,8,8l0,0
		C1056,412.4,1052.4,416,1048,416z"/>
	<path class="st1" d="M1176,416h-96c-4.4,0-8-3.6-8-8l0,0c0-4.4,3.6-8,8-8h96c4.4,0,8,3.6,8,8l0,0C1184,412.4,1180.4,416,1176,416z"
		/>
	<path class="st4" d="M248,496H136c-4.4,0-8-3.6-8-8l0,0c0-4.4,3.6-8,8-8h112c4.4,0,8,3.6,8,8l0,0C256,492.4,252.4,496,248,496z"/>
	<path class="st4" d="M296,496h-16c-4.4,0-8-3.6-8-8l0,0c0-4.4,3.6-8,8-8h16c4.4,0,8,3.6,8,8l0,0C304,492.4,300.4,496,296,496z"/>
	<path class="st4" d="M328,496L328,496c-4.4,0-8-3.6-8-8l0,0c0-4.4,3.6-8,8-8l0,0c4.4,0,8,3.6,8,8l0,0C336,492.4,332.4,496,328,496z
		"/>
	<path class="st4" d="M376,496h-16c-4.4,0-8-3.6-8-8l0,0c0-4.4,3.6-8,8-8h16c4.4,0,8,3.6,8,8l0,0C384,492.4,380.4,496,376,496z"/>
	<path class="st4" d="M440,496h-32c-4.4,0-8-3.6-8-8l0,0c0-4.4,3.6-8,8-8h32c4.4,0,8,3.6,8,8l0,0C448,492.4,444.4,496,440,496z"/>
	<path class="st4" d="M440,528H328c-4.4,0-8-3.6-8-8l0,0c0-4.4,3.6-8,8-8h112c4.4,0,8,3.6,8,8l0,0C448,524.4,444.4,528,440,528z"/>
	<path class="st4" d="M296,528h-16c-4.4,0-8-3.6-8-8l0,0c0-4.4,3.6-8,8-8h16c4.4,0,8,3.6,8,8l0,0C304,524.4,300.4,528,296,528z"/>
	<path class="st4" d="M472,496L472,496c-4.4,0-8-3.6-8-8l0,0c0-4.4,3.6-8,8-8l0,0c4.4,0,8,3.6,8,8l0,0C480,492.4,476.4,496,472,496z
		"/>
	<path class="st4" d="M504,496L504,496c-4.4,0-8-3.6-8-8l0,0c0-4.4,3.6-8,8-8l0,0c4.4,0,8,3.6,8,8l0,0C512,492.4,508.4,496,504,496z
		"/>
	<path class="st4" d="M200,560L200,560c-4.4,0-8-3.6-8-8l0,0c0-4.4,3.6-8,8-8h0c4.4,0,8,3.6,8,8l0,0C208,556.4,204.4,560,200,560z"
		/>
	<path class="st4" d="M248,560h-16c-4.4,0-8-3.6-8-8l0,0c0-4.4,3.6-8,8-8h16c4.4,0,8,3.6,8,8l0,0C256,556.4,252.4,560,248,560z"/>
	<path class="st4" d="M312,560h-32c-4.4,0-8-3.6-8-8l0,0c0-4.4,3.6-8,8-8h32c4.4,0,8,3.6,8,8l0,0C320,556.4,316.4,560,312,560z"/>
	<path class="st4" d="M344,560L344,560c-4.4,0-8-3.6-8-8l0,0c0-4.4,3.6-8,8-8l0,0c4.4,0,8,3.6,8,8l0,0C352,556.4,348.4,560,344,560z
		"/>
	<path class="st4" d="M888,528h112c4.4,0,8,3.6,8,8l0,0c0,4.4-3.6,8-8,8H888c-4.4,0-8-3.6-8-8l0,0C880,531.6,883.6,528,888,528z"/>
	<path class="st4" d="M1032,528h16c4.4,0,8,3.6,8,8l0,0c0,4.4-3.6,8-8,8h-16c-4.4,0-8-3.6-8-8l0,0C1024,531.6,1027.6,528,1032,528z"
		/>
	<path class="st4" d="M1144,496L1144,496c4.4,0,8,3.6,8,8l0,0c0,4.4-3.6,8-8,8l0,0c-4.4,0-8-3.6-8-8l0,0
		C1136,499.6,1139.6,496,1144,496z"/>
	<path class="st4" d="M1096,496h16c4.4,0,8,3.6,8,8l0,0c0,4.4-3.6,8-8,8h-16c-4.4,0-8-3.6-8-8l0,0C1088,499.6,1091.6,496,1096,496z"
		/>
	<path class="st4" d="M1032,496h32c4.4,0,8,3.6,8,8l0,0c0,4.4-3.6,8-8,8h-32c-4.4,0-8-3.6-8-8l0,0C1024,499.6,1027.6,496,1032,496z"
		/>
	<path class="st4" d="M1000,496L1000,496c4.4,0,8,3.6,8,8l0,0c0,4.4-3.6,8-8,8l0,0c-4.4,0-8-3.6-8-8l0,0
		C992,499.6,995.6,496,1000,496z"/>
	<path class="st0" d="M528,176v48H384v-48h21.4c9,18.9,28.3,32,50.6,32s41.6-13.1,50.6-32H528z"/>
	<path class="st4" d="M664,608L664,608c-4.4,0-8-3.6-8-8l0,0c0-4.4,3.6-8,8-8l0,0c4.4,0,8,3.6,8,8l0,0C672,604.4,668.4,608,664,608z
		"/>
	<path class="st4" d="M728,608h-32c-4.4,0-8-3.6-8-8l0,0c0-4.4,3.6-8,8-8h32c4.4,0,8,3.6,8,8l0,0C736,604.4,732.4,608,728,608z"/>
	<path class="st4" d="M744,640H632c-4.4,0-8-3.6-8-8l0,0c0-4.4,3.6-8,8-8h112c4.4,0,8,3.6,8,8l0,0C752,636.4,748.4,640,744,640z"/>
	<path class="st4" d="M600,640L600,640c-4.4,0-8-3.6-8-8l0,0c0-4.4,3.6-8,8-8l0,0c4.4,0,8,3.6,8,8l0,0C608,636.4,604.4,640,600,640z
		"/>
	<path class="st4" d="M760,608L760,608c-4.4,0-8-3.6-8-8l0,0c0-4.4,3.6-8,8-8l0,0c4.4,0,8,3.6,8,8l0,0C768,604.4,764.4,608,760,608z
		"/>
	<path class="st4" d="M792,608L792,608c-4.4,0-8-3.6-8-8l0,0c0-4.4,3.6-8,8-8l0,0c4.4,0,8,3.6,8,8l0,0C800,604.4,796.4,608,792,608z
		"/>
	<path class="st4" d="M648,672h-16c-4.4,0-8-3.6-8-8l0,0c0-4.4,3.6-8,8-8h16c4.4,0,8,3.6,8,8l0,0C656,668.4,652.4,672,648,672z"/>
	<path class="st4" d="M680,672L680,672c-4.4,0-8-3.6-8-8l0,0c0-4.4,3.6-8,8-8l0,0c4.4,0,8,3.6,8,8l0,0C688,668.4,684.4,672,680,672z
		"/>
</g>
<g id="sky">
</g>
<g id="mountains">
	<polygon class="st5" points="1152,336 1136,336 1104,320 1088,320 1056,304 800,304 768,320 672,320 640,336 608,336 576,352 
		1184,352 	"/>
	<polygon class="st5" points="400,336 368,336 352,320 288,320 272,304 192,304 176,320 144,320 128,336 112,336 96,352 416,352 	
		"/>
</g>
<g id="hills">
	<path class="st6" d="M1280,656v32h0v32H0V528h112l32,32h32l32,32h32l32,32h64l32,32h32l32,32h112l32.7-32H640l32-32h32c0,0,0,0,0,0
		l32-32h32l32-32h32l32-32h64l32-32h32l32-32h160l32,32h32l32,32L1280,656L1280,656z"/>
	<polygon class="st7" points="640,656 672,624 688,624 656,656 	"/>
	<polygon class="st7" points="544,688 576,656 592,656 560,688 	"/>
	<polygon class="st7" points="832,560 864,528 880,528 848,560 	"/>
	<polygon class="st7" points="816,640 848,608 864,608 832,640 	"/>
	<polygon class="st7" points="944,576 976,544 992,544 960,576 	"/>
	<polygon class="st7" points="688,704 720,672 736,672 704,704 	"/>
	<polygon class="st7" points="992,496 1024,464 1040,464 1008,496 	"/>
	<polygon class="st8" points="1216,496 1184,464 1168,464 1200,496 	"/>
	<polygon class="st8" points="64,576 32,544 16,544 48,576 	"/>
	<polygon class="st8" points="144,560 112,528 96,528 128,560 	"/>
	<polygon class="st8" points="192,640 160,608 144,608 176,640 	"/>
	<polygon class="st8" points="272,624 240,592 224,592 256,624 	"/>
	<polygon class="st8" points="432,688 400,656 384,656 416,688 	"/>
	<polygon class="st8" points="320,704 288,672 272,672 304,704 	"/>
</g>
<g id="hills_x5F_houses">
	<circle class="st2" cx="1232" cy="464" r="16"/>
	<circle class="st2" cx="56" cy="488" r="24"/>
	<g>
		<circle class="st2" cx="616" cy="616" r="24"/>
		<rect x="592" y="608" class="st9" width="48" height="48"/>
	</g>
	<g>
		<polyline class="st7" points="896,480 912,464 928,480 896,480 		"/>
		<rect x="896" y="480" class="st9" width="32" height="48"/>
		<rect x="880" y="496" class="st9" width="32" height="32"/>
	</g>
	<g>
		<circle class="st2" cx="816" cy="528" r="16"/>
		<rect x="800" y="528" class="st9" width="32" height="32"/>
	</g>
	<rect x="1216" y="464" class="st9" width="32" height="32"/>
	<g>
		<polyline class="st7" points="320,576 304,560 288,576 320,576 		"/>
		<rect x="288" y="576" transform="matrix(-1 -4.490642e-011 4.490642e-011 -1 608 1200)" class="st9" width="32" height="48"/>
		<rect x="304" y="592" transform="matrix(-1 -4.484958e-011 4.484958e-011 -1 640 1216)" class="st9" width="32" height="32"/>
	</g>
	<rect x="32" y="480" class="st9" width="48" height="48"/>
	<g>
		<circle class="st2" cx="1112" cy="424" r="24"/>
		<rect x="1088" y="416" class="st9" width="48" height="48"/>
		<circle class="st2" cx="1088" cy="432" r="16"/>
		<rect x="1072" y="432" class="st9" width="32" height="32"/>
	</g>
	<circle class="st2" cx="32" cy="496" r="16"/>
	<rect x="16" y="496" class="st9" width="32" height="32"/>
	<g>
		<circle class="st2" cx="920" cy="632" r="24"/>
		<rect x="896" y="624" class="st9" width="48" height="48"/>
		<circle class="st2" cx="896" cy="640" r="16"/>
		<rect x="880" y="640" class="st9" width="32" height="32"/>
	</g>
	<g>
		<circle class="st2" cx="1056" cy="512" r="16"/>
		<rect x="1040" y="512" class="st9" width="32" height="32"/>
	</g>
	<g>
		<polyline class="st7" points="1104,560 1120,544 1136,560 1104,560 		"/>
		<rect x="1104" y="560" class="st9" width="32" height="48"/>
		<rect x="1088" y="576" class="st9" width="32" height="32"/>
	</g>
	<g>
		<circle class="st2" cx="216" cy="632" r="24"/>
		<rect x="192" y="624" class="st9" width="48" height="48"/>
	</g>
	<g>
		<circle class="st2" cx="96" cy="576" r="16"/>
		<rect x="80" y="576" class="st9" width="32" height="32"/>
	</g>
	<g>
		<circle class="st2" cx="1248" cy="640" r="16"/>
		<rect x="1232" y="640" class="st9" width="32" height="32"/>
	</g>
</g>
<g id="hills_x5F_palms">
</g>
<g id="ground" class="st10">
	<rect y="592" class="st11" width="128" height="128"/>
	<polygon class="st12" points="0,640 16,640 32,640 48,640 64,640 80,640 96,640 112,640 128,640 128,608 0,608 	"/>
	<polygon class="st13" points="128,632 128,600 0,600 0,632 16,632 	"/>
	<polygon class="st14" points="0,624 16,624 31.7,624 47.7,624 64,624 79.7,624 98,624 114,624 128,624 128,592 0,592 	"/>
	<rect y="592" class="st13" width="128" height="4"/>
	<path class="st12" d="M16,652c0,1.1-0.5,2.1-1.2,2.8c-0.7,0.7-1.7,1.2-2.8,1.2H0v-8h12C14.2,648,16,649.8,16,652z"/>
	<path class="st12" d="M112,652c0,1.1,0.5,2.1,1.2,2.8c0.7,0.7,1.7,1.2,2.8,1.2h12v-8h-12C113.8,648,112,649.8,112,652z"/>
	<path class="st12" d="M92,656H76c-2.2,0-4-1.8-4-4l0,0c0-2.2,1.8-4,4-4h16c2.2,0,4,1.8,4,4l0,0C96,654.2,94.2,656,92,656z"/>
	<path class="st12" d="M52,656H36c-2.2,0-4-1.8-4-4l0,0c0-2.2,1.8-4,4-4h16c2.2,0,4,1.8,4,4l0,0C56,654.2,54.2,656,52,656z"/>
	<path class="st12" d="M28,672H12c-2.2,0-4-1.8-4-4l0,0c0-2.2,1.8-4,4-4h16c2.2,0,4,1.8,4,4l0,0C32,670.2,30.2,672,28,672z"/>
	<path class="st12" d="M116,672h-16c-2.2,0-4-1.8-4-4l0,0c0-2.2,1.8-4,4-4h16c2.2,0,4,1.8,4,4l0,0C120,670.2,118.2,672,116,672z"/>
	<path class="st12" d="M76,672H52c-2.2,0-4-1.8-4-4l0,0c0-2.2,1.8-4,4-4h24c2.2,0,4,1.8,4,4l0,0C80,670.2,78.2,672,76,672z"/>
	<path class="st12" d="M16,684c0,1.1-0.5,2.1-1.2,2.8c-0.7,0.7-1.7,1.2-2.8,1.2H0v-8h12C14.2,680,16,681.8,16,684z"/>
	<path class="st12" d="M112,684c0,1.1,0.5,2.1,1.2,2.8c0.7,0.7,1.7,1.2,2.8,1.2h12v-8h-12C113.8,680,112,681.8,112,684z"/>
	<path class="st12" d="M92,688H76c-2.2,0-4-1.8-4-4l0,0c0-2.2,1.8-4,4-4h16c2.2,0,4,1.8,4,4l0,0C96,686.2,94.2,688,92,688z"/>
	<path class="st12" d="M52,688H36c-2.2,0-4-1.8-4-4l0,0c0-2.2,1.8-4,4-4h16c2.2,0,4,1.8,4,4l0,0C56,686.2,54.2,688,52,688z"/>
	<path class="st12" d="M28,704H12c-2.2,0-4-1.8-4-4l0,0c0-2.2,1.8-4,4-4h16c2.2,0,4,1.8,4,4l0,0C32,702.2,30.2,704,28,704z"/>
	<path class="st12" d="M116,704h-16c-2.2,0-4-1.8-4-4l0,0c0-2.2,1.8-4,4-4h16c2.2,0,4,1.8,4,4l0,0C120,702.2,118.2,704,116,704z"/>
	<path class="st12" d="M76,704H52c-2.2,0-4-1.8-4-4l0,0c0-2.2,1.8-4,4-4h24c2.2,0,4,1.8,4,4l0,0C80,702.2,78.2,704,76,704z"/>
	<path class="st12" d="M16,716c0,1.1-0.5,2.1-1.2,2.8c-0.7,0.7-1.7,1.2-2.8,1.2H0v-8h12C14.2,712,16,713.8,16,716z"/>
	<path class="st12" d="M112,716c0,1.1,0.5,2.1,1.2,2.8c0.7,0.7,1.7,1.2,2.8,1.2h12v-8h-12C113.8,712,112,713.8,112,716z"/>
	<path class="st12" d="M92,720H76c-2.2,0-4-1.8-4-4l0,0c0-2.2,1.8-4,4-4h16c2.2,0,4,1.8,4,4l0,0C96,718.2,94.2,720,92,720z"/>
	<path class="st12" d="M52,720H36c-2.2,0-4-1.8-4-4l0,0c0-2.2,1.8-4,4-4h16c2.2,0,4,1.8,4,4l0,0C56,718.2,54.2,720,52,720z"/>
	<rect x="128" y="592" class="st11" width="128" height="128"/>
	<polygon class="st12" points="128,640 144,640 160,640 176,640 192,640 208,640 224,640 240,640 256,640 256,608 128,608 	"/>
	<polygon class="st13" points="256,632 256,600 128,600 128,632 144,632 	"/>
	<polygon class="st14" points="128,624 144,624 159.7,624 175.7,624 192,624 207.7,624 226,624 242,624 256,624 256,592 128,592 	
		"/>
	<rect x="128" y="592" class="st13" width="128" height="4"/>
	<path class="st12" d="M144,652c0,1.1-0.5,2.1-1.2,2.8c-0.7,0.7-1.7,1.2-2.8,1.2h-12v-8h12C142.2,648,144,649.8,144,652z"/>
	<path class="st12" d="M240,652c0,1.1,0.5,2.1,1.2,2.8c0.7,0.7,1.7,1.2,2.8,1.2h12v-8h-12C241.8,648,240,649.8,240,652z"/>
	<path class="st12" d="M220,656h-16c-2.2,0-4-1.8-4-4l0,0c0-2.2,1.8-4,4-4h16c2.2,0,4,1.8,4,4l0,0C224,654.2,222.2,656,220,656z"/>
	<path class="st12" d="M180,656h-16c-2.2,0-4-1.8-4-4l0,0c0-2.2,1.8-4,4-4h16c2.2,0,4,1.8,4,4l0,0C184,654.2,182.2,656,180,656z"/>
	<path class="st12" d="M156,672h-16c-2.2,0-4-1.8-4-4l0,0c0-2.2,1.8-4,4-4h16c2.2,0,4,1.8,4,4l0,0C160,670.2,158.2,672,156,672z"/>
	<path class="st12" d="M244,672h-16c-2.2,0-4-1.8-4-4l0,0c0-2.2,1.8-4,4-4h16c2.2,0,4,1.8,4,4l0,0C248,670.2,246.2,672,244,672z"/>
	<path class="st12" d="M204,672h-24c-2.2,0-4-1.8-4-4l0,0c0-2.2,1.8-4,4-4h24c2.2,0,4,1.8,4,4l0,0C208,670.2,206.2,672,204,672z"/>
	<path class="st12" d="M144,684c0,1.1-0.5,2.1-1.2,2.8c-0.7,0.7-1.7,1.2-2.8,1.2h-12v-8h12C142.2,680,144,681.8,144,684z"/>
	<path class="st12" d="M240,684c0,1.1,0.5,2.1,1.2,2.8c0.7,0.7,1.7,1.2,2.8,1.2h12v-8h-12C241.8,680,240,681.8,240,684z"/>
	<path class="st12" d="M220,688h-16c-2.2,0-4-1.8-4-4l0,0c0-2.2,1.8-4,4-4h16c2.2,0,4,1.8,4,4l0,0C224,686.2,222.2,688,220,688z"/>
	<path class="st12" d="M180,688h-16c-2.2,0-4-1.8-4-4l0,0c0-2.2,1.8-4,4-4h16c2.2,0,4,1.8,4,4l0,0C184,686.2,182.2,688,180,688z"/>
	<path class="st12" d="M156,704h-16c-2.2,0-4-1.8-4-4l0,0c0-2.2,1.8-4,4-4h16c2.2,0,4,1.8,4,4l0,0C160,702.2,158.2,704,156,704z"/>
	<path class="st12" d="M244,704h-16c-2.2,0-4-1.8-4-4l0,0c0-2.2,1.8-4,4-4h16c2.2,0,4,1.8,4,4l0,0C248,702.2,246.2,704,244,704z"/>
	<path class="st12" d="M204,704h-24c-2.2,0-4-1.8-4-4l0,0c0-2.2,1.8-4,4-4h24c2.2,0,4,1.8,4,4l0,0C208,702.2,206.2,704,204,704z"/>
	<path class="st12" d="M144,716c0,1.1-0.5,2.1-1.2,2.8c-0.7,0.7-1.7,1.2-2.8,1.2h-12v-8h12C142.2,712,144,713.8,144,716z"/>
	<path class="st12" d="M240,716c0,1.1,0.5,2.1,1.2,2.8c0.7,0.7,1.7,1.2,2.8,1.2h12v-8h-12C241.8,712,240,713.8,240,716z"/>
	<path class="st12" d="M220,720h-16c-2.2,0-4-1.8-4-4l0,0c0-2.2,1.8-4,4-4h16c2.2,0,4,1.8,4,4l0,0C224,718.2,222.2,720,220,720z"/>
	<path class="st12" d="M180,720h-16c-2.2,0-4-1.8-4-4l0,0c0-2.2,1.8-4,4-4h16c2.2,0,4,1.8,4,4l0,0C184,718.2,182.2,720,180,720z"/>
	<rect x="256" y="592" class="st11" width="128" height="128"/>
	<polygon class="st12" points="256,640 272,640 288,640 304,640 320,640 336,640 352,640 368,640 384,640 384,608 256,608 	"/>
	<polygon class="st13" points="384,632 384,600 256,600 256,632 272,632 	"/>
	<polygon class="st14" points="256,624 272,624 287.7,624 303.7,624 320,624 335.7,624 354,624 370,624 384,624 384,592 256,592 	
		"/>
	<rect x="256" y="592" class="st13" width="128" height="4"/>
	<path class="st12" d="M272,652c0,1.1-0.5,2.1-1.2,2.8c-0.7,0.7-1.7,1.2-2.8,1.2h-12v-8h12C270.2,648,272,649.8,272,652z"/>
	<path class="st12" d="M368,652c0,1.1,0.5,2.1,1.2,2.8c0.7,0.7,1.7,1.2,2.8,1.2h12v-8h-12C369.8,648,368,649.8,368,652z"/>
	<path class="st12" d="M348,656h-16c-2.2,0-4-1.8-4-4l0,0c0-2.2,1.8-4,4-4h16c2.2,0,4,1.8,4,4l0,0C352,654.2,350.2,656,348,656z"/>
	<path class="st12" d="M308,656h-16c-2.2,0-4-1.8-4-4l0,0c0-2.2,1.8-4,4-4h16c2.2,0,4,1.8,4,4l0,0C312,654.2,310.2,656,308,656z"/>
	<path class="st12" d="M284,672h-16c-2.2,0-4-1.8-4-4l0,0c0-2.2,1.8-4,4-4h16c2.2,0,4,1.8,4,4l0,0C288,670.2,286.2,672,284,672z"/>
	<path class="st12" d="M372,672h-16c-2.2,0-4-1.8-4-4l0,0c0-2.2,1.8-4,4-4h16c2.2,0,4,1.8,4,4l0,0C376,670.2,374.2,672,372,672z"/>
	<path class="st12" d="M332,672h-24c-2.2,0-4-1.8-4-4l0,0c0-2.2,1.8-4,4-4h24c2.2,0,4,1.8,4,4l0,0C336,670.2,334.2,672,332,672z"/>
	<path class="st12" d="M272,684c0,1.1-0.5,2.1-1.2,2.8c-0.7,0.7-1.7,1.2-2.8,1.2h-12v-8h12C270.2,680,272,681.8,272,684z"/>
	<path class="st12" d="M368,684c0,1.1,0.5,2.1,1.2,2.8c0.7,0.7,1.7,1.2,2.8,1.2h12v-8h-12C369.8,680,368,681.8,368,684z"/>
	<path class="st12" d="M348,688h-16c-2.2,0-4-1.8-4-4l0,0c0-2.2,1.8-4,4-4h16c2.2,0,4,1.8,4,4l0,0C352,686.2,350.2,688,348,688z"/>
	<path class="st12" d="M308,688h-16c-2.2,0-4-1.8-4-4l0,0c0-2.2,1.8-4,4-4h16c2.2,0,4,1.8,4,4l0,0C312,686.2,310.2,688,308,688z"/>
	<path class="st12" d="M284,704h-16c-2.2,0-4-1.8-4-4l0,0c0-2.2,1.8-4,4-4h16c2.2,0,4,1.8,4,4l0,0C288,702.2,286.2,704,284,704z"/>
	<path class="st12" d="M372,704h-16c-2.2,0-4-1.8-4-4l0,0c0-2.2,1.8-4,4-4h16c2.2,0,4,1.8,4,4l0,0C376,702.2,374.2,704,372,704z"/>
	<path class="st12" d="M332,704h-24c-2.2,0-4-1.8-4-4l0,0c0-2.2,1.8-4,4-4h24c2.2,0,4,1.8,4,4l0,0C336,702.2,334.2,704,332,704z"/>
	<path class="st12" d="M272,716c0,1.1-0.5,2.1-1.2,2.8c-0.7,0.7-1.7,1.2-2.8,1.2h-12v-8h12C270.2,712,272,713.8,272,716z"/>
	<path class="st12" d="M368,716c0,1.1,0.5,2.1,1.2,2.8c0.7,0.7,1.7,1.2,2.8,1.2h12v-8h-12C369.8,712,368,713.8,368,716z"/>
	<path class="st12" d="M348,720h-16c-2.2,0-4-1.8-4-4l0,0c0-2.2,1.8-4,4-4h16c2.2,0,4,1.8,4,4l0,0C352,718.2,350.2,720,348,720z"/>
	<path class="st12" d="M308,720h-16c-2.2,0-4-1.8-4-4l0,0c0-2.2,1.8-4,4-4h16c2.2,0,4,1.8,4,4l0,0C312,718.2,310.2,720,308,720z"/>
	<rect x="384" y="592" class="st11" width="128" height="128"/>
	<polygon class="st12" points="384,640 400,640 416,640 432,640 448,640 464,640 480,640 496,640 512,640 512,608 384,608 	"/>
	<polygon class="st13" points="512,632 512,600 384,600 384,632 400,632 	"/>
	<polygon class="st14" points="384,624 400,624 415.7,624 431.7,624 448,624 463.7,624 482,624 498,624 512,624 512,592 384,592 	
		"/>
	<rect x="384" y="592" class="st13" width="128" height="4"/>
	<path class="st12" d="M400,652c0,1.1-0.5,2.1-1.2,2.8c-0.7,0.7-1.7,1.2-2.8,1.2h-12v-8h12C398.2,648,400,649.8,400,652z"/>
	<path class="st12" d="M496,652c0,1.1,0.5,2.1,1.2,2.8c0.7,0.7,1.7,1.2,2.8,1.2h12v-8h-12C497.8,648,496,649.8,496,652z"/>
	<path class="st12" d="M476,656h-16c-2.2,0-4-1.8-4-4l0,0c0-2.2,1.8-4,4-4h16c2.2,0,4,1.8,4,4l0,0C480,654.2,478.2,656,476,656z"/>
	<path class="st12" d="M436,656h-16c-2.2,0-4-1.8-4-4l0,0c0-2.2,1.8-4,4-4h16c2.2,0,4,1.8,4,4l0,0C440,654.2,438.2,656,436,656z"/>
	<path class="st12" d="M412,672h-16c-2.2,0-4-1.8-4-4l0,0c0-2.2,1.8-4,4-4h16c2.2,0,4,1.8,4,4l0,0C416,670.2,414.2,672,412,672z"/>
	<path class="st12" d="M500,672h-16c-2.2,0-4-1.8-4-4l0,0c0-2.2,1.8-4,4-4h16c2.2,0,4,1.8,4,4l0,0C504,670.2,502.2,672,500,672z"/>
	<path class="st12" d="M460,672h-24c-2.2,0-4-1.8-4-4l0,0c0-2.2,1.8-4,4-4h24c2.2,0,4,1.8,4,4l0,0C464,670.2,462.2,672,460,672z"/>
	<path class="st12" d="M400,684c0,1.1-0.5,2.1-1.2,2.8c-0.7,0.7-1.7,1.2-2.8,1.2h-12v-8h12C398.2,680,400,681.8,400,684z"/>
	<path class="st12" d="M496,684c0,1.1,0.5,2.1,1.2,2.8c0.7,0.7,1.7,1.2,2.8,1.2h12v-8h-12C497.8,680,496,681.8,496,684z"/>
	<path class="st12" d="M476,688h-16c-2.2,0-4-1.8-4-4l0,0c0-2.2,1.8-4,4-4h16c2.2,0,4,1.8,4,4l0,0C480,686.2,478.2,688,476,688z"/>
	<path class="st12" d="M436,688h-16c-2.2,0-4-1.8-4-4l0,0c0-2.2,1.8-4,4-4h16c2.2,0,4,1.8,4,4l0,0C440,686.2,438.2,688,436,688z"/>
	<path class="st12" d="M412,704h-16c-2.2,0-4-1.8-4-4l0,0c0-2.2,1.8-4,4-4h16c2.2,0,4,1.8,4,4l0,0C416,702.2,414.2,704,412,704z"/>
	<path class="st12" d="M500,704h-16c-2.2,0-4-1.8-4-4l0,0c0-2.2,1.8-4,4-4h16c2.2,0,4,1.8,4,4l0,0C504,702.2,502.2,704,500,704z"/>
	<path class="st12" d="M460,704h-24c-2.2,0-4-1.8-4-4l0,0c0-2.2,1.8-4,4-4h24c2.2,0,4,1.8,4,4l0,0C464,702.2,462.2,704,460,704z"/>
	<path class="st12" d="M400,716c0,1.1-0.5,2.1-1.2,2.8c-0.7,0.7-1.7,1.2-2.8,1.2h-12v-8h12C398.2,712,400,713.8,400,716z"/>
	<path class="st12" d="M496,716c0,1.1,0.5,2.1,1.2,2.8c0.7,0.7,1.7,1.2,2.8,1.2h12v-8h-12C497.8,712,496,713.8,496,716z"/>
	<path class="st12" d="M476,720h-16c-2.2,0-4-1.8-4-4l0,0c0-2.2,1.8-4,4-4h16c2.2,0,4,1.8,4,4l0,0C480,718.2,478.2,720,476,720z"/>
	<path class="st12" d="M436,720h-16c-2.2,0-4-1.8-4-4l0,0c0-2.2,1.8-4,4-4h16c2.2,0,4,1.8,4,4l0,0C440,718.2,438.2,720,436,720z"/>
	<rect x="512" y="592" class="st11" width="128" height="128"/>
	<polygon class="st12" points="512,640 528,640 544,640 560,640 576,640 592,640 608,640 624,640 640,640 640,608 512,608 	"/>
	<polygon class="st13" points="640,632 640,600 512,600 512,632 528,632 	"/>
	<polygon class="st14" points="512,624 528,624 543.7,624 559.7,624 576,624 591.7,624 610,624 626,624 640,624 640,592 512,592 	
		"/>
	<rect x="512" y="592" class="st13" width="128" height="4"/>
	<path class="st12" d="M528,652c0,1.1-0.5,2.1-1.2,2.8c-0.7,0.7-1.7,1.2-2.8,1.2h-12v-8h12C526.2,648,528,649.8,528,652z"/>
	<path class="st12" d="M624,652c0,1.1,0.5,2.1,1.2,2.8c0.7,0.7,1.7,1.2,2.8,1.2h12v-8h-12C625.8,648,624,649.8,624,652z"/>
	<path class="st12" d="M604,656h-16c-2.2,0-4-1.8-4-4l0,0c0-2.2,1.8-4,4-4h16c2.2,0,4,1.8,4,4l0,0C608,654.2,606.2,656,604,656z"/>
	<path class="st12" d="M564,656h-16c-2.2,0-4-1.8-4-4l0,0c0-2.2,1.8-4,4-4h16c2.2,0,4,1.8,4,4l0,0C568,654.2,566.2,656,564,656z"/>
	<path class="st12" d="M540,672h-16c-2.2,0-4-1.8-4-4l0,0c0-2.2,1.8-4,4-4h16c2.2,0,4,1.8,4,4l0,0C544,670.2,542.2,672,540,672z"/>
	<path class="st12" d="M628,672h-16c-2.2,0-4-1.8-4-4l0,0c0-2.2,1.8-4,4-4h16c2.2,0,4,1.8,4,4l0,0C632,670.2,630.2,672,628,672z"/>
	<path class="st12" d="M588,672h-24c-2.2,0-4-1.8-4-4l0,0c0-2.2,1.8-4,4-4h24c2.2,0,4,1.8,4,4l0,0C592,670.2,590.2,672,588,672z"/>
	<path class="st12" d="M528,684c0,1.1-0.5,2.1-1.2,2.8c-0.7,0.7-1.7,1.2-2.8,1.2h-12v-8h12C526.2,680,528,681.8,528,684z"/>
	<path class="st12" d="M624,684c0,1.1,0.5,2.1,1.2,2.8c0.7,0.7,1.7,1.2,2.8,1.2h12v-8h-12C625.8,680,624,681.8,624,684z"/>
	<path class="st12" d="M604,688h-16c-2.2,0-4-1.8-4-4l0,0c0-2.2,1.8-4,4-4h16c2.2,0,4,1.8,4,4l0,0C608,686.2,606.2,688,604,688z"/>
	<path class="st12" d="M564,688h-16c-2.2,0-4-1.8-4-4l0,0c0-2.2,1.8-4,4-4h16c2.2,0,4,1.8,4,4l0,0C568,686.2,566.2,688,564,688z"/>
	<path class="st12" d="M540,704h-16c-2.2,0-4-1.8-4-4l0,0c0-2.2,1.8-4,4-4h16c2.2,0,4,1.8,4,4l0,0C544,702.2,542.2,704,540,704z"/>
	<path class="st12" d="M628,704h-16c-2.2,0-4-1.8-4-4l0,0c0-2.2,1.8-4,4-4h16c2.2,0,4,1.8,4,4l0,0C632,702.2,630.2,704,628,704z"/>
	<path class="st12" d="M588,704h-24c-2.2,0-4-1.8-4-4l0,0c0-2.2,1.8-4,4-4h24c2.2,0,4,1.8,4,4l0,0C592,702.2,590.2,704,588,704z"/>
	<path class="st12" d="M528,716c0,1.1-0.5,2.1-1.2,2.8c-0.7,0.7-1.7,1.2-2.8,1.2h-12v-8h12C526.2,712,528,713.8,528,716z"/>
	<path class="st12" d="M624,716c0,1.1,0.5,2.1,1.2,2.8c0.7,0.7,1.7,1.2,2.8,1.2h12v-8h-12C625.8,712,624,713.8,624,716z"/>
	<path class="st12" d="M604,720h-16c-2.2,0-4-1.8-4-4l0,0c0-2.2,1.8-4,4-4h16c2.2,0,4,1.8,4,4l0,0C608,718.2,606.2,720,604,720z"/>
	<path class="st12" d="M564,720h-16c-2.2,0-4-1.8-4-4l0,0c0-2.2,1.8-4,4-4h16c2.2,0,4,1.8,4,4l0,0C568,718.2,566.2,720,564,720z"/>
	<rect x="640" y="592" class="st11" width="128" height="128"/>
	<polygon class="st12" points="640,640 656,640 672,640 688,640 704,640 720,640 736,640 752,640 768,640 768,608 640,608 	"/>
	<polygon class="st13" points="768,632 768,600 640,600 640,632 656,632 	"/>
	<polygon class="st14" points="640,624 656,624 671.7,624 687.7,624 704,624 719.7,624 738,624 754,624 768,624 768,592 640,592 	
		"/>
	<rect x="640" y="592" class="st13" width="128" height="4"/>
	<path class="st12" d="M656,652c0,1.1-0.5,2.1-1.2,2.8c-0.7,0.7-1.7,1.2-2.8,1.2h-12v-8h12C654.2,648,656,649.8,656,652z"/>
	<path class="st12" d="M752,652c0,1.1,0.5,2.1,1.2,2.8c0.7,0.7,1.7,1.2,2.8,1.2h12v-8h-12C753.8,648,752,649.8,752,652z"/>
	<path class="st12" d="M732,656h-16c-2.2,0-4-1.8-4-4l0,0c0-2.2,1.8-4,4-4h16c2.2,0,4,1.8,4,4l0,0C736,654.2,734.2,656,732,656z"/>
	<path class="st12" d="M692,656h-16c-2.2,0-4-1.8-4-4l0,0c0-2.2,1.8-4,4-4h16c2.2,0,4,1.8,4,4l0,0C696,654.2,694.2,656,692,656z"/>
	<path class="st12" d="M668,672h-16c-2.2,0-4-1.8-4-4l0,0c0-2.2,1.8-4,4-4h16c2.2,0,4,1.8,4,4l0,0C672,670.2,670.2,672,668,672z"/>
	<path class="st12" d="M756,672h-16c-2.2,0-4-1.8-4-4l0,0c0-2.2,1.8-4,4-4h16c2.2,0,4,1.8,4,4l0,0C760,670.2,758.2,672,756,672z"/>
	<path class="st12" d="M716,672h-24c-2.2,0-4-1.8-4-4l0,0c0-2.2,1.8-4,4-4h24c2.2,0,4,1.8,4,4l0,0C720,670.2,718.2,672,716,672z"/>
	<path class="st12" d="M656,684c0,1.1-0.5,2.1-1.2,2.8c-0.7,0.7-1.7,1.2-2.8,1.2h-12v-8h12C654.2,680,656,681.8,656,684z"/>
	<path class="st12" d="M752,684c0,1.1,0.5,2.1,1.2,2.8c0.7,0.7,1.7,1.2,2.8,1.2h12v-8h-12C753.8,680,752,681.8,752,684z"/>
	<path class="st12" d="M732,688h-16c-2.2,0-4-1.8-4-4l0,0c0-2.2,1.8-4,4-4h16c2.2,0,4,1.8,4,4l0,0C736,686.2,734.2,688,732,688z"/>
	<path class="st12" d="M692,688h-16c-2.2,0-4-1.8-4-4l0,0c0-2.2,1.8-4,4-4h16c2.2,0,4,1.8,4,4l0,0C696,686.2,694.2,688,692,688z"/>
	<path class="st12" d="M668,704h-16c-2.2,0-4-1.8-4-4l0,0c0-2.2,1.8-4,4-4h16c2.2,0,4,1.8,4,4l0,0C672,702.2,670.2,704,668,704z"/>
	<path class="st12" d="M756,704h-16c-2.2,0-4-1.8-4-4l0,0c0-2.2,1.8-4,4-4h16c2.2,0,4,1.8,4,4l0,0C760,702.2,758.2,704,756,704z"/>
	<path class="st12" d="M716,704h-24c-2.2,0-4-1.8-4-4l0,0c0-2.2,1.8-4,4-4h24c2.2,0,4,1.8,4,4l0,0C720,702.2,718.2,704,716,704z"/>
	<path class="st12" d="M656,716c0,1.1-0.5,2.1-1.2,2.8c-0.7,0.7-1.7,1.2-2.8,1.2h-12v-8h12C654.2,712,656,713.8,656,716z"/>
	<path class="st12" d="M752,716c0,1.1,0.5,2.1,1.2,2.8c0.7,0.7,1.7,1.2,2.8,1.2h12v-8h-12C753.8,712,752,713.8,752,716z"/>
	<path class="st12" d="M732,720h-16c-2.2,0-4-1.8-4-4l0,0c0-2.2,1.8-4,4-4h16c2.2,0,4,1.8,4,4l0,0C736,718.2,734.2,720,732,720z"/>
	<path class="st12" d="M692,720h-16c-2.2,0-4-1.8-4-4l0,0c0-2.2,1.8-4,4-4h16c2.2,0,4,1.8,4,4l0,0C696,718.2,694.2,720,692,720z"/>
	<rect x="768" y="592" class="st11" width="128" height="128"/>
	<polygon class="st12" points="768,640 784,640 800,640 816,640 832,640 848,640 864,640 880,640 896,640 896,608 768,608 	"/>
	<polygon class="st13" points="896,632 896,600 768,600 768,632 784,632 	"/>
	<polygon class="st14" points="768,624 784,624 799.7,624 815.7,624 832,624 847.7,624 866,624 882,624 896,624 896,592 768,592 	
		"/>
	<rect x="768" y="592" class="st13" width="128" height="4"/>
	<path class="st12" d="M784,652c0,1.1-0.5,2.1-1.2,2.8c-0.7,0.7-1.7,1.2-2.8,1.2h-12v-8h12C782.2,648,784,649.8,784,652z"/>
	<path class="st12" d="M880,652c0,1.1,0.5,2.1,1.2,2.8c0.7,0.7,1.7,1.2,2.8,1.2h12v-8h-12C881.8,648,880,649.8,880,652z"/>
	<path class="st12" d="M860,656h-16c-2.2,0-4-1.8-4-4l0,0c0-2.2,1.8-4,4-4h16c2.2,0,4,1.8,4,4l0,0C864,654.2,862.2,656,860,656z"/>
	<path class="st12" d="M820,656h-16c-2.2,0-4-1.8-4-4l0,0c0-2.2,1.8-4,4-4h16c2.2,0,4,1.8,4,4l0,0C824,654.2,822.2,656,820,656z"/>
	<path class="st12" d="M796,672h-16c-2.2,0-4-1.8-4-4l0,0c0-2.2,1.8-4,4-4h16c2.2,0,4,1.8,4,4l0,0C800,670.2,798.2,672,796,672z"/>
	<path class="st12" d="M884,672h-16c-2.2,0-4-1.8-4-4l0,0c0-2.2,1.8-4,4-4h16c2.2,0,4,1.8,4,4l0,0C888,670.2,886.2,672,884,672z"/>
	<path class="st12" d="M844,672h-24c-2.2,0-4-1.8-4-4l0,0c0-2.2,1.8-4,4-4h24c2.2,0,4,1.8,4,4l0,0C848,670.2,846.2,672,844,672z"/>
	<path class="st12" d="M784,684c0,1.1-0.5,2.1-1.2,2.8c-0.7,0.7-1.7,1.2-2.8,1.2h-12v-8h12C782.2,680,784,681.8,784,684z"/>
	<path class="st12" d="M880,684c0,1.1,0.5,2.1,1.2,2.8c0.7,0.7,1.7,1.2,2.8,1.2h12v-8h-12C881.8,680,880,681.8,880,684z"/>
	<path class="st12" d="M860,688h-16c-2.2,0-4-1.8-4-4l0,0c0-2.2,1.8-4,4-4h16c2.2,0,4,1.8,4,4l0,0C864,686.2,862.2,688,860,688z"/>
	<path class="st12" d="M820,688h-16c-2.2,0-4-1.8-4-4l0,0c0-2.2,1.8-4,4-4h16c2.2,0,4,1.8,4,4l0,0C824,686.2,822.2,688,820,688z"/>
	<path class="st12" d="M796,704h-16c-2.2,0-4-1.8-4-4l0,0c0-2.2,1.8-4,4-4h16c2.2,0,4,1.8,4,4l0,0C800,702.2,798.2,704,796,704z"/>
	<path class="st12" d="M884,704h-16c-2.2,0-4-1.8-4-4l0,0c0-2.2,1.8-4,4-4h16c2.2,0,4,1.8,4,4l0,0C888,702.2,886.2,704,884,704z"/>
	<path class="st12" d="M844,704h-24c-2.2,0-4-1.8-4-4l0,0c0-2.2,1.8-4,4-4h24c2.2,0,4,1.8,4,4l0,0C848,702.2,846.2,704,844,704z"/>
	<path class="st12" d="M784,716c0,1.1-0.5,2.1-1.2,2.8c-0.7,0.7-1.7,1.2-2.8,1.2h-12v-8h12C782.2,712,784,713.8,784,716z"/>
	<path class="st12" d="M880,716c0,1.1,0.5,2.1,1.2,2.8c0.7,0.7,1.7,1.2,2.8,1.2h12v-8h-12C881.8,712,880,713.8,880,716z"/>
	<path class="st12" d="M860,720h-16c-2.2,0-4-1.8-4-4l0,0c0-2.2,1.8-4,4-4h16c2.2,0,4,1.8,4,4l0,0C864,718.2,862.2,720,860,720z"/>
	<path class="st12" d="M820,720h-16c-2.2,0-4-1.8-4-4l0,0c0-2.2,1.8-4,4-4h16c2.2,0,4,1.8,4,4l0,0C824,718.2,822.2,720,820,720z"/>
	<rect x="896" y="592" class="st11" width="128" height="128"/>
	<polygon class="st12" points="896,640 912,640 928,640 944,640 960,640 976,640 992,640 1008,640 1024,640 1024,608 896,608 	"/>
	<polygon class="st13" points="1024,632 1024,600 896,600 896,632 912,632 	"/>
	<polygon class="st14" points="896,624 912,624 927.7,624 943.7,624 960,624 975.7,624 994,624 1010,624 1024,624 1024,592 896,592 
			"/>
	<rect x="896" y="592" class="st13" width="128" height="4"/>
	<path class="st12" d="M912,652c0,1.1-0.5,2.1-1.2,2.8c-0.7,0.7-1.7,1.2-2.8,1.2h-12v-8h12C910.2,648,912,649.8,912,652z"/>
	<path class="st12" d="M1008,652c0,1.1,0.5,2.1,1.2,2.8c0.7,0.7,1.7,1.2,2.8,1.2h12v-8h-12C1009.8,648,1008,649.8,1008,652z"/>
	<path class="st12" d="M988,656h-16c-2.2,0-4-1.8-4-4l0,0c0-2.2,1.8-4,4-4h16c2.2,0,4,1.8,4,4l0,0C992,654.2,990.2,656,988,656z"/>
	<path class="st12" d="M948,656h-16c-2.2,0-4-1.8-4-4l0,0c0-2.2,1.8-4,4-4h16c2.2,0,4,1.8,4,4l0,0C952,654.2,950.2,656,948,656z"/>
	<path class="st12" d="M924,672h-16c-2.2,0-4-1.8-4-4l0,0c0-2.2,1.8-4,4-4h16c2.2,0,4,1.8,4,4l0,0C928,670.2,926.2,672,924,672z"/>
	<path class="st12" d="M1012,672h-16c-2.2,0-4-1.8-4-4l0,0c0-2.2,1.8-4,4-4h16c2.2,0,4,1.8,4,4l0,0C1016,670.2,1014.2,672,1012,672z
		"/>
	<path class="st12" d="M972,672h-24c-2.2,0-4-1.8-4-4l0,0c0-2.2,1.8-4,4-4h24c2.2,0,4,1.8,4,4l0,0C976,670.2,974.2,672,972,672z"/>
	<path class="st12" d="M912,684c0,1.1-0.5,2.1-1.2,2.8c-0.7,0.7-1.7,1.2-2.8,1.2h-12v-8h12C910.2,680,912,681.8,912,684z"/>
	<path class="st12" d="M1008,684c0,1.1,0.5,2.1,1.2,2.8c0.7,0.7,1.7,1.2,2.8,1.2h12v-8h-12C1009.8,680,1008,681.8,1008,684z"/>
	<path class="st12" d="M988,688h-16c-2.2,0-4-1.8-4-4l0,0c0-2.2,1.8-4,4-4h16c2.2,0,4,1.8,4,4l0,0C992,686.2,990.2,688,988,688z"/>
	<path class="st12" d="M948,688h-16c-2.2,0-4-1.8-4-4l0,0c0-2.2,1.8-4,4-4h16c2.2,0,4,1.8,4,4l0,0C952,686.2,950.2,688,948,688z"/>
	<path class="st12" d="M924,704h-16c-2.2,0-4-1.8-4-4l0,0c0-2.2,1.8-4,4-4h16c2.2,0,4,1.8,4,4l0,0C928,702.2,926.2,704,924,704z"/>
	<path class="st12" d="M1012,704h-16c-2.2,0-4-1.8-4-4l0,0c0-2.2,1.8-4,4-4h16c2.2,0,4,1.8,4,4l0,0C1016,702.2,1014.2,704,1012,704z
		"/>
	<path class="st12" d="M972,704h-24c-2.2,0-4-1.8-4-4l0,0c0-2.2,1.8-4,4-4h24c2.2,0,4,1.8,4,4l0,0C976,702.2,974.2,704,972,704z"/>
	<path class="st12" d="M912,716c0,1.1-0.5,2.1-1.2,2.8c-0.7,0.7-1.7,1.2-2.8,1.2h-12v-8h12C910.2,712,912,713.8,912,716z"/>
	<path class="st12" d="M1008,716c0,1.1,0.5,2.1,1.2,2.8c0.7,0.7,1.7,1.2,2.8,1.2h12v-8h-12C1009.8,712,1008,713.8,1008,716z"/>
	<path class="st12" d="M988,720h-16c-2.2,0-4-1.8-4-4l0,0c0-2.2,1.8-4,4-4h16c2.2,0,4,1.8,4,4l0,0C992,718.2,990.2,720,988,720z"/>
	<path class="st12" d="M948,720h-16c-2.2,0-4-1.8-4-4l0,0c0-2.2,1.8-4,4-4h16c2.2,0,4,1.8,4,4l0,0C952,718.2,950.2,720,948,720z"/>
	<rect x="1024" y="592" class="st11" width="128" height="128"/>
	<polygon class="st12" points="1024,640 1040,640 1056,640 1072,640 1088,640 1104,640 1120,640 1136,640 1152,640 1152,608 
		1024,608 	"/>
	<polygon class="st13" points="1152,632 1152,600 1024,600 1024,632 1040,632 	"/>
	<polygon class="st14" points="1024,624 1040,624 1055.7,624 1071.7,624 1088,624 1103.7,624 1122,624 1138,624 1152,624 1152,592 
		1024,592 	"/>
	<rect x="1024" y="592" class="st13" width="128" height="4"/>
	<path class="st12" d="M1040,652c0,1.1-0.4,2.1-1.2,2.8c-0.7,0.7-1.7,1.2-2.8,1.2h-12v-8h12C1038.2,648,1040,649.8,1040,652z"/>
	<path class="st12" d="M1136,652c0,1.1,0.4,2.1,1.2,2.8c0.7,0.7,1.7,1.2,2.8,1.2h12v-8h-12C1137.8,648,1136,649.8,1136,652z"/>
	<path class="st12" d="M1116,656h-16c-2.2,0-4-1.8-4-4l0,0c0-2.2,1.8-4,4-4h16c2.2,0,4,1.8,4,4l0,0C1120,654.2,1118.2,656,1116,656z
		"/>
	<path class="st12" d="M1076,656h-16c-2.2,0-4-1.8-4-4l0,0c0-2.2,1.8-4,4-4h16c2.2,0,4,1.8,4,4l0,0C1080,654.2,1078.2,656,1076,656z
		"/>
	<path class="st12" d="M1052,672h-16c-2.2,0-4-1.8-4-4l0,0c0-2.2,1.8-4,4-4h16c2.2,0,4,1.8,4,4l0,0C1056,670.2,1054.2,672,1052,672z
		"/>
	<path class="st12" d="M1140,672h-16c-2.2,0-4-1.8-4-4l0,0c0-2.2,1.8-4,4-4h16c2.2,0,4,1.8,4,4l0,0C1144,670.2,1142.2,672,1140,672z
		"/>
	<path class="st12" d="M1100,672h-24c-2.2,0-4-1.8-4-4l0,0c0-2.2,1.8-4,4-4h24c2.2,0,4,1.8,4,4l0,0C1104,670.2,1102.2,672,1100,672z
		"/>
	<path class="st12" d="M1040,684c0,1.1-0.4,2.1-1.2,2.8c-0.7,0.7-1.7,1.2-2.8,1.2h-12v-8h12C1038.2,680,1040,681.8,1040,684z"/>
	<path class="st12" d="M1136,684c0,1.1,0.4,2.1,1.2,2.8c0.7,0.7,1.7,1.2,2.8,1.2h12v-8h-12C1137.8,680,1136,681.8,1136,684z"/>
	<path class="st12" d="M1116,688h-16c-2.2,0-4-1.8-4-4l0,0c0-2.2,1.8-4,4-4h16c2.2,0,4,1.8,4,4l0,0C1120,686.2,1118.2,688,1116,688z
		"/>
	<path class="st12" d="M1076,688h-16c-2.2,0-4-1.8-4-4l0,0c0-2.2,1.8-4,4-4h16c2.2,0,4,1.8,4,4l0,0C1080,686.2,1078.2,688,1076,688z
		"/>
	<path class="st12" d="M1052,704h-16c-2.2,0-4-1.8-4-4l0,0c0-2.2,1.8-4,4-4h16c2.2,0,4,1.8,4,4l0,0C1056,702.2,1054.2,704,1052,704z
		"/>
	<path class="st12" d="M1140,704h-16c-2.2,0-4-1.8-4-4l0,0c0-2.2,1.8-4,4-4h16c2.2,0,4,1.8,4,4l0,0C1144,702.2,1142.2,704,1140,704z
		"/>
	<path class="st12" d="M1100,704h-24c-2.2,0-4-1.8-4-4l0,0c0-2.2,1.8-4,4-4h24c2.2,0,4,1.8,4,4l0,0C1104,702.2,1102.2,704,1100,704z
		"/>
	<path class="st12" d="M1040,716c0,1.1-0.4,2.1-1.2,2.8c-0.7,0.7-1.7,1.2-2.8,1.2h-12v-8h12C1038.2,712,1040,713.8,1040,716z"/>
	<path class="st12" d="M1136,716c0,1.1,0.4,2.1,1.2,2.8c0.7,0.7,1.7,1.2,2.8,1.2h12v-8h-12C1137.8,712,1136,713.8,1136,716z"/>
	<path class="st12" d="M1116,720h-16c-2.2,0-4-1.8-4-4l0,0c0-2.2,1.8-4,4-4h16c2.2,0,4,1.8,4,4l0,0C1120,718.2,1118.2,720,1116,720z
		"/>
	<path class="st12" d="M1076,720h-16c-2.2,0-4-1.8-4-4l0,0c0-2.2,1.8-4,4-4h16c2.2,0,4,1.8,4,4l0,0C1080,718.2,1078.2,720,1076,720z
		"/>
</g>
</svg>
