<?xml version="1.0" encoding="utf-8"?>
<!-- Generator: Adobe Illustrator 19.2.1, SVG Export Plug-In . SVG Version: 6.00 Build 0)  -->
<svg version="1.1" id="main" xmlns="http://www.w3.org/2000/svg" xmlns:xlink="http://www.w3.org/1999/xlink" x="0px" y="0px"
	 viewBox="0 0 1920 1920" style="enable-background:new 0 0 1920 1920;" xml:space="preserve">
<style type="text/css">
	.st0{fill:#B4ADD6;}
	.st1{fill:#585151;}
	.st2{fill:#50494A;}
	.st3{fill:#B2875D;}
	.st4{fill:#9E7451;}
	.st5{fill:#846450;}
	.st6{fill:#664C3A;}
	.st7{fill:#8C8383;}
	.st8{fill:#5C5353;}
	.st9{fill:#7E7474;}
	.st10{fill:#6D6465;}
	.st11{opacity:0.1;enable-background:new    ;}
	.st12{fill:#A29999;}
	.st13{fill:#846451;}
	.st14{fill:#674D3B;}
	.st15{fill:#6D6466;}
	.st16{fill:#6E6467;}
	.st17{fill:#EB2629;}
	.st18{fill:#73BF45;}
	.st19{fill:#4478BC;}
	.st20{fill:#FCBB19;}
	.st21{fill:#684E3C;}
	.st22{fill:#846452;}
	.st23{fill:#846453;}
	.st24{fill:#706469;}
	.st25{fill:#6F6468;}
	.st26{fill:#684F3D;}
	.st27{fill:#C02227;}
	.st28{fill:#AB5529;}
	.st29{opacity:0.16;fill:#FFFFFF;enable-background:new    ;}
	.st30{fill:#959595;}
	.st31{fill:#FEBC12;}
	.st32{fill:#EC2327;}
	.st33{fill:#71BF45;}
	.st34{fill:#4378BD;}
	.st35{fill:#FDBC16;}
	.st36{fill:#E9545A;}
	.st37{fill:#8BBC6C;}
	.st38{fill:#74C045;}
	.st39{fill:#6A90BA;}
	.st40{fill:#F8C44E;}
	.st41{fill:#FBBA1A;}
	.st42{fill:#B66B40;}
	.st43{fill:#F9B91A;}
	.st44{opacity:0.32;fill:#FFFFFF;enable-background:new    ;}
	.st45{fill:#51494A;}
	.st46{fill:#E8555A;}
	.st47{fill:#F7C34E;}
	.st48{fill:#75C045;}
	.st49{fill:#FFFFFF;}
	.st50{font-family:'Aquino-Demo';}
	.st51{font-size:64px;}
	.st52{fill:#B58066;}
	.st53{fill:#F7C561;}
	.st54{font-size:49.7903px;}
	.st55{fill:#DBAF97;}
	.st56{fill:#9F3423;}
	.st57{fill:#BF3C27;}
	.st58{fill:#69513F;}
	.st59{fill:#CCA658;}
	.st60{fill:#CB953C;}
	.st61{font-family:'NexaLight';}
	.st62{font-size:79px;}
	.st63{font-size:48px;}
</style>
<g id="bg">
	<rect class="st0" width="1920" height="1920"/>
</g>
<g id="objects">
	<path class="st1" d="M673.6,1481.1l-70.4,15c-2.2,0.5-3.5,2.6-3.1,4.7l0,0c0.5,2.2,2.6,3.5,4.7,3.1l70.4-15
		c2.2-0.5,3.5-2.6,3.1-4.7l0,0C677.9,1482,675.8,1480.7,673.6,1481.1z"/>
	<path class="st2" d="M673.6,1497.1l-70.4,15c-2.2,0.5-3.5,2.6-3.1,4.7l0,0c0.5,2.2,2.6,3.5,4.7,3.1l70.4-15
		c2.2-0.5,3.5-2.6,3.1-4.7l0,0C677.9,1498,675.8,1496.7,673.6,1497.1z"/>
	<path class="st1" d="M673.6,1513.1l-70.4,15c-2.2,0.5-3.5,2.6-3.1,4.7l0,0c0.5,2.2,2.6,3.5,4.7,3.1l70.4-15
		c2.2-0.5,3.5-2.6,3.1-4.7l0,0C677.9,1514,675.8,1512.7,673.6,1513.1z"/>
	<path class="st3" d="M132,1072v56h-8v-56c0-2.2,1.8-4,4-4S132,1069.8,132,1072z"/>
	<path class="st3" d="M184,192H72c-4.4,0-8-3.6-8-8V72c0-4.4,3.6-8,8-8h112c4.4,0,8,3.6,8,8v112C192,188.4,188.4,192,184,192z"/>
	<path class="st4" d="M168,176H88c-4.4,0-8-3.6-8-8V88c0-4.4,3.6-8,8-8h80c4.4,0,8,3.6,8,8v80C176,172.4,172.4,176,168,176z"/>
	<path class="st3" d="M324,192H212c-4.4,0-8-3.6-8-8V72c0-4.4,3.6-8,8-8h112c4.4,0,8,3.6,8,8v112C332,188.4,328.4,192,324,192z"/>
	<path class="st4" d="M308,176h-80c-4.4,0-8-3.6-8-8V88c0-4.4,3.6-8,8-8h80c4.4,0,8,3.6,8,8v80C316,172.4,312.4,176,308,176z"/>
	<path class="st3" d="M464,192H352c-4.4,0-8-3.6-8-8V72c0-4.4,3.6-8,8-8h112c4.4,0,8,3.6,8,8v112C472,188.4,468.4,192,464,192z"/>
	<path class="st4" d="M448,176h-80c-4.4,0-8-3.6-8-8V88c0-4.4,3.6-8,8-8h80c4.4,0,8,3.6,8,8v80C456,172.4,452.4,176,448,176z"/>
	<polygon class="st3" points="220,176 220,164 304,80 316,80 316,92 232,176 	"/>
	<polygon class="st3" points="360,176 360,164 444,80 456,80 456,92 372,176 	"/>
	<polygon class="st3" points="360,80 372,80 456,164 456,176 444,176 360,92 	"/>
	<path class="st5" d="M184,332H72c-4.4,0-8-3.6-8-8V212c0-4.4,3.6-8,8-8h112c4.4,0,8,3.6,8,8v112C192,328.4,188.4,332,184,332z"/>
	<path class="st6" d="M168,316H88c-4.4,0-8-3.6-8-8v-80c0-4.4,3.6-8,8-8h80c4.4,0,8,3.6,8,8v80C176,312.4,172.4,316,168,316z"/>
	<path class="st5" d="M324,332H212c-4.4,0-8-3.6-8-8V212c0-4.4,3.6-8,8-8h112c4.4,0,8,3.6,8,8v112C332,328.4,328.4,332,324,332z"/>
	<path class="st6" d="M308,316h-80c-4.4,0-8-3.6-8-8v-80c0-4.4,3.6-8,8-8h80c4.4,0,8,3.6,8,8v80C316,312.4,312.4,316,308,316z"/>
	<path class="st5" d="M464,332H352c-4.4,0-8-3.6-8-8V212c0-4.4,3.6-8,8-8h112c4.4,0,8,3.6,8,8v112C472,328.4,468.4,332,464,332z"/>
	<path class="st6" d="M448,316h-80c-4.4,0-8-3.6-8-8v-80c0-4.4,3.6-8,8-8h80c4.4,0,8,3.6,8,8v80C456,312.4,452.4,316,448,316z"/>
	<polygon class="st5" points="220,316 220,304 304,220 316,220 316,232 232,316 	"/>
	<polygon class="st5" points="360,316 360,304 444,220 456,220 456,232 372,316 	"/>
	<polygon class="st5" points="360,220 372,220 456,304 456,316 444,316 360,232 	"/>
	<path class="st7" d="M472,352v112c0,2.2-0.9,4.2-2.3,5.7c-1.4,1.4-3.4,2.3-5.7,2.3H352c-2.2,0-4.2-0.9-5.7-2.3
		c-1.4-1.5-2.3-3.5-2.3-5.7V352c0-2.2,0.9-4.2,2.3-5.7c1.4-1.4,3.4-2.3,5.7-2.3h112c2.2,0,4.2,0.9,5.7,2.3
		C471.1,347.8,472,349.8,472,352z"/>
	<path class="st8" d="M332,352v112c0,1.5-0.4,2.8-1.1,4c-1.4,2.4-4,4-6.9,4H212c-3,0-5.5-1.6-6.9-4c-0.7-1.2-1.1-2.5-1.1-4V352
		c0-4.4,3.6-8,8-8h112C328.4,344,332,347.6,332,352z"/>
	<path class="st9" d="M264,380h-40c-4.4,0-8-3.6-8-8v-8c0-4.4,3.6-8,8-8h40c4.4,0,8,3.6,8,8v8C272,376.4,268.4,380,264,380z"/>
	<path class="st9" d="M312,460h-40c-4.4,0-8-3.6-8-8v-8c0-4.4,3.6-8,8-8h40c4.4,0,8,3.6,8,8v8C320,456.4,316.4,460,312,460z"/>
	<path class="st10" d="M472,352v112c0,4.4-3.6,8-8,8H352c-2.2,0-4.2-0.9-5.7-2.3l123.3-123.3C471.1,347.8,472,349.8,472,352z"/>
	<path class="st11" d="M469.7,469.7c-1.4,1.4-3.4,2.3-5.7,2.3H352c-2.2,0-4.2-0.9-5.7-2.3c-1.4-1.5-2.3-3.5-2.3-5.7V352
		c0-2.2,0.9-4.2,2.3-5.7L469.7,469.7z"/>
	<rect x="364" y="364" class="st12" width="88" height="88"/>
	<path class="st3" d="M607.7,187.4c-5.4,2.9-11.5,4.6-17.9,4.6h-27.6c-6.4,0-12.5-1.6-17.9-4.6c-17.9-9.6-24.5-30.9-17.7-48.8
		c1.5-3.8,3.5-7.5,6.2-10.8l4.6-5.7c9-11.2,11.3-26.4,6-39.8l-2.5-6.4l-0.4-1c-2.1-5.3,1.8-11,7.4-11h56.4c5.7,0,9.5,5.7,7.4,11
		l-0.4,1l-2.5,6.4c-5.3,13.4-3.1,28.5,6,39.8l4.6,5.7c2.7,3.4,4.8,7,6.2,10.8C632.3,156.5,625.6,177.8,607.7,187.4z"/>
	<path class="st4" d="M611.7,75l-0.4,1h-70.4l-0.4-1c-2.1-5.3,1.8-11,7.4-11h56.4C609.9,64,613.8,69.7,611.7,75z"/>
	<path class="st4" d="M607.7,187.4c-5.4,2.9-11.5,4.6-17.9,4.6h-27.6c-6.4,0-12.5-1.6-17.9-4.6c-17.9-9.6-24.5-30.9-17.7-48.8
		c1.9,0.1,3.8-0.4,5.4-1.6l7.2-5.4c2.8-2.1,6.8-2.1,9.6,0l6.4,4.8c2.8,2.1,6.8,2.1,9.6,0l6.4-4.8c2.8-2.1,6.7-2.1,9.5,0l6.7,4.9
		c2.8,2.1,6.7,2.1,9.5,0l6.4-4.8c2.8-2.1,6.8-2.1,9.6,0l7.2,5.4c1.5,1.1,3.2,1.6,5,1.6C632.3,156.5,625.6,177.8,607.7,187.4z"/>
	<path class="st13" d="M607.7,327.4c-5.4,2.9-11.5,4.6-17.9,4.6h-27.6c-6.4,0-12.5-1.6-17.9-4.6c-17.9-9.6-24.5-30.9-17.7-48.8
		c1.5-3.8,3.5-7.5,6.2-10.8l4.6-5.7c9-11.2,11.3-26.4,6-39.8l-2.5-6.4l-0.4-1c-2.1-5.3,1.8-11,7.4-11h56.4c5.7,0,9.5,5.7,7.4,11
		l-0.4,1l-2.5,6.4c-5.3,13.4-3.1,28.5,6,39.8l4.6,5.7c2.7,3.4,4.8,7,6.2,10.8C632.3,296.5,625.6,317.8,607.7,327.4z"/>
	<path class="st14" d="M611.7,215l-0.4,1h-70.4l-0.4-1c-2.1-5.3,1.8-11,7.4-11h56.4C609.9,204,613.8,209.7,611.7,215z"/>
	<path class="st14" d="M607.7,327.4c-5.4,2.9-11.5,4.6-17.9,4.6h-27.6c-6.4,0-12.5-1.6-17.9-4.6c-17.9-9.6-24.5-30.9-17.7-48.8
		c1.9,0.1,3.8-0.4,5.4-1.6l7.2-5.4c2.8-2.1,6.8-2.1,9.6,0l6.4,4.8c2.8,2.1,6.8,2.1,9.6,0l6.4-4.8c2.8-2.1,6.7-2.1,9.5,0l6.7,4.9
		c2.8,2.1,6.7,2.1,9.5,0l6.4-4.8c2.8-2.1,6.8-2.1,9.6,0l7.2,5.4c1.5,1.1,3.2,1.6,5,1.6C632.3,296.5,625.6,317.8,607.7,327.4z"/>
	<path class="st3" d="M738.8,146.4c0.2,8.3-1.1,16.6-3.8,24.7l-5.7,17.1c-0.4,1.1-1.1,2.1-2,2.7c-0.9,0.7-2,1-3.2,1h-40
		c-2.4,0-4.5-1.5-5.3-3.8l-5.7-17.1c-2.7-8.1-4-16.4-3.8-24.6c0.2-9.8,2.4-19.6,6.5-29l3.1-6.9c0.3-0.7,0.5-1.4,0.5-2.1
		c0-0.2,0-0.3,0-0.5c-0.1-0.9-0.4-1.7-0.9-2.5c-2.9-4.4,1.3-9.5,7.9-9.5h35.5c6.5,0,10.8,5.2,7.9,9.5c-0.5,0.8-0.8,1.6-0.9,2.5
		c-0.1,0.9,0,1.8,0.4,2.6l3.1,6.9C736.4,126.9,738.6,136.6,738.8,146.4z"/>
	<path class="st4" d="M738.8,146.4c0.2,8.3-1.1,16.6-3.8,24.7l-5.7,17.1c-0.4,1.1-1.1,2.1-2,2.7c-0.9,0.7-2,1-3.2,1h-40
		c-2.4,0-4.5-1.5-5.3-3.8l-5.7-17.1c-2.7-8.1-4-16.4-3.8-24.6c2.5-0.9,5.4-0.6,7.6,1.1l6.4,4.8c2.8,2.1,6.8,2.1,9.6,0l6.4-4.8
		c2.8-2.1,6.7-2.1,9.5,0l6.7,4.9c2.8,2.1,6.7,2.1,9.5,0l6.4-4.8C733.6,146,736.3,145.6,738.8,146.4z"/>
	<path class="st4" d="M729.6,105.5c-0.5,0.8-0.8,1.6-0.9,2.5h-49.5c-0.1-0.9-0.4-1.7-0.9-2.5c-2.9-4.4,1.3-9.5,7.9-9.5h35.5
		C728.3,96,732.6,101.2,729.6,105.5z"/>
	<path class="st13" d="M738.8,286.4c0.2,8.3-1.1,16.6-3.8,24.7l-5.7,17.1c-0.4,1.1-1.1,2.1-2,2.7c-0.9,0.7-2,1-3.2,1h-40
		c-2.4,0-4.5-1.5-5.3-3.8l-5.7-17.1c-2.7-8.1-4-16.4-3.8-24.6c0.2-9.8,2.4-19.6,6.5-29l3.1-6.9c0.3-0.7,0.5-1.4,0.5-2.1
		c0-0.2,0-0.3,0-0.5c-0.1-0.9-0.4-1.7-0.9-2.5c-2.9-4.4,1.3-9.5,7.9-9.5h35.5c6.5,0,10.8,5.2,7.9,9.5c-0.5,0.8-0.8,1.6-0.9,2.5
		c-0.1,0.9,0,1.8,0.4,2.6l3.1,6.9C736.4,266.9,738.6,276.6,738.8,286.4z"/>
	<path class="st14" d="M738.8,286.4c0.2,8.3-1.1,16.6-3.8,24.7l-5.7,17.1c-0.4,1.1-1.1,2.1-2,2.7c-0.9,0.7-2,1-3.2,1h-40
		c-2.4,0-4.5-1.5-5.3-3.8l-5.7-17.1c-2.7-8.1-4-16.4-3.8-24.6c2.5-0.9,5.4-0.6,7.6,1.1l6.4,4.8c2.8,2.1,6.8,2.1,9.6,0l6.4-4.8
		c2.8-2.1,6.7-2.1,9.5,0l6.7,4.9c2.8,2.1,6.7,2.1,9.5,0l6.4-4.8C733.6,286,736.3,285.6,738.8,286.4z"/>
	<path class="st14" d="M729.6,245.5c-0.5,0.8-0.8,1.6-0.9,2.5h-49.5c-0.1-0.9-0.4-1.7-0.9-2.5c-2.9-4.4,1.3-9.5,7.9-9.5h35.5
		C728.3,236,732.6,241.2,729.6,245.5z"/>
	<path class="st3" d="M880.3,128c0,2.7-0.1,5.3-0.2,8c-0.9,15-4.4,29.9-10.3,44c-0.6,1.3-1.2,2.7-1.8,4c-0.5,1.2-1.1,2.4-1.7,3.6
		c-0.7,1.4-1.7,2.5-3,3.2c-1.2,0.8-2.7,1.2-4.2,1.2H805c-3,0-5.8-1.7-7.2-4.4c-0.6-1.2-1.2-2.4-1.7-3.6c-0.6-1.3-1.2-2.7-1.8-4
		c-6-14.1-9.4-29-10.3-44c-0.2-2.7-0.2-5.3-0.2-8c0-1.3,0-2.7,0.1-4c0-1.3,0.1-2.7,0.2-4c0.9-15,4.4-29.9,10.3-44
		c1.1-2.5,2.2-5.1,3.5-7.6c0.7-1.4,1.7-2.5,3-3.2c1.2-0.8,2.7-1.2,4.2-1.2h54.1c3,0,5.8,1.7,7.2,4.4c1.3,2.5,2.4,5,3.5,7.6
		c6,14.1,9.4,29,10.3,44c0.1,1.3,0.1,2.7,0.2,4C880.3,125.3,880.3,126.7,880.3,128z"/>
	<path class="st10" d="M869.7,76h-75.4c1.1-2.5,2.2-5.1,3.5-7.6c0.7-1.4,1.7-2.5,3-3.2c1.2-0.8,2.7-1.2,4.2-1.2h54.1
		c3,0,5.8,1.7,7.2,4.4C867.5,70.9,868.6,73.5,869.7,76z"/>
	<path class="st4" d="M880.3,128c0,2.7-0.1,5.3-0.2,8c-0.9,15-4.4,29.9-10.3,44c-0.6,1.3-1.2,2.7-1.8,4h-71.9
		c-0.6-1.3-1.2-2.7-1.8-4c-6-14.1-9.4-29-10.3-44c-0.2-2.7-0.2-5.3-0.2-8c0-1.3,0-2.7,0.1-4h96.4C880.3,125.3,880.3,126.7,880.3,128
		z"/>
	<path class="st10" d="M880.3,128c0,2.7-0.1,5.3-0.2,8H784c-0.2-2.7-0.2-5.3-0.2-8s0.1-5.3,0.2-8h96
		C880.2,122.7,880.3,125.3,880.3,128z"/>
	<path class="st10" d="M869.7,180c-1.1,2.5-2.2,5.1-3.5,7.6c-0.7,1.4-1.7,2.5-3,3.2c-1.2,0.8-2.7,1.2-4.2,1.2h-54.1
		c-3,0-5.8-1.7-7.2-4.4c-1.3-2.5-2.4-5-3.5-7.6H869.7z"/>
	<path class="st13" d="M880,268c0,2.7-0.1,5.3-0.2,8c-0.9,15-4.4,29.9-10.3,44c-0.6,1.3-1.2,2.7-1.8,4c-0.5,1.2-1.1,2.4-1.7,3.6
		c-0.7,1.4-1.7,2.5-3,3.2c-1.2,0.8-2.7,1.2-4.2,1.2h-54.1c-3,0-5.8-1.7-7.2-4.4c-0.6-1.2-1.2-2.4-1.7-3.6c-0.6-1.3-1.2-2.7-1.8-4
		c-6-14.1-9.4-29-10.3-44c-0.2-2.7-0.2-5.3-0.2-8c0-1.3,0-2.7,0.1-4c0-1.3,0.1-2.7,0.2-4c0.9-15,4.4-29.9,10.3-44
		c1.1-2.5,2.2-5.1,3.5-7.6c0.7-1.4,1.7-2.5,3-3.2c1.2-0.8,2.7-1.2,4.2-1.2h54.1c3,0,5.8,1.7,7.2,4.4c1.3,2.5,2.4,5,3.5,7.6
		c6,14.1,9.4,29,10.3,44c0.1,1.3,0.1,2.7,0.2,4C880,265.3,880,266.7,880,268z"/>
	<path class="st7" d="M869.4,216H794c1.1-2.5,2.2-5.1,3.5-7.6c0.7-1.4,1.7-2.5,3-3.2c1.2-0.8,2.7-1.2,4.2-1.2h54.1
		c3,0,5.8,1.7,7.2,4.4C867.2,210.9,868.3,213.5,869.4,216z"/>
	<path class="st14" d="M880,268c0,2.7-0.1,5.3-0.2,8c-0.9,15-4.4,29.9-10.3,44c-0.6,1.3-1.2,2.7-1.8,4h-71.9c-0.6-1.3-1.2-2.7-1.8-4
		c-6-14.1-9.4-29-10.3-44c-0.2-2.7-0.2-5.3-0.2-8c0-1.3,0-2.7,0.1-4H880C880,265.3,880,266.7,880,268z"/>
	<path class="st7" d="M880,268c0,2.7-0.1,5.3-0.2,8h-96.1c-0.2-2.7-0.2-5.3-0.2-8s0.1-5.3,0.2-8h96.1C879.9,262.7,880,265.3,880,268
		z"/>
	<path class="st7" d="M869.4,320c-1.1,2.5-2.2,5.1-3.5,7.6c-0.7,1.4-1.7,2.5-3,3.2c-1.2,0.8-2.7,1.2-4.2,1.2h-54.1
		c-3,0-5.8-1.7-7.2-4.4c-1.3-2.5-2.4-5-3.5-7.6L869.4,320L869.4,320z"/>
	<path class="st4" d="M128,512L128,512c-4.4,0-8,3.6-8,8v120h16V520C136,515.6,132.4,512,128,512z"/>
	<path class="st3" d="M168,576H88c-4.4,0-8-3.6-8-8v-40c0-4.4,3.6-8,8-8h80c4.4,0,8,3.6,8,8v40C176,572.4,172.4,576,168,576z"/>
	<path class="st4" d="M248,512L248,512c-4.4,0-8,3.6-8,8v120h16V520C256,515.6,252.4,512,248,512z"/>
	<path class="st3" d="M303.2,544c-0.5-1.1-1.2-2.1-2.1-2.9L288,528l-6.3-6.3c-1.1-1.1-2.5-1.7-4-1.7c-1.6,0-3,0.6-4,1.7
		c-1,1-1.7,2.4-1.7,4v2.3h-56c-4.4,0-8,3.6-8,8v24c0,4.4,3.6,8,8,8h56v2.3c0,3.1,2.5,5.7,5.7,5.7c1.5,0,2.9-0.6,4-1.7l6.3-6.3
		l13.2-13.2c1.8-1.8,2.8-4.3,2.8-6.8C304,546.7,303.7,545.3,303.2,544z"/>
	<path class="st14" d="M384,512L384,512c-4.4,0-8,3.6-8,8v120h16V520C392,515.6,388.4,512,384,512z"/>
	<path class="st13" d="M424,576h-80c-4.4,0-8-3.6-8-8v-40c0-4.4,3.6-8,8-8h80c4.4,0,8,3.6,8,8v40C432,572.4,428.4,576,424,576z"/>
	<path class="st14" d="M504,512L504,512c-4.4,0-8,3.6-8,8v120h16V520C512,515.6,508.4,512,504,512z"/>
	<path class="st13" d="M559.2,544c-0.5-1.1-1.2-2.1-2.1-2.9L544,528l-6.3-6.3c-1.1-1.1-2.5-1.7-4-1.7c-1.6,0-3,0.6-4,1.7
		c-1,1-1.7,2.4-1.7,4v2.3h-56c-4.4,0-8,3.6-8,8v24c0,4.4,3.6,8,8,8h56v2.3c0,3.1,2.5,5.7,5.7,5.7c1.5,0,2.9-0.6,4-1.7l6.3-6.3
		l13.2-13.2c1.8-1.8,2.8-4.3,2.8-6.8C560,546.7,559.7,545.3,559.2,544z"/>
	<path class="st4" d="M76,768l10.1-27c0.6-1.7,3.1-1.7,3.7,0l10.1,27H76z"/>
	<path class="st4" d="M116,768l10.1-27c0.6-1.7,3.1-1.7,3.7,0l10.1,27H116z"/>
	<path class="st4" d="M156,768l10.1-27c0.6-1.7,3.1-1.7,3.7,0l10.1,27H156z"/>
	<path class="st4" d="M204,760.3l10.1-27c0.6-1.7,3.1-1.7,3.7,0l10.1,27H204z"/>
	<path class="st4" d="M244,760.3l10.1-27c0.6-1.7,3.1-1.7,3.7,0l10.1,27H244z"/>
	<path class="st4" d="M284,760.3l10.1-27c0.6-1.7,3.1-1.7,3.7,0l10.1,27H284z"/>
	<path class="st3" d="M308,760H204c-2.2,0-4,1.8-4,4v4h112v-4C312,761.8,310.2,760,308,760z"/>
	<path class="st15" d="M640,512L640,512c-4.4,0-8,3.6-8,8v120h16V520C648,515.6,644.4,512,640,512z"/>
	<path class="st7" d="M680,576h-80c-4.4,0-8-3.6-8-8v-40c0-4.4,3.6-8,8-8h80c4.4,0,8,3.6,8,8v40C688,572.4,684.4,576,680,576z"/>
	<path class="st15" d="M760,512L760,512c-4.4,0-8,3.6-8,8v120h16V520C768,515.6,764.4,512,760,512z"/>
	<path class="st7" d="M815.2,544c-0.5-1.1-1.2-2.1-2.1-2.9L800,528l-6.3-6.3c-1.1-1.1-2.5-1.7-4-1.7c-1.6,0-3,0.6-4,1.7
		c-1,1-1.7,2.4-1.7,4v2.3h-56c-4.4,0-8,3.6-8,8v24c0,4.4,3.6,8,8,8h56v2.3c0,3.1,2.5,5.7,5.7,5.7c1.5,0,2.9-0.6,4-1.7l6.3-6.3
		l13.2-13.2c1.8-1.8,2.8-4.3,2.8-6.8C816,546.7,815.7,545.3,815.2,544z"/>
	<path class="st7" d="M607.7,467.4c-5.4,2.9-11.5,4.6-17.9,4.6h-27.6c-6.4,0-12.5-1.6-17.9-4.6c-17.9-9.6-24.5-30.9-17.7-48.8
		c1.5-3.8,3.5-7.5,6.2-10.8l4.6-5.7c9-11.2,11.3-26.4,6-39.8l-2.5-6.4l-0.4-1c-2.1-5.3,1.8-11,7.4-11h56.4c5.7,0,9.5,5.7,7.4,11
		l-0.4,1l-2.5,6.4c-5.3,13.4-3.1,28.5,6,39.8l4.6,5.7c2.7,3.4,4.8,7,6.2,10.8C632.3,436.5,625.6,457.8,607.7,467.4z"/>
	<path class="st16" d="M611.7,355l-0.4,1h-70.4l-0.4-1c-2.1-5.3,1.8-11,7.4-11h56.4C609.9,344,613.8,349.7,611.7,355z"/>
	<path class="st16" d="M607.7,467.4c-5.4,2.9-11.5,4.6-17.9,4.6h-27.6c-6.4,0-12.5-1.6-17.9-4.6c-17.9-9.6-24.5-30.9-17.7-48.8
		c1.9,0.1,3.8-0.4,5.4-1.6l7.2-5.4c2.8-2.1,6.8-2.1,9.6,0l6.4,4.8c2.8,2.1,6.8,2.1,9.6,0l6.4-4.8c2.8-2.1,6.7-2.1,9.5,0l6.7,4.9
		c2.8,2.1,6.7,2.1,9.5,0l6.4-4.8c2.8-2.1,6.8-2.1,9.6,0l7.2,5.4c1.5,1.1,3.2,1.6,5,1.6C632.3,436.5,625.6,457.8,607.7,467.4z"/>
	<path class="st7" d="M738.8,426.4c0.2,8.3-1.1,16.6-3.8,24.7l-5.7,17.1c-0.4,1.1-1.1,2.1-2,2.7c-0.9,0.7-2,1-3.2,1h-40
		c-2.4,0-4.5-1.5-5.3-3.8l-5.7-17.1c-2.7-8.1-4-16.4-3.8-24.6c0.2-9.8,2.4-19.6,6.5-29l3.1-6.9c0.3-0.7,0.5-1.4,0.5-2.1
		c0-0.2,0-0.3,0-0.5c-0.1-0.9-0.4-1.7-0.9-2.5c-2.9-4.4,1.3-9.5,7.9-9.5h35.5c6.5,0,10.8,5.2,7.9,9.5c-0.5,0.8-0.8,1.6-0.9,2.5
		c-0.1,0.9,0,1.8,0.4,2.6l3.1,6.9C736.4,406.9,738.6,416.6,738.8,426.4z"/>
	<path class="st16" d="M738.8,426.4c0.2,8.3-1.1,16.6-3.8,24.7l-5.7,17.1c-0.4,1.1-1.1,2.1-2,2.7c-0.9,0.7-2,1-3.2,1h-40
		c-2.4,0-4.5-1.5-5.3-3.8l-5.7-17.1c-2.7-8.1-4-16.4-3.8-24.6c2.5-0.9,5.4-0.6,7.6,1.1l6.4,4.8c2.8,2.1,6.8,2.1,9.6,0l6.4-4.8
		c2.8-2.1,6.7-2.1,9.5,0l6.7,4.9c2.8,2.1,6.7,2.1,9.5,0l6.4-4.8C733.6,426,736.3,425.6,738.8,426.4z"/>
	<path class="st16" d="M729.6,385.5c-0.5,0.8-0.8,1.6-0.9,2.5h-49.5c-0.1-0.9-0.4-1.7-0.9-2.5c-2.9-4.4,1.3-9.5,7.9-9.5h35.5
		C728.3,376,732.6,381.2,729.6,385.5z"/>
	<path class="st4" d="M351.4,768h-14.8l3-8l2.5-6.7c0.7-1.7,3.1-1.7,3.7,0l2.5,6.7L351.4,768z"/>
	<path class="st4" d="M391.4,768h-14.8l3-8l2.5-6.7c0.7-1.7,3.1-1.7,3.7,0l2.5,6.7L391.4,768z"/>
	<path class="st4" d="M431.4,768h-14.8l3-8l2.5-6.7c0.7-1.7,3.1-1.7,3.7,0l2.5,6.7L431.4,768z"/>
	<path class="st3" d="M440,764v4H328v-4c0-2.2,1.8-4,4-4h104C438.2,760,440,761.8,440,764z"/>
	<path class="st17" d="M544,732h-64c-4.4,0-8,3.6-8,8v24h80v-24C552,735.6,548.4,732,544,732z"/>
	<path class="st18" d="M672,732h-64c-4.4,0-8,3.6-8,8v24h80v-24C680,735.6,676.4,732,672,732z"/>
	<path class="st19" d="M800,732h-64c-4.4,0-8,3.6-8,8v24h80v-24C808,735.6,804.4,732,800,732z"/>
	<path class="st20" d="M928,732h-64c-4.4,0-8,3.6-8,8v24h80v-24C936,735.6,932.4,732,928,732z"/>
	<path class="st15" d="M556,760h-88c-2.2,0-4,1.8-4,4v4h96v-4C560,761.8,558.2,760,556,760z"/>
	<path class="st15" d="M684,760h-88c-2.2,0-4,1.8-4,4v4h96v-4C688,761.8,686.2,760,684,760z"/>
	<path class="st15" d="M812,760h-88c-2.2,0-4,1.8-4,4v4h96v-4C816,761.8,814.2,760,812,760z"/>
	<path class="st15" d="M940,760h-88c-2.2,0-4,1.8-4,4v4h96v-4C944,761.8,942.2,760,940,760z"/>
	<path class="st17" d="M544,880h-64c-4.4,0-8,3.6-8,8v4h80v-4C552,883.6,548.4,880,544,880z"/>
	<path class="st18" d="M672,880h-64c-4.4,0-8,3.6-8,8v4h80v-4C680,883.6,676.4,880,672,880z"/>
	<path class="st19" d="M800,880h-64c-4.4,0-8,3.6-8,8v4h80v-4C808,883.6,804.4,880,800,880z"/>
	<path class="st20" d="M928,880h-64c-4.4,0-8,3.6-8,8v4h80v-4C936,883.6,932.4,880,928,880z"/>
	<path class="st15" d="M556,888h-88c-2.2,0-4,1.8-4,4v4h96v-4C560,889.8,558.2,888,556,888z"/>
	<path class="st15" d="M684,888h-88c-2.2,0-4,1.8-4,4v4h96v-4C688,889.8,686.2,888,684,888z"/>
	<path class="st15" d="M812,888h-88c-2.2,0-4,1.8-4,4v4h96v-4C816,889.8,814.2,888,812,888z"/>
	<path class="st15" d="M940,888h-88c-2.2,0-4,1.8-4,4v4h96v-4C944,889.8,942.2,888,940,888z"/>
	<path class="st16" d="M156,1152h-56c0-15.5,12.5-28,28-28S156,1136.5,156,1152z"/>
	<path class="st7" d="M144,1152h-32c0-8.8,7.2-16,16-16S144,1143.2,144,1152z"/>
	<path class="st21" d="M76,896l10.1-27c0.6-1.7,3.1-1.7,3.7,0l10.1,27H76z"/>
	<path class="st21" d="M116,896l10.1-27c0.6-1.7,3.1-1.7,3.7,0l10.1,27H116z"/>
	<path class="st21" d="M156,896l10.1-27c0.6-1.7,3.1-1.7,3.7,0l10.1,27H156z"/>
	<path class="st21" d="M204,888.3l10.1-27c0.6-1.7,3.1-1.7,3.7,0l10.1,27H204z"/>
	<path class="st21" d="M244,888.3l10.1-27c0.6-1.7,3.1-1.7,3.7,0l10.1,27H244z"/>
	<path class="st21" d="M284,888.3l10.1-27c0.6-1.7,3.1-1.7,3.7,0l10.1,27H284z"/>
	<path class="st22" d="M308,888H204c-2.2,0-4,1.8-4,4v4h112v-4C312,889.8,310.2,888,308,888z"/>
	<path class="st21" d="M351.4,896h-14.8l3-8l2.5-6.7c0.7-1.7,3.1-1.7,3.7,0l2.5,6.7L351.4,896z"/>
	<path class="st21" d="M391.4,896h-14.8l3-8l2.5-6.7c0.7-1.7,3.1-1.7,3.7,0l2.5,6.7L391.4,896z"/>
	<path class="st21" d="M431.4,896h-14.8l3-8l2.5-6.7c0.7-1.7,3.1-1.7,3.7,0l2.5,6.7L431.4,896z"/>
	<path class="st22" d="M440,892v4H328v-4c0-2.2,1.8-4,4-4h104C438.2,888,440,889.8,440,892z"/>
	<path class="st10" d="M76,1024l10.1-27c0.6-1.7,3.1-1.7,3.7,0l10.1,27H76z"/>
	<path class="st10" d="M116,1024l10.1-27c0.6-1.7,3.1-1.7,3.7,0l10.1,27H116z"/>
	<path class="st10" d="M156,1024l10.1-27c0.6-1.7,3.1-1.7,3.7,0l10.1,27H156z"/>
	<path class="st10" d="M204,1016.3l10.1-27c0.6-1.7,3.1-1.7,3.7,0l10.1,27H204z"/>
	<path class="st10" d="M244,1016.3l10.1-27c0.6-1.7,3.1-1.7,3.7,0l10.1,27H244z"/>
	<path class="st10" d="M284,1016.3l10.1-27c0.6-1.7,3.1-1.7,3.7,0l10.1,27H284z"/>
	<path class="st7" d="M308,1016H204c-2.2,0-4,1.8-4,4v4h112v-4C312,1017.8,310.2,1016,308,1016z"/>
	<path class="st10" d="M351.4,1024h-14.8l3-8l2.5-6.7c0.7-1.7,3.1-1.7,3.7,0l2.5,6.7L351.4,1024z"/>
	<path class="st10" d="M391.4,1024h-14.8l3-8l2.5-6.7c0.7-1.7,3.1-1.7,3.7,0l2.5,6.7L391.4,1024z"/>
	<path class="st10" d="M431.4,1024h-14.8l3-8l2.5-6.7c0.7-1.7,3.1-1.7,3.7,0l2.5,6.7L431.4,1024z"/>
	<path class="st7" d="M440,1020v4H328v-4c0-2.2,1.8-4,4-4h104C438.2,1016,440,1017.8,440,1020z"/>
	<path class="st23" d="M132,1060h-8c-2.2,0-4,1.8-4,4v20c0,2.2,1.8,4,4,4h8c2.2,0,4-1.8,4-4v-20C136,1061.8,134.2,1060,132,1060z"/>
	<path class="st3" d="M218.3,1081.9l29.7,47.5l-6.8,4.2l-29.7-47.5c-1.2-1.9-0.6-4.3,1.3-5.5S217.2,1080,218.3,1081.9z"/>
	<path class="st16" d="M284,1152h-56c0-15.5,12.5-28,28-28S284,1136.5,284,1152z"/>
	<path class="st7" d="M272,1152h-32c0-8.8,7.2-16,16-16C264.8,1136,272,1143.2,272,1152z"/>
	<path class="st23" d="M212,1072.6l-6.8,4.2c-1.9,1.2-2.4,3.6-1.3,5.5l10.6,17c1.2,1.9,3.6,2.4,5.5,1.3l6.8-4.2
		c1.9-1.2,2.4-3.6,1.3-5.5l-10.6-17C216.3,1072,213.8,1071.4,212,1072.6z"/>
	<path class="st3" d="M421.7,1081.9l-29.7,47.5l6.8,4.2l29.7-47.5c1.2-1.9,0.6-4.3-1.3-5.5S422.8,1080,421.7,1081.9z"/>
	<path class="st16" d="M356,1152h56c0-15.5-12.5-28-28-28S356,1136.5,356,1152z"/>
	<path class="st7" d="M368,1152h32c0-8.8-7.2-16-16-16S368,1143.2,368,1152z"/>
	<path class="st23" d="M428,1072.6l6.8,4.2c1.9,1.2,2.4,3.6,1.3,5.5l-10.6,17c-1.2,1.9-3.6,2.4-5.5,1.3l-6.8-4.2
		c-1.9-1.2-2.4-3.6-1.3-5.5l10.6-17C423.7,1072,426.2,1071.4,428,1072.6z"/>
	<path class="st17" d="M528,1152h-32c0-8.8,7.2-16,16-16S528,1143.2,528,1152z"/>
	<path class="st18" d="M656,1152h-32c0-8.8,7.2-16,16-16S656,1143.2,656,1152z"/>
	<path class="st19" d="M784,1152h-32c0-8.8,7.2-16,16-16S784,1143.2,784,1152z"/>
	<path class="st20" d="M912,1152h-32c0-8.8,7.2-16,16-16S912,1143.2,912,1152z"/>
	<polygon class="st24" points="256,1164 248,1188 264,1188 	"/>
	<polygon class="st24" points="256,1268 264,1244 248,1244 	"/>
	<polygon class="st24" points="204,1216 228,1224 228,1208 	"/>
	<polygon class="st24" points="308,1216 284,1208 284,1224 	"/>
	<polygon class="st24" points="219.2,1179.2 230.5,1201.9 241.9,1190.5 	"/>
	<polygon class="st24" points="292.8,1252.8 281.5,1230.1 270.1,1241.5 	"/>
	<polygon class="st24" points="219.2,1252.8 241.9,1241.5 230.5,1230.1 	"/>
	<polygon class="st24" points="292.8,1179.2 270.1,1190.5 281.5,1201.9 	"/>
	<circle class="st7" cx="256" cy="1216" r="32"/>
	<circle class="st25" cx="256" cy="1216" r="16"/>
	<circle class="st17" cx="512" cy="1216" r="16"/>
	<circle class="st18" cx="640" cy="1216" r="16"/>
	<circle class="st19" cx="768" cy="1216" r="16"/>
	<circle class="st20" cx="896" cy="1216" r="16"/>
	<path class="st17" d="M568,1020v4H456v-4c0-2.2,1.8-4,4-4h104C566.2,1016,568,1017.8,568,1020z"/>
	<path class="st18" d="M696,1020v4H584v-4c0-2.2,1.8-4,4-4h104C694.2,1016,696,1017.8,696,1020z"/>
	<path class="st19" d="M824,1020v4H712v-4c0-2.2,1.8-4,4-4h104C822.2,1016,824,1017.8,824,1020z"/>
	<path class="st20" d="M952,1020v4H840v-4c0-2.2,1.8-4,4-4h104C950.2,1016,952,1017.8,952,1020z"/>
	<path class="st3" d="M1016,96H904c-4.4,0-8-3.6-8-8V72c0-4.4,3.6-8,8-8h112c4.4,0,8,3.6,8,8v16C1024,92.4,1020.4,96,1016,96z"/>
	<circle class="st4" cx="908" cy="80" r="4"/>
	<circle class="st4" cx="1012" cy="80" r="4"/>
	<path class="st3" d="M1160,64v32h-119.2c-4.9,0-8.8-3.6-8.8-8V72c0-4.4,4-8,8.8-8H1160z"/>
	<circle class="st4" cx="1036" cy="80" r="4"/>
	<path class="st3" d="M1168,64v32h119.2c4.9,0,8.8-3.6,8.8-8V72c0-4.4-4-8-8.8-8H1168z"/>
	<circle class="st4" cx="1280" cy="80" r="4"/>
	<rect x="1304" y="64" class="st3" width="128" height="32"/>
	<circle class="st3" cx="1456" cy="80" r="16"/>
	<circle class="st3" cx="1488" cy="80" r="16"/>
	<circle class="st3" cx="1520" cy="80" r="16"/>
	<circle class="st3" cx="1552" cy="80" r="16"/>
	<circle class="st4" cx="1456" cy="80" r="8"/>
	<circle class="st4" cx="1488" cy="80" r="8"/>
	<circle class="st4" cx="1520" cy="80" r="8"/>
	<circle class="st4" cx="1552" cy="80" r="8"/>
	<circle class="st22" cx="1596" cy="80" r="16"/>
	<circle class="st22" cx="1628" cy="80" r="16"/>
	<circle class="st22" cx="1660" cy="80" r="16"/>
	<circle class="st22" cx="1692" cy="80" r="16"/>
	<circle class="st21" cx="1596" cy="80" r="8"/>
	<circle class="st21" cx="1628" cy="80" r="8"/>
	<circle class="st21" cx="1660" cy="80" r="8"/>
	<circle class="st21" cx="1692" cy="80" r="8"/>
	<path class="st23" d="M1016,224H904c-4.4,0-8-3.6-8-8v-16c0-4.4,3.6-8,8-8h112c4.4,0,8,3.6,8,8v16C1024,220.4,1020.4,224,1016,224z
		"/>
	<circle class="st26" cx="908" cy="208" r="4"/>
	<circle class="st26" cx="1012" cy="208" r="4"/>
	<path class="st23" d="M1160,192v32h-119.2c-4.9,0-8.8-3.6-8.8-8v-16c0-4.4,4-8,8.8-8H1160z"/>
	<circle class="st26" cx="1036" cy="208" r="4"/>
	<path class="st23" d="M1168,192v32h119.2c4.9,0,8.8-3.6,8.8-8v-16c0-4.4-4-8-8.8-8H1168z"/>
	<circle class="st26" cx="1280" cy="208" r="4"/>
	<rect x="1304" y="192" class="st23" width="128" height="32"/>
	<path class="st15" d="M548,1528h-72c-2.2,0-4,1.8-4,4l0,0c0,2.2,1.8,4,4,4h72c2.2,0,4-1.8,4-4l0,0C552,1529.8,550.2,1528,548,1528z
		"/>
	<path class="st7" d="M548,1520h-72c-2.2,0-4,1.8-4,4l0,0c0,2.2,1.8,4,4,4h72c2.2,0,4-1.8,4-4l0,0C552,1521.8,550.2,1520,548,1520z"
		/>
	<path class="st27" d="M568,1496H456c-4.4,0-8,3.6-8,8v8c0,4.4,3.6,8,8,8h112c4.4,0,8-3.6,8-8v-8C576,1499.6,572.4,1496,568,1496z"
		/>
	<path class="st15" d="M676,1528h-72c-2.2,0-4,1.8-4,4l0,0c0,2.2,1.8,4,4,4h72c2.2,0,4-1.8,4-4l0,0C680,1529.8,678.2,1528,676,1528z
		"/>
	<path class="st7" d="M676,1512h-72c-2.2,0-4,1.8-4,4l0,0c0,2.2,1.8,4,4,4h72c2.2,0,4-1.8,4-4l0,0C680,1513.8,678.2,1512,676,1512z"
		/>
	<path class="st27" d="M696,1456H584c-4.4,0-8,3.6-8,8v8c0,4.4,3.6,8,8,8h112c4.4,0,8-3.6,8-8v-8C704,1459.6,700.4,1456,696,1456z"
		/>
	<path class="st15" d="M676,1496h-72c-2.2,0-4,1.8-4,4l0,0c0,2.2,1.8,4,4,4h72c2.2,0,4-1.8,4-4l0,0C680,1497.8,678.2,1496,676,1496z
		"/>
	<path class="st7" d="M676,1480h-72c-2.2,0-4,1.8-4,4l0,0c0,2.2,1.8,4,4,4h72c2.2,0,4-1.8,4-4l0,0C680,1481.8,678.2,1480,676,1480z"
		/>
	<rect x="76" y="1300" class="st4" width="8" height="108"/>
	<rect x="100" y="1300" class="st4" width="8" height="108"/>
	<rect x="124" y="1300" class="st4" width="8" height="108"/>
	<rect x="148" y="1300" class="st4" width="8" height="108"/>
	<rect x="172" y="1300" class="st4" width="8" height="108"/>
	<rect x="204" y="1280" class="st4" width="8" height="128"/>
	<rect x="228" y="1280" class="st4" width="8" height="128"/>
	<rect x="252" y="1280" class="st4" width="8" height="128"/>
	<rect x="276" y="1280" class="st4" width="8" height="128"/>
	<rect x="300" y="1280" class="st4" width="8" height="128"/>
	<path class="st3" d="M184,1532v4H72v-4c0-2.2,1.8-4,4-4h104C182.2,1528,184,1529.8,184,1532z"/>
	<path class="st22" d="M312,1532v4H200v-4c0-2.2,1.8-4,4-4h104C310.2,1528,312,1529.8,312,1532z"/>
	<path class="st7" d="M440,1532v4H328v-4c0-2.2,1.8-4,4-4h104C438.2,1528,440,1529.8,440,1532z"/>
	<circle class="st28" cx="1088" cy="768" r="16"/>
	<circle class="st29" cx="1088" cy="768" r="12"/>
	<circle class="st30" cx="1216" cy="768" r="16"/>
	<circle class="st29" cx="1216" cy="768" r="12"/>
	<circle class="st31" cx="1344" cy="768" r="16"/>
	<circle class="st29" cx="1344" cy="768" r="12"/>
	<polygon class="st32" points="1096,888 1080,888 1072,896 1088,912 1104,896 	"/>
	<polygon class="st33" points="1224,888 1208,888 1200,896 1216,912 1232,896 	"/>
	<polygon class="st34" points="1352,888 1336,888 1328,896 1344,912 1360,896 	"/>
	<polygon class="st35" points="1480,888 1464,888 1456,896 1472,912 1488,896 	"/>
	<path class="st17" d="M1118,1020h-38c0-4.4-3.6-8-8-8h-8c-4.4,0-8,3.6-8,8v8c0,4.4,3.6,8,8,8h8c4.4,0,8-3.6,8-8h24v6
		c0,1.1,0.9,2,2,2s2-0.9,2-2v-2h4v2c0,1.1,0.9,2,2,2s2-0.9,2-2v-6h2c1.1,0,2-0.9,2-2v-4C1120,1020.9,1119.1,1020,1118,1020z
		 M1072,1026c0,1.1-0.9,2-2,2h-4c-1.1,0-2-0.9-2-2v-4c0-1.1,0.9-2,2-2h4c1.1,0,2,0.9,2,2V1026z"/>
	<path class="st18" d="M1246,1020h-38c0-4.4-3.6-8-8-8h-8c-4.4,0-8,3.6-8,8v8c0,4.4,3.6,8,8,8h8c4.4,0,8-3.6,8-8h24v6
		c0,1.1,0.9,2,2,2s2-0.9,2-2v-2h4v2c0,1.1,0.9,2,2,2s2-0.9,2-2v-6h2c1.1,0,2-0.9,2-2v-4C1248,1020.9,1247.1,1020,1246,1020z
		 M1200,1026c0,1.1-0.9,2-2,2h-4c-1.1,0-2-0.9-2-2v-4c0-1.1,0.9-2,2-2h4c1.1,0,2,0.9,2,2V1026z"/>
	<path class="st19" d="M1374,1020h-38c0-4.4-3.6-8-8-8h-8c-4.4,0-8,3.6-8,8v8c0,4.4,3.6,8,8,8h8c4.4,0,8-3.6,8-8h24v6
		c0,1.1,0.9,2,2,2s2-0.9,2-2v-2h4v2c0,1.1,0.9,2,2,2s2-0.9,2-2v-6h2c1.1,0,2-0.9,2-2v-4C1376,1020.9,1375.1,1020,1374,1020z
		 M1328,1026c0,1.1-0.9,2-2,2h-4c-1.1,0-2-0.9-2-2v-4c0-1.1,0.9-2,2-2h4c1.1,0,2,0.9,2,2V1026z"/>
	<path class="st20" d="M1502,1020h-38c0-4.4-3.6-8-8-8h-8c-4.4,0-8,3.6-8,8v8c0,4.4,3.6,8,8,8h8c4.4,0,8-3.6,8-8h24v6
		c0,1.1,0.9,2,2,2s2-0.9,2-2v-2h4v2c0,1.1,0.9,2,2,2s2-0.9,2-2v-6h2c1.1,0,2-0.9,2-2v-4C1504,1020.9,1503.1,1020,1502,1020z
		 M1456,1026c0,1.1-0.9,2-2,2h-4c-1.1,0-2-0.9-2-2v-4c0-1.1,0.9-2,2-2h4c1.1,0,2,0.9,2,2V1026z"/>
	<path class="st3" d="M912,320L912,320c-4.4,0-8,3.6-8,8v120h16V328C920,323.6,916.4,320,912,320z"/>
	<path class="st3" d="M1008,320L1008,320c-4.4,0-8,3.6-8,8v120h16V328C1016,323.6,1012.4,320,1008,320z"/>
	<rect x="920" y="432" class="st4" width="80" height="16"/>
	<rect x="920" y="400" class="st4" width="80" height="16"/>
	<rect x="920" y="368" class="st4" width="80" height="16"/>
	<rect x="920" y="336" class="st4" width="80" height="16"/>
	<rect x="1032" y="320" class="st3" width="16" height="128"/>
	<rect x="1128" y="320" class="st3" width="16" height="128"/>
	<rect x="1048" y="432" class="st4" width="80" height="16"/>
	<rect x="1048" y="400" class="st4" width="80" height="16"/>
	<rect x="1048" y="368" class="st4" width="80" height="16"/>
	<rect x="1048" y="336" class="st4" width="80" height="16"/>
	<path class="st3" d="M1424,376L1424,376c-4.4,0-8,3.6-8,8v64h16v-64C1432,379.6,1428.4,376,1424,376z"/>
	<path class="st3" d="M1520,376L1520,376c-4.4,0-8,3.6-8,8v64h16v-64C1528,379.6,1524.4,376,1520,376z"/>
	<rect x="1432" y="416" class="st4" width="80" height="16"/>
	<rect x="1432" y="392" class="st4" width="80" height="16"/>
	<path class="st3" d="M1552,376L1552,376c-4.4,0-8,3.6-8,8v64h16v-64C1560,379.6,1556.4,376,1552,376z"/>
	<rect x="1560" y="416" class="st4" width="104" height="16"/>
	<rect x="1560" y="392" class="st4" width="104" height="16"/>
	<path class="st3" d="M1264,376L1264,376c-4.4,0-8,3.6-8,8v64h16v-64C1272,379.6,1268.4,376,1264,376z"/>
	<rect x="1152" y="416" class="st4" width="104" height="16"/>
	<rect x="1152" y="392" class="st4" width="104" height="16"/>
	<rect x="1280" y="416" class="st4" width="128" height="16"/>
	<rect x="1280" y="392" class="st4" width="128" height="16"/>
	<path class="st22" d="M912,512L912,512c-4.4,0-8,3.6-8,8v120h16V520C920,515.6,916.4,512,912,512z"/>
	<path class="st22" d="M1008,512L1008,512c-4.4,0-8,3.6-8,8v120h16V520C1016,515.6,1012.4,512,1008,512z"/>
	<rect x="920" y="624" class="st21" width="80" height="16"/>
	<rect x="920" y="592" class="st21" width="80" height="16"/>
	<rect x="920" y="560" class="st21" width="80" height="16"/>
	<rect x="920" y="528" class="st21" width="80" height="16"/>
	<rect x="1032" y="512" class="st22" width="16" height="128"/>
	<rect x="1128" y="512" class="st22" width="16" height="128"/>
	<rect x="1048" y="624" class="st21" width="80" height="16"/>
	<rect x="1048" y="592" class="st21" width="80" height="16"/>
	<rect x="1048" y="560" class="st21" width="80" height="16"/>
	<rect x="1048" y="528" class="st21" width="80" height="16"/>
	<path class="st22" d="M1424,568L1424,568c-4.4,0-8,3.6-8,8v64h16v-64C1432,571.6,1428.4,568,1424,568z"/>
	<path class="st22" d="M1520,568L1520,568c-4.4,0-8,3.6-8,8v64h16v-64C1528,571.6,1524.4,568,1520,568z"/>
	<rect x="1432" y="608" class="st21" width="80" height="16"/>
	<rect x="1432" y="584" class="st21" width="80" height="16"/>
	<path class="st22" d="M1552,568L1552,568c-4.4,0-8,3.6-8,8v64h16v-64C1560,571.6,1556.4,568,1552,568z"/>
	<rect x="1560" y="608" class="st21" width="104" height="16"/>
	<rect x="1560" y="584" class="st21" width="104" height="16"/>
	<path class="st22" d="M1264,568L1264,568c-4.4,0-8,3.6-8,8v64h16v-64C1272,571.6,1268.4,568,1264,568z"/>
	<rect x="1152" y="608" class="st21" width="104" height="16"/>
	<rect x="1152" y="584" class="st21" width="104" height="16"/>
	<rect x="1280" y="608" class="st21" width="128" height="16"/>
	<rect x="1280" y="584" class="st21" width="128" height="16"/>
	<path class="st3" d="M1344,376L1344,376c-4.4,0-8,3.6-8,8v64h16v-64C1352,379.6,1348.4,376,1344,376z"/>
	<path class="st22" d="M1344,568L1344,568c-4.4,0-8,3.6-8,8v64h16v-64C1352,571.6,1348.4,568,1344,568z"/>
	<path class="st32" d="M1089.1,1148.8l-1.1,2.2l-1.1-2.2c-2.1-4.1-7.3-5.5-11.1-2.9l0,0c-4,2.7-4.6,8.4-1.2,11.8l13.4,13.4
		l13.4-13.4c3.4-3.4,2.9-9.1-1.2-11.8l0,0C1096.4,1143.3,1091.2,1144.6,1089.1,1148.8z"/>
	<polygon class="st35" points="1216,1140 1212,1152 1200,1152 1208,1160 1204,1172 1216,1164 1228,1172 1224,1160 1232,1152 
		1220,1152 	"/>
	<path class="st36" d="M1144,1344h-112c-4.4,0-8-3.6-8-8v-112c0-4.4,3.6-8,8-8h112c4.4,0,8,3.6,8,8v112
		C1152,1340.4,1148.4,1344,1144,1344z"/>
	<path class="st17" d="M1128,1328h-80c-4.4,0-8-3.6-8-8v-80c0-4.4,3.6-8,8-8h80c4.4,0,8,3.6,8,8v80
		C1136,1324.4,1132.4,1328,1128,1328z"/>
	<path class="st37" d="M1284,1344h-112c-4.4,0-8-3.6-8-8v-112c0-4.4,3.6-8,8-8h112c4.4,0,8,3.6,8,8v112
		C1292,1340.4,1288.4,1344,1284,1344z"/>
	<path class="st38" d="M1268,1328h-80c-4.4,0-8-3.6-8-8v-80c0-4.4,3.6-8,8-8h80c4.4,0,8,3.6,8,8v80
		C1276,1324.4,1272.4,1328,1268,1328z"/>
	<path class="st39" d="M1424,1344h-112c-4.4,0-8-3.6-8-8v-112c0-4.4,3.6-8,8-8h112c4.4,0,8,3.6,8,8v112
		C1432,1340.4,1428.4,1344,1424,1344z"/>
	<path class="st19" d="M1408,1328h-80c-4.4,0-8-3.6-8-8v-80c0-4.4,3.6-8,8-8h80c4.4,0,8,3.6,8,8v80
		C1416,1324.4,1412.4,1328,1408,1328z"/>
	<path class="st40" d="M1564,1344h-112c-4.4,0-8-3.6-8-8v-112c0-4.4,3.6-8,8-8h112c4.4,0,8,3.6,8,8v112
		C1572,1340.4,1568.4,1344,1564,1344z"/>
	<path class="st41" d="M1548,1328h-80c-4.4,0-8-3.6-8-8v-80c0-4.4,3.6-8,8-8h80c4.4,0,8,3.6,8,8v80
		C1556,1324.4,1552.4,1328,1548,1328z"/>
	<path class="st36" d="M1144,1484h-112c-4.4,0-8-3.6-8-8v-112c0-4.4,3.6-8,8-8h112c4.4,0,8,3.6,8,8v112
		C1152,1480.4,1148.4,1484,1144,1484z"/>
	<path class="st17" d="M1128,1468h-80c-4.4,0-8-3.6-8-8v-80c0-4.4,3.6-8,8-8h80c4.4,0,8,3.6,8,8v80
		C1136,1464.4,1132.4,1468,1128,1468z"/>
	<path class="st37" d="M1284,1484h-112c-4.4,0-8-3.6-8-8v-112c0-4.4,3.6-8,8-8h112c4.4,0,8,3.6,8,8v112
		C1292,1480.4,1288.4,1484,1284,1484z"/>
	<path class="st38" d="M1268,1468h-80c-4.4,0-8-3.6-8-8v-80c0-4.4,3.6-8,8-8h80c4.4,0,8,3.6,8,8v80
		C1276,1464.4,1272.4,1468,1268,1468z"/>
	<path class="st39" d="M1424,1484h-112c-4.4,0-8-3.6-8-8v-112c0-4.4,3.6-8,8-8h112c4.4,0,8,3.6,8,8v112
		C1432,1480.4,1428.4,1484,1424,1484z"/>
	<path class="st19" d="M1408,1468h-80c-4.4,0-8-3.6-8-8v-80c0-4.4,3.6-8,8-8h80c4.4,0,8,3.6,8,8v80
		C1416,1464.4,1412.4,1468,1408,1468z"/>
	<path class="st40" d="M1564,1484h-112c-4.4,0-8-3.6-8-8v-112c0-4.4,3.6-8,8-8h112c4.4,0,8,3.6,8,8v112
		C1572,1480.4,1568.4,1484,1564,1484z"/>
	<path class="st41" d="M1548,1468h-80c-4.4,0-8-3.6-8-8v-80c0-4.4,3.6-8,8-8h80c4.4,0,8,3.6,8,8v80
		C1556,1464.4,1552.4,1468,1548,1468z"/>
	<path class="st2" d="M1074.8,1444h26.5c1.4,0,2.3-1.3,1.9-2.6l-6-18.1c-0.7-2.2-0.7-4.5,0-6.6l0.8-2.5c1.3-3.8,0.3-7.9-2.5-10.7
		l0,0c-4.1-4.1-10.7-4.1-14.8,0l0,0c-2.8,2.8-3.8,7-2.5,10.7l0.8,2.5c0.7,2.2,0.7,4.5,0,6.6l-6,18.1
		C1072.4,1442.7,1073.4,1444,1074.8,1444z"/>
	<path class="st2" d="M1214.8,1444h26.5c1.4,0,2.3-1.3,1.9-2.6l-6-18.1c-0.7-2.2-0.7-4.5,0-6.6l0.8-2.5c1.3-3.8,0.3-7.9-2.5-10.7
		l0,0c-4.1-4.1-10.7-4.1-14.8,0l0,0c-2.8,2.8-3.8,7-2.5,10.7l0.8,2.5c0.7,2.2,0.7,4.5,0,6.6l-6,18.1
		C1212.4,1442.7,1213.4,1444,1214.8,1444z"/>
	<path class="st2" d="M1354.8,1444h26.5c1.4,0,2.3-1.3,1.9-2.6l-6-18.1c-0.7-2.2-0.7-4.5,0-6.6l0.8-2.5c1.3-3.8,0.3-7.9-2.5-10.7
		l0,0c-4.1-4.1-10.7-4.1-14.8,0l0,0c-2.8,2.8-3.8,7-2.5,10.7l0.8,2.5c0.7,2.2,0.7,4.5,0,6.6l-6,18.1
		C1352.4,1442.7,1353.4,1444,1354.8,1444z"/>
	<path class="st2" d="M1494.8,1444h26.5c1.4,0,2.3-1.3,1.9-2.6l-6-18.1c-0.7-2.2-0.7-4.5,0-6.6l0.8-2.5c1.3-3.8,0.3-7.9-2.5-10.7
		l0,0c-4.1-4.1-10.7-4.1-14.8,0l0,0c-2.8,2.8-3.8,7-2.5,10.7l0.8,2.5c0.7,2.2,0.7,4.5,0,6.6l-6,18.1
		C1492.4,1442.7,1493.4,1444,1494.8,1444z"/>
	<path class="st36" d="M1064,1496v16h16v-16H1064z M1144,1496h-16v16c4.4,0,8,3.6,8,8h16v-16C1152,1499.6,1148.4,1496,1144,1496z
		 M1096,1512h16v-16h-16V1512z M1032,1496c-4.4,0-8,3.6-8,8v16h16c0-4.4,3.6-8,8-8v-16H1032z M1024,1568v16h16v-16H1024z M1136,1568
		v16h16v-16H1136z M1064,1608v16h16v-16H1064z M1136,1600c0,4.4-3.6,8-8,8v16h16c4.4,0,8-3.6,8-8v-16H1136z M1096,1624h16v-16h-16
		V1624z M1040,1600h-16v16c0,4.4,3.6,8,8,8h16v-16C1043.6,1608,1040,1604.4,1040,1600z M1136,1536v16h16v-16H1136z M1024,1536v16h16
		v-16H1024z M1136,1568v16h16v-16H1136z"/>
	<path class="st37" d="M1204,1496v16h16v-16H1204z M1284,1496h-16v16c4.4,0,8,3.6,8,8h16v-16C1292,1499.6,1288.4,1496,1284,1496z
		 M1236,1512h16v-16h-16V1512z M1172,1496c-4.4,0-8,3.6-8,8v16h16c0-4.4,3.6-8,8-8v-16H1172z M1164,1568v16h16v-16H1164z M1276,1568
		v16h16v-16H1276z M1204,1608v16h16v-16H1204z M1276,1600c0,4.4-3.6,8-8,8v16h16c4.4,0,8-3.6,8-8v-16H1276z M1236,1624h16v-16h-16
		V1624z M1180,1600h-16v16c0,4.4,3.6,8,8,8h16v-16C1183.6,1608,1180,1604.4,1180,1600z M1276,1536v16h16v-16H1276z M1164,1536v16h16
		v-16H1164z"/>
	<path class="st39" d="M1344,1496v16h16v-16H1344z M1424,1496h-16v16c4.4,0,8,3.6,8,8h16v-16C1432,1499.6,1428.4,1496,1424,1496z
		 M1376,1512h16v-16h-16V1512z M1312,1496c-4.4,0-8,3.6-8,8v16h16c0-4.4,3.6-8,8-8v-16H1312z M1304,1568v16h16v-16H1304z M1416,1568
		v16h16v-16H1416z M1344,1608v16h16v-16H1344z M1416,1600c0,4.4-3.6,8-8,8v16h16c4.4,0,8-3.6,8-8v-16H1416z M1376,1624h16v-16h-16
		V1624z M1320,1600h-16v16c0,4.4,3.6,8,8,8h16v-16C1323.6,1608,1320,1604.4,1320,1600z M1416,1536v16h16v-16H1416z M1304,1536v16h16
		v-16H1304z"/>
	<path class="st40" d="M1484,1496v16h16v-16H1484z M1564,1496h-16v16c4.4,0,8,3.6,8,8h16v-16C1572,1499.6,1568.4,1496,1564,1496z
		 M1516,1512h16v-16h-16V1512z M1452,1496c-4.4,0-8,3.6-8,8v16h16c0-4.4,3.6-8,8-8v-16H1452z M1444,1568v16h16v-16H1444z M1556,1568
		v16h16v-16H1556z M1484,1608v16h16v-16H1484z M1556,1600c0,4.4-3.6,8-8,8v16h16c4.4,0,8-3.6,8-8v-16H1556z M1516,1624h16v-16h-16
		V1624z M1460,1600h-16v16c0,4.4,3.6,8,8,8h16v-16C1463.6,1608,1460,1604.4,1460,1600z M1556,1536v16h16v-16H1556z M1444,1536v16h16
		v-16H1444z M1444,1568v16h16v-16H1444z M1444,1536v16h16v-16H1444z"/>
	<path class="st42" d="M1708,1344h-112c-4.4,0-8-3.6-8-8v-112c0-4.4,3.6-8,8-8h112c4.4,0,8,3.6,8,8v112
		C1716,1340.4,1712.4,1344,1708,1344z"/>
	<path class="st43" d="M1692,1328h-80c-4.4,0-8-3.6-8-8v-80c0-4.4,3.6-8,8-8h80c4.4,0,8,3.6,8,8v80
		C1700,1324.4,1696.4,1328,1692,1328z"/>
	<path class="st44" d="M1088,776L1088,776c-2.2,0-4-1.8-4-4v-8c0-2.2,1.8-4,4-4l0,0c2.2,0,4,1.8,4,4v8
		C1092,774.2,1090.2,776,1088,776z"/>
	<path class="st44" d="M1216,776L1216,776c-2.2,0-4-1.8-4-4v-8c0-2.2,1.8-4,4-4l0,0c2.2,0,4,1.8,4,4v8
		C1220,774.2,1218.2,776,1216,776z"/>
	<path class="st44" d="M1344,776L1344,776c-2.2,0-4-1.8-4-4v-8c0-2.2,1.8-4,4-4l0,0c2.2,0,4,1.8,4,4v8
		C1348,774.2,1346.2,776,1344,776z"/>
	<path class="st42" d="M1708,1484h-112c-4.4,0-8-3.6-8-8v-112c0-4.4,3.6-8,8-8h112c4.4,0,8,3.6,8,8v112
		C1716,1480.4,1712.4,1484,1708,1484z"/>
	<path class="st43" d="M1692,1468h-80c-4.4,0-8-3.6-8-8v-80c0-4.4,3.6-8,8-8h80c4.4,0,8,3.6,8,8v80
		C1700,1464.4,1696.4,1468,1692,1468z"/>
	<path class="st7" d="M1824,128h-64c-17.7,0-32,14.3-32,32v224h128V160C1856,142.3,1841.7,128,1824,128z"/>
	<polygon class="st7" points="76,1856 72,1856 72,1856 	"/>
	<path class="st3" d="M1812,140h-40c-17.7,0-32,14.3-32,32v212h104V172C1844,154.3,1829.7,140,1812,140z"/>
	<path class="st2" d="M1807.5,299.7h26.5c1.4,0,2.3-1.3,1.9-2.6l-6-18.1c-0.7-2.2-0.7-4.5,0-6.6l0.8-2.5c1.3-3.8,0.3-7.9-2.5-10.7
		l0,0c-4.1-4.1-10.7-4.1-14.8,0l0,0c-2.8,2.8-3.8,7-2.5,10.7l0.8,2.5c0.7,2.2,0.7,4.5,0,6.6l-6,18.1
		C1805.2,298.3,1806.2,299.7,1807.5,299.7z"/>
	<path class="st7" d="M1824,400h-64c-17.7,0-32,14.3-32,32v224h128V432C1856,414.3,1841.7,400,1824,400z"/>
	<path class="st45" d="M1812,412h-40c-17.7,0-32,14.3-32,32v212h104V444C1844,426.3,1829.7,412,1812,412z"/>
	<polygon class="st7" points="356,1856 352,1856 352,1856 	"/>
	<polygon class="st43" points="496,1856 492,1856 492,1856 	"/>
	<path class="st7" d="M1684,668h-64c-17.7,0-32,14.3-32,32v224h128V700C1716,682.3,1701.7,668,1684,668z"/>
	<path class="st46" d="M1672,680h-40c-17.7,0-32,14.3-32,32v212h104V712C1704,694.3,1689.7,680,1672,680z"/>
	<path class="st2" d="M1667.5,839.7h26.5c1.4,0,2.3-1.3,1.9-2.6l-6-18.1c-0.7-2.2-0.7-4.5,0-6.6l0.8-2.5c1.3-3.8,0.3-7.9-2.5-10.7
		l0,0c-4.1-4.1-10.7-4.1-14.8,0l0,0c-2.8,2.8-3.8,7-2.5,10.7l0.8,2.5c0.7,2.2,0.7,4.5,0,6.6l-6,18.1
		C1665.2,838.3,1666.2,839.7,1667.5,839.7z"/>
	<path class="st7" d="M1824,668h-64c-17.7,0-32,14.3-32,32v224h128V700C1856,682.3,1841.7,668,1824,668z"/>
	<path class="st37" d="M1812,680h-40c-17.7,0-32,14.3-32,32v212h104V712C1844,694.3,1829.7,680,1812,680z"/>
	<path class="st2" d="M1807.5,839.7h26.5c1.4,0,2.3-1.3,1.9-2.6l-6-18.1c-0.7-2.2-0.7-4.5,0-6.6l0.8-2.5c1.3-3.8,0.3-7.9-2.5-10.7
		l0,0c-4.1-4.1-10.7-4.1-14.8,0l0,0c-2.8,2.8-3.8,7-2.5,10.7l0.8,2.5c0.7,2.2,0.7,4.5,0,6.6l-6,18.1
		C1805.2,838.3,1806.2,839.7,1807.5,839.7z"/>
	<path class="st7" d="M1684,936h-64c-17.7,0-32,14.3-32,32v224h128V968C1716,950.3,1701.7,936,1684,936z"/>
	<path class="st39" d="M1672,948h-40c-17.7,0-32,14.3-32,32v212h104V980C1704,962.3,1689.7,948,1672,948z"/>
	<path class="st2" d="M1667.5,1107.7h26.5c1.4,0,2.3-1.3,1.9-2.6l-6-18.1c-0.7-2.2-0.7-4.5,0-6.6l0.8-2.5c1.3-3.8,0.3-7.9-2.5-10.7
		l0,0c-4.1-4.1-10.7-4.1-14.8,0l0,0c-2.8,2.8-3.8,7-2.5,10.7l0.8,2.5c0.7,2.2,0.7,4.5,0,6.6l-6,18.1
		C1665.2,1106.3,1666.2,1107.7,1667.5,1107.7z"/>
	<path class="st7" d="M1824,936h-64c-17.7,0-32,14.3-32,32v224h128V968C1856,950.3,1841.7,936,1824,936z"/>
	<path class="st47" d="M1812,948h-40c-17.7,0-32,14.3-32,32v212h104V980C1844,962.3,1829.7,948,1812,948z"/>
	<path class="st2" d="M1807.5,1107.7h26.5c1.4,0,2.3-1.3,1.9-2.6l-6-18.1c-0.7-2.2-0.7-4.5,0-6.6l0.8-2.5c1.3-3.8,0.3-7.9-2.5-10.7
		l0,0c-4.1-4.1-10.7-4.1-14.8,0l0,0c-2.8,2.8-3.8,7-2.5,10.7l0.8,2.5c0.7,2.2,0.7,4.5,0,6.6l-6,18.1
		C1805.2,1106.3,1806.2,1107.7,1807.5,1107.7z"/>
	<path class="st7" d="M80,1608L80,1608c-4.4,0-8,3.6-8,8v112h16v-112C88,1611.6,84.4,1608,80,1608z"/>
	<path class="st7" d="M80,1736L80,1736c-4.4,0-8,3.6-8,8v112h16v-112C88,1739.6,84.4,1736,80,1736z"/>
	<path class="st17" d="M88,1616l18.6,66.9c0.9,3.1-0.2,6.4-2.7,8.4L88,1704V1616z"/>
	<path class="st17" d="M88,1744l58.8,20.8c3.4,1.2,3.6,5.9,0.4,7.4L88,1800V1744z"/>
	<path class="st7" d="M208,1608L208,1608c-4.4,0-8,3.6-8,8v112h16v-112C216,1611.6,212.4,1608,208,1608z"/>
	<path class="st7" d="M208,1736L208,1736c-4.4,0-8,3.6-8,8v112h16v-112C216,1739.6,212.4,1736,208,1736z"/>
	<path class="st48" d="M216,1616l18.6,66.9c0.9,3.1-0.2,6.4-2.7,8.4L216,1704V1616z"/>
	<path class="st48" d="M216,1744l58.8,20.8c3.4,1.2,3.6,5.9,0.4,7.4L216,1800V1744z"/>
	<path class="st7" d="M336,1608L336,1608c-4.4,0-8,3.6-8,8v112h16v-112C344,1611.6,340.4,1608,336,1608z"/>
	<path class="st7" d="M336,1736L336,1736c-4.4,0-8,3.6-8,8v112h16v-112C344,1739.6,340.4,1736,336,1736z"/>
	<path class="st19" d="M344,1616l18.6,66.9c0.9,3.1-0.2,6.4-2.7,8.4L344,1704V1616z"/>
	<path class="st19" d="M344,1744l58.8,20.8c3.4,1.2,3.6,5.9,0.4,7.4L344,1800V1744z"/>
	<path class="st7" d="M464,1608L464,1608c-4.4,0-8,3.6-8,8v112h16v-112C472,1611.6,468.4,1608,464,1608z"/>
	<path class="st7" d="M464,1736L464,1736c-4.4,0-8,3.6-8,8v112h16v-112C472,1739.6,468.4,1736,464,1736z"/>
	<path class="st43" d="M472,1616l18.6,66.9c0.9,3.1-0.2,6.4-2.7,8.4L472,1704V1616z"/>
	<path class="st43" d="M472,1744l58.8,20.8c3.4,1.2,3.6,5.9,0.4,7.4L472,1800V1744z"/>
	<g>
		<path class="st3" d="M843.2,1357c1.5-14.6,13.9-26,28.8-26h48c15,0,27.3,11.4,28.8,26H843.2z"/>
		<path class="st15" d="M920,1334c12.3,0,22.6,8.5,25.3,20h-98.6c2.7-11.5,13-20,25.3-20H920 M920,1328h-48c-17.7,0-32,14.3-32,32
			h112C952,1342.3,937.7,1328,920,1328L920,1328z"/>
	</g>
	<rect x="840" y="1360" class="st3" width="112" height="48"/>
	<g>
		<rect x="843" y="1363" class="st3" width="106" height="42"/>
		<path class="st15" d="M946,1366v36H846v-36H946 M952,1360H840v48h112V1360L952,1360z"/>
	</g>
	<path class="st7" d="M904,1368h-16c-2.2,0-4-1.8-4-4v-8c0-2.2,1.8-4,4-4h16c2.2,0,4,1.8,4,4v8C908,1366.2,906.2,1368,904,1368z"/>
	<rect x="712" y="1488" class="st3" width="112" height="48"/>
	<g>
		<rect x="715" y="1491" class="st3" width="106" height="42"/>
		<path class="st15" d="M818,1494v36H718v-36H818 M824,1488H712v48h112V1488L824,1488z"/>
	</g>
	<g>
		<path class="st4" d="M715.8,1485l5-20c3.2-12.9,14.8-22,28.1-22h38c13.3,0,24.9,9,28.1,22l5,20H715.8z"/>
		<path class="st15" d="M787,1446c12,0,22.3,8.1,25.2,19.7l4.1,16.3h-96.6l4.1-16.3c2.9-11.6,13.3-19.7,25.2-19.7H787 M787,1440h-38
			c-14.7,0-27.5,10-31,24.2l-6,23.8h112l-5.9-23.8C814.5,1450,801.7,1440,787,1440L787,1440z"/>
	</g>
	<path class="st7" d="M778,1448h-20c-1.1,0-2-0.9-2-2v-8c0-1.1,0.9-2,2-2h20c1.1,0,2,0.9,2,2v8C780,1447.1,779.1,1448,778,1448z"/>
	<text transform="matrix(1 0 0 1 1640 1304)" class="st49 st50 st51">!</text>
	<text transform="matrix(1 0 0 1 1632 1444)" class="st49 st50 st51">?</text>
	<path class="st42" d="M1848,1344h-112c-4.4,0-8-3.6-8-8v-112c0-4.4,3.6-8,8-8h112c4.4,0,8,3.6,8,8v112
		C1856,1340.4,1852.4,1344,1848,1344z"/>
	<path class="st52" d="M1832,1328h-80c-4.4,0-8-3.6-8-8v-80c0-4.4,3.6-8,8-8h80c4.4,0,8,3.6,8,8v80
		C1840,1324.4,1836.4,1328,1832,1328z"/>
	<path class="st42" d="M1848,1484h-112c-4.4,0-8-3.6-8-8v-112c0-4.4,3.6-8,8-8h112c4.4,0,8,3.6,8,8v112
		C1856,1480.4,1852.4,1484,1848,1484z"/>
	<path class="st52" d="M1832,1468h-80c-4.4,0-8-3.6-8-8v-80c0-4.4,3.6-8,8-8h80c4.4,0,8,3.6,8,8v80
		C1840,1464.4,1836.4,1468,1832,1468z"/>
	<text transform="matrix(1 0 0 1 1780 1304)" class="st21 st50 st51">!</text>
	<text transform="matrix(1 0 0 1 1772 1444)" class="st21 st50 st51">?</text>
	<path class="st42" d="M1708,1624h-112c-4.4,0-8-3.6-8-8v-112c0-4.4,3.6-8,8-8h112c4.4,0,8,3.6,8,8v112
		C1716,1620.4,1712.4,1624,1708,1624z"/>
	<path class="st43" d="M1692,1608h-80c-4.4,0-8-3.6-8-8v-80c0-4.4,3.6-8,8-8h80c4.4,0,8,3.6,8,8v80
		C1700,1604.4,1696.4,1608,1692,1608z"/>
	<path class="st53" d="M1648.4,1523.2l-33.5,67.1c-1.3,2.7,0.6,5.8,3.6,5.8h67.1c3,0,4.9-3.1,3.6-5.8l-33.5-67.1
		C1654.1,1520.2,1649.9,1520.2,1648.4,1523.2z"/>
	<text transform="matrix(1 0 0 1 1642.75 1584)" class="st45 st50 st54">!</text>
	<path class="st42" d="M1848,1624h-112c-4.4,0-8-3.6-8-8v-112c0-4.4,3.6-8,8-8h112c4.4,0,8,3.6,8,8v112
		C1856,1620.4,1852.4,1624,1848,1624z"/>
	<path class="st52" d="M1832,1608h-80c-4.4,0-8-3.6-8-8v-80c0-4.4,3.6-8,8-8h80c4.4,0,8,3.6,8,8v80
		C1840,1604.4,1836.4,1608,1832,1608z"/>
	<path class="st55" d="M1788.4,1523.2l-33.5,67.1c-1.3,2.7,0.6,5.8,3.6,5.8h67.1c3,0,4.9-3.1,3.6-5.8l-33.5-67.1
		C1794.1,1520.2,1789.9,1520.2,1788.4,1523.2z"/>
	<text transform="matrix(1 0 0 1 1782.75 1584)" class="st26 st50 st54">!</text>
	<path class="st7" d="M81.2,1282c-0.4-1.2-2.1-1.2-2.5,0l-6.8,18l4,8h8l4-8L81.2,1282z"/>
	<path class="st7" d="M105.2,1282c-0.4-1.2-2.1-1.2-2.5,0l-6.8,18l4,8h8l4-8L105.2,1282z"/>
	<path class="st7" d="M129.2,1282c-0.4-1.2-2.1-1.2-2.5,0l-6.8,18l4,8h8l4-8L129.2,1282z"/>
	<path class="st7" d="M153.2,1282c-0.4-1.2-2.1-1.2-2.5,0l-6.8,18l4,8h8l4-8L153.2,1282z"/>
	<path class="st7" d="M177.2,1282c-0.4-1.2-2.1-1.2-2.5,0l-6.8,18l4,8h8l4-8L177.2,1282z"/>
	<rect x="332" y="1300" class="st26" width="8" height="108"/>
	<rect x="356" y="1300" class="st26" width="8" height="108"/>
	<rect x="380" y="1300" class="st26" width="8" height="108"/>
	<rect x="404" y="1300" class="st26" width="8" height="108"/>
	<rect x="428" y="1300" class="st26" width="8" height="108"/>
	<rect x="460" y="1280" class="st26" width="8" height="128"/>
	<rect x="484" y="1280" class="st26" width="8" height="128"/>
	<rect x="508" y="1280" class="st26" width="8" height="128"/>
	<rect x="532" y="1280" class="st26" width="8" height="128"/>
	<rect x="556" y="1280" class="st26" width="8" height="128"/>
	<path class="st7" d="M337.2,1282c-0.4-1.2-2.1-1.2-2.5,0l-6.8,18l4,8h8l4-8L337.2,1282z"/>
	<path class="st7" d="M361.2,1282c-0.4-1.2-2.1-1.2-2.5,0l-6.8,18l4,8h8l4-8L361.2,1282z"/>
	<path class="st7" d="M385.2,1282c-0.4-1.2-2.1-1.2-2.5,0l-6.8,18l4,8h8l4-8L385.2,1282z"/>
	<path class="st7" d="M409.2,1282c-0.4-1.2-2.1-1.2-2.5,0l-6.8,18l4,8h8l4-8L409.2,1282z"/>
	<path class="st7" d="M433.2,1282c-0.4-1.2-2.1-1.2-2.5,0l-6.8,18l4,8h8l4-8L433.2,1282z"/>
	<rect x="588" y="1300" class="st15" width="8" height="108"/>
	<rect x="612" y="1300" class="st15" width="8" height="108"/>
	<rect x="636" y="1300" class="st15" width="8" height="108"/>
	<rect x="660" y="1300" class="st15" width="8" height="108"/>
	<rect x="684" y="1300" class="st15" width="8" height="108"/>
	<rect x="716" y="1280" class="st15" width="8" height="128"/>
	<rect x="740" y="1280" class="st15" width="8" height="128"/>
	<rect x="764" y="1280" class="st15" width="8" height="128"/>
	<rect x="788" y="1280" class="st15" width="8" height="128"/>
	<rect x="812" y="1280" class="st15" width="8" height="128"/>
	<path class="st7" d="M593.2,1282c-0.4-1.2-2.1-1.2-2.5,0l-6.8,18l4,8h8l4-8L593.2,1282z"/>
	<path class="st7" d="M617.2,1282c-0.4-1.2-2.1-1.2-2.5,0l-6.8,18l4,8h8l4-8L617.2,1282z"/>
	<path class="st7" d="M641.2,1282c-0.4-1.2-2.1-1.2-2.5,0l-6.8,18l4,8h8l4-8L641.2,1282z"/>
	<path class="st7" d="M665.2,1282c-0.4-1.2-2.1-1.2-2.5,0l-6.8,18l4,8h8l4-8L665.2,1282z"/>
	<path class="st7" d="M689.2,1282c-0.4-1.2-2.1-1.2-2.5,0l-6.8,18l4,8h8l4-8L689.2,1282z"/>
	<path class="st9" d="M278,408h-25.3c-3.3,0-6-2.7-6-6v-4c0-3.3,2.7-6,6-6H278c3.3,0,6,2.7,6,6v4C284,405.3,281.3,408,278,408z"/>
	<path class="st9" d="M230.7,436H220c-2.2,0-4-1.8-4-4v-4c0-2.2,1.8-4,4-4h10.7c2.2,0,4,1.8,4,4v4C234.7,434.2,232.9,436,230.7,436z
		"/>
	<path class="st9" d="M248,456h-10.7c-2.2,0-4-1.8-4-4v-4c0-2.2,1.8-4,4-4H248c2.2,0,4,1.8,4,4v4C252,454.2,250.2,456,248,456z"/>
	<path class="st9" d="M298.7,376H288c-2.2,0-4-1.8-4-4v-4c0-2.2,1.8-4,4-4h10.7c2.2,0,4,1.8,4,4v4C302.7,374.2,300.9,376,298.7,376z
		"/>
	<path class="st9" d="M316,420h-10.7c-2.2,0-4-1.8-4-4v-4c0-2.2,1.8-4,4-4H316c2.2,0,4,1.8,4,4v4C320,418.2,318.2,420,316,420z"/>
	<path class="st56" d="M192,352v112c0,1.5-0.4,2.8-1.1,4c-1.4,2.4-4,4-6.9,4H72c-3,0-5.5-1.6-6.9-4c-0.7-1.2-1.1-2.5-1.1-4V352
		c0-4.4,3.6-8,8-8h112C188.4,344,192,347.6,192,352z"/>
	<path class="st57" d="M124,380H84c-4.4,0-8-3.6-8-8v-8c0-4.4,3.6-8,8-8h40c4.4,0,8,3.6,8,8v8C132,376.4,128.4,380,124,380z"/>
	<path class="st57" d="M172,460h-40c-4.4,0-8-3.6-8-8v-8c0-4.4,3.6-8,8-8h40c4.4,0,8,3.6,8,8v8C180,456.4,176.4,460,172,460z"/>
	<path class="st57" d="M138,408h-25.3c-3.3,0-6-2.7-6-6v-4c0-3.3,2.7-6,6-6H138c3.3,0,6,2.7,6,6v4C144,405.3,141.3,408,138,408z"/>
	<path class="st57" d="M90.7,436H80c-2.2,0-4-1.8-4-4v-4c0-2.2,1.8-4,4-4h10.7c2.2,0,4,1.8,4,4v4C94.7,434.2,92.9,436,90.7,436z"/>
	<path class="st57" d="M108,456H97.3c-2.2,0-4-1.8-4-4v-4c0-2.2,1.8-4,4-4H108c2.2,0,4,1.8,4,4v4C112,454.2,110.2,456,108,456z"/>
	<path class="st57" d="M158.7,376H148c-2.2,0-4-1.8-4-4v-4c0-2.2,1.8-4,4-4h10.7c2.2,0,4,1.8,4,4v4C162.7,374.2,160.9,376,158.7,376
		z"/>
	<path class="st57" d="M176,420h-10.7c-2.2,0-4-1.8-4-4v-4c0-2.2,1.8-4,4-4H176c2.2,0,4,1.8,4,4v4C180,418.2,178.2,420,176,420z"/>
	<g>
		<path class="st23" d="M843.2,1485c1.5-14.6,13.9-26,28.8-26h48c15,0,27.3,11.4,28.8,26H843.2z"/>
		<path class="st7" d="M920,1462c12.3,0,22.6,8.5,25.3,20h-98.6c2.7-11.5,13-20,25.3-20H920 M920,1456h-48c-17.7,0-32,14.3-32,32
			h112C952,1470.3,937.7,1456,920,1456L920,1456z"/>
	</g>
	<rect x="840" y="1488" class="st3" width="112" height="48"/>
	<g>
		<rect x="843" y="1491" class="st23" width="106" height="42"/>
		<path class="st7" d="M946,1494v36H846v-36H946 M952,1488H840v48h112V1488L952,1488z"/>
	</g>
	<path class="st16" d="M904,1496h-16c-2.2,0-4-1.8-4-4v-8c0-2.2,1.8-4,4-4h16c2.2,0,4,1.8,4,4v8C908,1494.2,906.2,1496,904,1496z"/>
	<rect x="584" y="1680" class="st3" width="112" height="48"/>
	<g>
		<rect x="587" y="1683" class="st23" width="106" height="42"/>
		<path class="st7" d="M690,1686v36H590v-36H690 M696,1680H584v48h112V1680L696,1680z"/>
	</g>
	<g>
		<path class="st58" d="M587.8,1677l5-20c3.2-12.9,14.8-22,28.1-22h38c13.3,0,24.9,9,28.1,22l5,20H587.8z"/>
		<path class="st7" d="M659,1638c12,0,22.3,8.1,25.2,19.7l4.1,16.3h-96.6l4.1-16.3c2.9-11.6,13.3-19.7,25.2-19.7H659 M659,1632h-38
			c-14.7,0-27.5,10-31,24.2l-6,23.8h112l-5.9-23.8C686.5,1642,673.7,1632,659,1632L659,1632z"/>
	</g>
	<path class="st16" d="M650,1640h-20c-1.1,0-2-0.9-2-2v-8c0-1.1,0.9-2,2-2h20c1.1,0,2,0.9,2,2v8C652,1639.1,651.1,1640,650,1640z"/>
	<g>
		<path class="st7" d="M715.2,1677c1.5-14.6,13.9-26,28.8-26h48c15,0,27.3,11.4,28.8,26H715.2z"/>
		<path class="st59" d="M792,1654c12.3,0,22.6,8.5,25.3,20h-98.6c2.7-11.5,13-20,25.3-20H792 M792,1648h-48c-17.7,0-32,14.3-32,32
			h112C824,1662.3,809.7,1648,792,1648L792,1648z"/>
	</g>
	<rect x="712" y="1680" class="st3" width="112" height="48"/>
	<g>
		<rect x="715" y="1683" class="st7" width="106" height="42"/>
		<path class="st59" d="M818,1686v36H718v-36H818 M824,1680H712v48h112V1680L824,1680z"/>
	</g>
	<path class="st60" d="M776,1688h-16c-2.2,0-4-1.8-4-4v-8c0-2.2,1.8-4,4-4h16c2.2,0,4,1.8,4,4v8C780,1686.2,778.2,1688,776,1688z"/>
	<rect x="840" y="1680" class="st3" width="112" height="48"/>
	<g>
		<rect x="843" y="1683" class="st7" width="106" height="42"/>
		<path class="st59" d="M946,1686v36H846v-36H946 M952,1680H840v48h112V1680L952,1680z"/>
	</g>
	<g>
		<path class="st25" d="M843.8,1677l5-20c3.2-12.9,14.8-22,28.1-22h38c13.3,0,24.9,9,28.1,22l5,20H843.8z"/>
		<path class="st59" d="M915,1638c12,0,22.3,8.1,25.2,19.7l4.1,16.3h-96.6l4.1-16.3c2.9-11.6,13.3-19.7,25.2-19.7H915 M915,1632h-38
			c-14.7,0-27.5,10-31,24.2l-6,23.8h112l-5.9-23.8C942.5,1642,929.7,1632,915,1632L915,1632z"/>
	</g>
	<path class="st60" d="M906,1640h-20c-1.1,0-2-0.9-2-2v-8c0-1.1,0.9-2,2-2h20c1.1,0,2,0.9,2,2v8C908,1639.1,907.1,1640,906,1640z"/>
</g>
<text transform="matrix(1 0 0 1 644.3413 1856)" class="st49 st61 st62">MINIMALISTIC OBJECTS</text>
<text transform="matrix(1 0 0 1 1576 1856)" class="st49 st50 st63">TIo AIMAR</text>
</svg>
