<?xml version="1.0" encoding="utf-8"?>
<!-- Generator: Adobe Illustrator 19.2.1, SVG Export Plug-In . SVG Version: 6.00 Build 0)  -->
<svg version="1.1" xmlns="http://www.w3.org/2000/svg" xmlns:xlink="http://www.w3.org/1999/xlink" x="0px" y="0px"
	 viewBox="0 0 1392 752" style="enable-background:new 0 0 1392 752;" xml:space="preserve">
<style type="text/css">
	.st0{fill:#D9DBDB;}
	.st1{fill:#83959B;}
	.st2{fill:#ADB7B8;}
	.st3{fill:#C1C9C9;}
	.st4{fill:#6A7271;}
	.st5{fill:#838E8D;}
	.st6{fill:#6D4E35;}
	.st7{fill:#8E6540;}
	.st8{fill:#959D9E;stroke:#A6A8AB;stroke-width:3;stroke-miterlimit:10;}
	.st9{fill:#7D8B8C;}
	.st10{fill:#B2875D;}
	.st11{fill:#D1B49D;}
	.st12{fill:#6A7271;stroke:#A6A8AB;stroke-width:4;stroke-miterlimit:10;}
	.st13{fill:#C1C6C6;}
	.st14{fill:#BF8851;stroke:#AE7640;stroke-width:3;stroke-miterlimit:10;}
	.st15{fill:#CCA277;stroke:#AE7640;stroke-width:4;stroke-miterlimit:10;}
	.st16{fill:#CCA277;}
	.st17{fill:#ACC0C1;stroke:#95AEAD;stroke-width:3;stroke-miterlimit:10;}
	.st18{fill:#C7D4D4;stroke:#95AEAD;stroke-width:4;stroke-miterlimit:10;}
	.st19{fill:#C7D4D4;}
	.st20{fill:#FFCC00;stroke:#E3B602;stroke-width:3;stroke-miterlimit:10;}
	.st21{fill:#FEE481;stroke:#E3B602;stroke-width:4;stroke-miterlimit:10;}
	.st22{fill:#FEE481;}
	.st23{fill:#E28864;}
	.st24{fill:#E5BF57;}
	.st25{fill:#75C64F;}
	.st26{fill:#5BA8D3;}
	.st27{fill:#92C4D6;}
	.st28{fill:#AED9E5;}
	.st29{fill:#6AAFBF;}
	.st30{fill:#148ADB;}
	.st31{fill:#3698CE;}
	.st32{fill:#157CAA;}
	.st33{fill:#5BA833;}
	.st34{fill:#7EC153;}
	.st35{fill:#3C8E10;}
	.st36{fill:#C12929;}
	.st37{fill:#BA4F4F;}
	.st38{fill:#A01D1D;}
	.st39{opacity:0.5;fill:#62B2C4;}
	.st40{opacity:0.5;fill:#C3E2E2;}
	.st41{opacity:0.5;fill:#A2D877;}
	.st42{opacity:0.5;fill:#C16363;}
	.st43{fill:#DD5B12;}
	.st44{fill:#DBAC14;}
	.st45{fill:#4CA328;}
	.st46{fill:#C64938;}
	.st47{fill:#A03F35;}
	.st48{fill:#CE8078;}
	.st49{fill:#9E7451;}
	.st50{fill:#825937;}
	.st51{fill:#C9A68D;}
	.st52{fill:#BC906C;}
	.st53{fill:#959D9E;}
	.st54{fill:#896E59;}
	.st55{fill:#9E7757;}
	.st56{fill:#966E4D;}
	.st57{fill:#936E50;}
	.st58{fill:#C19672;}
	.st59{fill:#D14242;}
	.st60{fill:#FFCC00;}
	.st61{fill:#FFE98A;}
	.st62{fill:none;}
	.st63{font-family:'OpenDyslexic-Regular';}
	.st64{font-size:73px;}
	.st65{font-family:'Aquino-Demo';}
	.st66{font-size:48px;}
</style>
<g id="bg">
	<rect x="0" class="st0" width="1392" height="752"/>
</g>
<g id="objects">
	<g>
		<polygon class="st1" points="786.9,422.3 782.1,431.7 796.3,431.7 791.6,422.3 		"/>
		<polygon class="st1" points="782.1,417.5 768,422.3 768,427 782.1,431.7 786.9,422.3 		"/>
		<polygon class="st1" points="796.3,417.5 791.6,422.3 796.3,431.7 810.4,427 810.4,422.3 		"/>
	</g>
	<polygon class="st2" points="136,408 150,320 164,408 	"/>
	<polygon class="st3" points="150,326 160,404 157.2,404 	"/>
	<polygon class="st2" points="164,408 178,320 192,408 	"/>
	<polygon class="st3" points="178,326 188,404 185.2,404 	"/>
	<polygon class="st2" points="192,408 206,320 220,408 	"/>
	<polygon class="st3" points="206,326 216,404 213.2,404 	"/>
	<polygon class="st2" points="220,408 234,320 248,408 	"/>
	<polygon class="st3" points="234,326 244,404 241.2,404 	"/>
	<path class="st4" d="M161,414h-22c-2.2,0-4-1.8-4-4l0,0c0-2.2,1.8-4,4-4h22c2.2,0,4,1.8,4,4l0,0C165,412.2,163.2,414,161,414z"/>
	<path class="st4" d="M189,414h-22c-2.2,0-4-1.8-4-4l0,0c0-2.2,1.8-4,4-4h22c2.2,0,4,1.8,4,4l0,0C193,412.2,191.2,414,189,414z"/>
	<path class="st4" d="M217,414h-22c-2.2,0-4-1.8-4-4l0,0c0-2.2,1.8-4,4-4h22c2.2,0,4,1.8,4,4l0,0C221,412.2,219.2,414,217,414z"/>
	<path class="st4" d="M245,414h-22c-2.2,0-4-1.8-4-4l0,0c0-2.2,1.8-4,4-4h22c2.2,0,4,1.8,4,4l0,0C249,412.2,247.2,414,245,414z"/>
	<path class="st5" d="M252,416H132c-2.2,0-4-1.8-4-4l0,0c0-2.2,1.8-4,4-4h120c2.2,0,4,1.8,4,4l0,0C256,414.2,254.2,416,252,416z"/>
	<path class="st4" d="M417,414h-22c-2.2,0-4-1.8-4-4l0,0c0-2.2,1.8-4,4-4h22c2.2,0,4,1.8,4,4l0,0C421,412.2,419.2,414,417,414z"/>
	<path class="st4" d="M445,414h-22c-2.2,0-4-1.8-4-4l0,0c0-2.2,1.8-4,4-4h22c2.2,0,4,1.8,4,4l0,0C449,412.2,447.2,414,445,414z"/>
	<path class="st4" d="M473,414h-22c-2.2,0-4-1.8-4-4l0,0c0-2.2,1.8-4,4-4h22c2.2,0,4,1.8,4,4l0,0C477,412.2,475.2,414,473,414z"/>
	<path class="st4" d="M501,414h-22c-2.2,0-4-1.8-4-4l0,0c0-2.2,1.8-4,4-4h22c2.2,0,4,1.8,4,4l0,0C505,412.2,503.2,414,501,414z"/>
	<path class="st5" d="M508,416H388c-2.2,0-4-1.8-4-4l0,0c0-2.2,1.8-4,4-4h120c2.2,0,4,1.8,4,4l0,0C512,414.2,510.2,416,508,416z"/>
	<path class="st6" d="M545,414h-22c-2.2,0-4-1.8-4-4l0,0c0-2.2,1.8-4,4-4h22c2.2,0,4,1.8,4,4l0,0C549,412.2,547.2,414,545,414z"/>
	<path class="st6" d="M573,414h-22c-2.2,0-4-1.8-4-4l0,0c0-2.2,1.8-4,4-4h22c2.2,0,4,1.8,4,4l0,0C577,412.2,575.2,414,573,414z"/>
	<path class="st6" d="M601,414h-22c-2.2,0-4-1.8-4-4l0,0c0-2.2,1.8-4,4-4h22c2.2,0,4,1.8,4,4l0,0C605,412.2,603.2,414,601,414z"/>
	<path class="st6" d="M629,414h-22c-2.2,0-4-1.8-4-4l0,0c0-2.2,1.8-4,4-4h22c2.2,0,4,1.8,4,4l0,0C633,412.2,631.2,414,629,414z"/>
	<path class="st7" d="M636,416H516c-2.2,0-4-1.8-4-4l0,0c0-2.2,1.8-4,4-4h120c2.2,0,4,1.8,4,4l0,0C640,414.2,638.2,416,636,416z"/>
	<path class="st8" d="M488.3,482c0,3.4-0.4,6.7-1.2,9.9c-0.8,3.1-1.9,6.1-3.4,8.8c-2.9,5.4-6.9,10.1-11.8,13.8
		c-4.5,3.3-9.6,5.7-15.2,6.9c-2.8,0.6-5.7,0.9-8.7,0.9c-3.4,0-6.7-0.4-9.9-1.2c-3.1-0.8-6.1-1.9-8.8-3.4
		c-5.4-2.9-10.1-6.9-13.8-11.8c-3.3-4.5-5.7-9.6-6.9-15.2c-0.6-2.8-0.9-5.7-0.9-8.7c0-3.4,0.4-6.7,1.2-9.9
		c1.5-5.9,4.3-11.3,8.1-15.9c3.7-4.4,8.3-8,13.5-10.6c2.8-1.3,5.7-2.4,8.8-3c2.8-0.6,5.7-0.9,8.7-0.9c3.4,0,6.7,0.4,9.9,1.2
		c5.9,1.5,11.3,4.3,15.9,8.1c4.4,3.7,8,8.3,10.6,13.5c1.3,2.8,2.4,5.7,3,8.8C488,476.1,488.3,479,488.3,482z"/>
	<path class="st9" d="M457.9,442.9c-3.2-0.8-6.5-1.2-9.9-1.2c-3,0-5.9,0.3-8.7,0.9l0.7-0.9c4.4-5,7.1-11.2,8-17.7l2.1,2.4
		C454.2,431.1,456.9,436.8,457.9,442.9z"/>
	<polygon class="st10" points="264,408 278,320 292,408 	"/>
	<polygon class="st11" points="278,326 288,404 285.2,404 	"/>
	<polygon class="st10" points="292,408 306,320 320,408 	"/>
	<polygon class="st11" points="306,326 316,404 313.2,404 	"/>
	<polygon class="st10" points="320,408 334,320 348,408 	"/>
	<polygon class="st11" points="334,326 344,404 341.2,404 	"/>
	<polygon class="st10" points="348,408 362,320 376,408 	"/>
	<polygon class="st11" points="362,326 372,404 369.2,404 	"/>
	<path class="st6" d="M289,414h-22c-2.2,0-4-1.8-4-4l0,0c0-2.2,1.8-4,4-4h22c2.2,0,4,1.8,4,4l0,0C293,412.2,291.2,414,289,414z"/>
	<path class="st6" d="M317,414h-22c-2.2,0-4-1.8-4-4l0,0c0-2.2,1.8-4,4-4h22c2.2,0,4,1.8,4,4l0,0C321,412.2,319.2,414,317,414z"/>
	<path class="st6" d="M345,414h-22c-2.2,0-4-1.8-4-4l0,0c0-2.2,1.8-4,4-4h22c2.2,0,4,1.8,4,4l0,0C349,412.2,347.2,414,345,414z"/>
	<path class="st6" d="M373,414h-22c-2.2,0-4-1.8-4-4l0,0c0-2.2,1.8-4,4-4h22c2.2,0,4,1.8,4,4l0,0C377,412.2,375.2,414,373,414z"/>
	<path class="st7" d="M380,416H260c-2.2,0-4-1.8-4-4l0,0c0-2.2,1.8-4,4-4h120c2.2,0,4,1.8,4,4l0,0C384,414.2,382.2,416,380,416z"/>
	<path class="st9" d="M456.7,521.4l-0.7,0.9c-4.4,5-7.1,11.2-8,17.7l-2.1-2.4c-4.1-4.7-6.8-10.4-7.8-16.4c3.2,0.8,6.5,1.2,9.9,1.2
		C451,522.3,453.9,522,456.7,521.4z"/>
	<path class="st9" d="M407.7,482c0,3,0.3,5.9,0.9,8.7l-0.9-0.7c-5-4.4-11.2-7.1-17.7-8l2.4-2.1c4.7-4.1,10.4-6.8,16.4-7.8
		C408.1,475.3,407.7,478.6,407.7,482z"/>
	<path class="st9" d="M506,482l-2.4,2.1c-4.7,4.1-10.4,6.8-16.4,7.8c0.8-3.2,1.2-6.5,1.2-9.9c0-3-0.3-5.9-0.9-8.7l0.9,0.7
		C493.3,478.4,499.4,481.2,506,482z"/>
	<path class="st9" d="M430.5,445.6c-5.2,2.5-9.8,6.2-13.5,10.6c-0.7-6.2-3-12-6.8-16.9l3.2,0.2C419.6,439.9,425.5,442,430.5,445.6z"
		/>
	<path class="st9" d="M490.7,519.8l-3.2-0.2c-5.5-0.4-10.9-2.1-15.6-5.1c4.9-3.6,9-8.3,11.8-13.8l0.1,0.9
		C484.3,508.3,486.7,514.6,490.7,519.8z"/>
	<path class="st9" d="M429.3,517.7l-0.9,0.1c-6.6,0.4-12.9,2.8-18.2,6.9l0.2-3.2c0.4-5.5,2.1-10.9,5.1-15.6
		C419.1,510.8,423.8,514.9,429.3,517.7z"/>
	<path class="st9" d="M490.7,444.2l-0.2,3.2c-0.4,6.2-2.5,12.1-6.1,17.1c-2.5-5.2-6.2-9.8-10.6-13.5
		C480,450.3,485.8,448,490.7,444.2z"/>
	<circle class="st12" cx="448" cy="482" r="15.1"/>
	<path class="st13" d="M473.3,510.3c0.4-0.4,0.8-0.9,1.2-1.3c3.6-4.3,6.2-9.4,7.6-15c0.7-3,1.2-6.1,1.2-9.3c0-2.8-0.3-5.6-0.9-8.2
		c-0.6-2.9-1.6-5.7-2.8-8.3c-2.4-4.9-5.8-9.3-9.9-12.7c-4.3-3.6-9.4-6.2-15-7.6c-3-0.7-6.1-1.2-9.3-1.2c-2.8,0-5.6,0.3-8.2,0.9
		c-5.3,1.2-10.1,3.4-14.3,6.5c-1.1,0.8-2.1,1.6-3.1,2.6c1.6-1.8,3.5-3.5,5.5-4.9c4.2-3.1,9-5.3,14.3-6.5c2.6-0.6,5.4-0.9,8.2-0.9
		c3.2,0,6.3,0.4,9.3,1.2c5.6,1.4,10.7,4.1,15,7.6c4.2,3.5,7.6,7.8,9.9,12.7c1.3,2.6,2.2,5.4,2.8,8.3c0.6,2.6,0.9,5.4,0.9,8.2
		c0,3.2-0.4,6.3-1.2,9.3c-1.4,5.6-4.1,10.7-7.6,15C475.8,507.9,474.6,509.1,473.3,510.3z"/>
	<path class="st14" d="M810,182c0,1.7-0.2,3.3-0.6,4.9c-0.4,1.5-1,3-1.7,4.4c-1.4,2.7-3.4,5-5.9,6.8c-2.2,1.6-4.8,2.8-7.5,3.4
		c-1.4,0.3-2.8,0.5-4.3,0.5c-1.7,0-3.3-0.2-4.9-0.6c-1.5-0.4-3-1-4.4-1.7c-2.7-1.4-5-3.4-6.8-5.9c-1.6-2.2-2.8-4.8-3.4-7.5
		c-0.3-1.4-0.5-2.8-0.5-4.3c0-1.7,0.2-3.3,0.6-4.9c0.7-2.9,2.1-5.6,4-7.9c1.8-2.2,4.1-4,6.7-5.2c1.4-0.7,2.8-1.2,4.4-1.5
		c1.4-0.3,2.8-0.5,4.3-0.5c1.7,0,3.3,0.2,4.9,0.6c2.9,0.7,5.6,2.1,7.9,4c2.2,1.8,4,4.1,5.2,6.7c0.7,1.4,1.2,2.8,1.5,4.4
		C809.8,179.1,810,180.5,810,182z"/>
	<circle class="st15" cx="790" cy="182" r="7.5"/>
	<path class="st16" d="M804.2,169.6c-0.2-0.2-0.4-0.4-0.7-0.6c-2.1-1.8-4.7-3.1-7.4-3.8c-1.5-0.4-3-0.6-4.6-0.6
		c-1.4,0-2.8,0.2-4.1,0.4c-1.4,0.3-2.8,0.8-4.1,1.4c-2.4,1.2-4.6,2.9-6.3,4.9c-1.8,2.1-3.1,4.7-3.8,7.4c-0.4,1.5-0.6,3-0.6,4.6
		c0,1.4,0.2,2.8,0.4,4.1c0.6,2.6,1.7,5,3.2,7.1c0.4,0.5,0.8,1.1,1.3,1.5c-0.9-0.8-1.7-1.7-2.4-2.7c-1.5-2.1-2.6-4.5-3.2-7.1
		c-0.3-1.3-0.4-2.7-0.4-4.1c0-1.6,0.2-3.1,0.6-4.6c0.7-2.8,2-5.3,3.8-7.4c1.7-2.1,3.9-3.8,6.3-4.9c1.3-0.6,2.7-1.1,4.1-1.4
		c1.3-0.3,2.7-0.4,4.1-0.4c1.6,0,3.1,0.2,4.6,0.6c2.8,0.7,5.3,2,7.4,3.8C803,168.4,803.6,169,804.2,169.6z"/>
	<path class="st17" d="M938,182c0,1.7-0.2,3.3-0.6,4.9c-0.4,1.5-1,3-1.7,4.4c-1.4,2.7-3.4,5-5.9,6.8c-2.2,1.6-4.8,2.8-7.5,3.4
		c-1.4,0.3-2.8,0.5-4.3,0.5c-1.7,0-3.3-0.2-4.9-0.6c-1.5-0.4-3-1-4.4-1.7c-2.7-1.4-5-3.4-6.8-5.9c-1.6-2.2-2.8-4.8-3.4-7.5
		c-0.3-1.4-0.5-2.8-0.5-4.3c0-1.7,0.2-3.3,0.6-4.9c0.7-2.9,2.1-5.6,4-7.9c1.8-2.2,4.1-4,6.7-5.2c1.4-0.7,2.8-1.2,4.4-1.5
		c1.4-0.3,2.8-0.5,4.3-0.5c1.7,0,3.3,0.2,4.9,0.6c2.9,0.7,5.6,2.1,7.9,4c2.2,1.8,4,4.1,5.2,6.7c0.7,1.4,1.2,2.8,1.5,4.4
		C937.8,179.1,938,180.5,938,182z"/>
	<circle class="st18" cx="918" cy="182" r="7.5"/>
	<path class="st19" d="M932.2,169.6c-0.2-0.2-0.4-0.4-0.7-0.6c-2.1-1.8-4.7-3.1-7.4-3.8c-1.5-0.4-3-0.6-4.6-0.6
		c-1.4,0-2.8,0.2-4.1,0.4c-1.4,0.3-2.8,0.8-4.1,1.4c-2.4,1.2-4.6,2.9-6.3,4.9c-1.8,2.1-3.1,4.7-3.8,7.4c-0.4,1.5-0.6,3-0.6,4.6
		c0,1.4,0.2,2.8,0.4,4.1c0.6,2.6,1.7,5,3.2,7.1c0.4,0.5,0.8,1.1,1.3,1.5c-0.9-0.8-1.7-1.7-2.4-2.7c-1.5-2.1-2.6-4.5-3.2-7.1
		c-0.3-1.3-0.4-2.7-0.4-4.1c0-1.6,0.2-3.1,0.6-4.6c0.7-2.8,2-5.3,3.8-7.4c1.7-2.1,3.9-3.8,6.3-4.9c1.3-0.6,2.7-1.1,4.1-1.4
		c1.3-0.3,2.7-0.4,4.1-0.4c1.6,0,3.1,0.2,4.6,0.6c2.8,0.7,5.3,2,7.4,3.8C931,168.4,931.6,169,932.2,169.6z"/>
	<path class="st20" d="M1066,182c0,1.7-0.2,3.3-0.6,4.9c-0.4,1.5-1,3-1.7,4.4c-1.4,2.7-3.4,5-5.9,6.8c-2.2,1.6-4.8,2.8-7.5,3.4
		c-1.4,0.3-2.8,0.5-4.3,0.5c-1.7,0-3.3-0.2-4.9-0.6c-1.5-0.4-3-1-4.4-1.7c-2.7-1.4-5-3.4-6.8-5.9c-1.6-2.2-2.8-4.8-3.4-7.5
		c-0.3-1.4-0.5-2.8-0.5-4.3c0-1.7,0.2-3.3,0.6-4.9c0.7-2.9,2.1-5.6,4-7.9c1.8-2.2,4.1-4,6.7-5.2c1.4-0.7,2.8-1.2,4.4-1.5
		c1.4-0.3,2.8-0.5,4.3-0.5c1.7,0,3.3,0.2,4.9,0.6c2.9,0.7,5.6,2.1,7.9,4c2.2,1.8,4,4.1,5.2,6.7c0.7,1.4,1.2,2.8,1.5,4.4
		C1065.8,179.1,1066,180.5,1066,182z"/>
	<circle class="st21" cx="1046" cy="182" r="7.5"/>
	<path class="st22" d="M1060.2,169.6c-0.2-0.2-0.4-0.4-0.7-0.6c-2.1-1.8-4.7-3.1-7.4-3.8c-1.5-0.4-3-0.6-4.6-0.6
		c-1.4,0-2.8,0.2-4.1,0.4c-1.4,0.3-2.8,0.8-4.1,1.4c-2.4,1.2-4.6,2.9-6.3,4.9c-1.8,2.1-3.1,4.7-3.8,7.4c-0.4,1.5-0.6,3-0.6,4.6
		c0,1.4,0.2,2.8,0.4,4.1c0.6,2.6,1.7,5,3.2,7.1c0.4,0.5,0.8,1.1,1.3,1.5c-0.9-0.8-1.7-1.7-2.4-2.7c-1.5-2.1-2.6-4.5-3.2-7.1
		c-0.3-1.3-0.4-2.7-0.4-4.1c0-1.6,0.2-3.1,0.6-4.6c0.7-2.8,2-5.3,3.8-7.4c1.7-2.1,3.9-3.8,6.3-4.9c1.3-0.6,2.7-1.1,4.1-1.4
		c1.3-0.3,2.7-0.4,4.1-0.4c1.6,0,3.1,0.2,4.6,0.6c2.8,0.7,5.3,2,7.4,3.8C1059,168.4,1059.6,169,1060.2,169.6z"/>
	<path class="st23" d="M824.4,302.7h-35.9v-7.3c0-4-3.5-7.3-7.7-7.3h-5.1c-4.2,0-7.7,3.3-7.7,7.3v24.5c0,4,3.5,7.3,7.7,7.3h5.1
		c4.2,0,7.7-3.3,7.7-7.3v-7.3h25.6v7.3c0,1.3,1.2,2.4,2.6,2.4s2.6-1.1,2.6-2.4v-7.3h5.1v7.3c0,1.3,1.2,2.4,2.6,2.4s2.6-1.1,2.6-2.4
		v-7.3V310v-2.4C829.5,304.9,827.2,302.7,824.4,302.7z M778.3,317.4c-2.8,0-5.1-2.2-5.1-4.9v-9.8c0-2.7,2.3-4.9,5.1-4.9
		c1.4,0,2.7,0.6,3.6,1.4c0.9,0.9,1.5,2.1,1.5,3.5v9.8C783.4,315.2,781.1,317.4,778.3,317.4z"/>
	<path class="st24" d="M952.4,302.7h-35.9v-7.3c0-4-3.5-7.3-7.7-7.3h-5.1c-4.2,0-7.7,3.3-7.7,7.3v24.5c0,4,3.5,7.3,7.7,7.3h5.1
		c4.2,0,7.7-3.3,7.7-7.3v-7.3h25.6v7.3c0,1.3,1.2,2.4,2.6,2.4s2.6-1.1,2.6-2.4v-7.3h5.1v7.3c0,1.3,1.2,2.4,2.6,2.4s2.6-1.1,2.6-2.4
		v-7.3V310v-2.4C957.5,304.9,955.2,302.7,952.4,302.7z M906.3,317.4c-2.8,0-5.1-2.2-5.1-4.9v-9.8c0-2.7,2.3-4.9,5.1-4.9
		c1.4,0,2.7,0.6,3.6,1.4c0.9,0.9,1.5,2.1,1.5,3.5v9.8C911.4,315.2,909.1,317.4,906.3,317.4z"/>
	<path class="st25" d="M1080.4,302.7h-35.9v-7.3c0-4-3.5-7.3-7.7-7.3h-5.1c-4.2,0-7.7,3.3-7.7,7.3v24.5c0,4,3.5,7.3,7.7,7.3h5.1
		c4.2,0,7.7-3.3,7.7-7.3v-7.3h25.6v7.3c0,1.3,1.2,2.4,2.6,2.4c1.4,0,2.6-1.1,2.6-2.4v-7.3h5.1v7.3c0,1.3,1.2,2.4,2.6,2.4
		s2.6-1.1,2.6-2.4v-7.3V310v-2.4C1085.5,304.9,1083.2,302.7,1080.4,302.7z M1034.3,317.4c-2.8,0-5.1-2.2-5.1-4.9v-9.8
		c0-2.7,2.3-4.9,5.1-4.9c1.4,0,2.7,0.6,3.6,1.4c0.9,0.9,1.5,2.1,1.5,3.5v9.8C1039.4,315.2,1037.1,317.4,1034.3,317.4z"/>
	<path class="st26" d="M1208.4,302.7h-35.9v-7.3c0-4-3.5-7.3-7.7-7.3h-5.1c-4.2,0-7.7,3.3-7.7,7.3v24.5c0,4,3.5,7.3,7.7,7.3h5.1
		c4.2,0,7.7-3.3,7.7-7.3v-7.3h25.6v7.3c0,1.3,1.2,2.4,2.6,2.4c1.4,0,2.6-1.1,2.6-2.4v-7.3h5.1v7.3c0,1.3,1.2,2.4,2.6,2.4
		s2.6-1.1,2.6-2.4v-7.3V310v-2.4C1213.5,304.9,1211.2,302.7,1208.4,302.7z M1162.3,317.4c-2.8,0-5.1-2.2-5.1-4.9v-9.8
		c0-2.7,2.3-4.9,5.1-4.9c1.4,0,2.7,0.6,3.6,1.4c0.9,0.9,1.5,2.1,1.5,3.5v9.8C1167.4,315.2,1165.1,317.4,1162.3,317.4z"/>
	<polygon class="st27" points="786.9,453.7 768,430.1 768,420.7 782.1,416 796.3,416 810.4,420.7 810.4,430.1 791.6,453.7 	"/>
	<polygon class="st28" points="786.9,453.7 782.1,430.1 768,425.4 768,430.1 	"/>
	<polygon class="st29" points="791.6,453.7 796.3,430.1 810.4,425.4 810.4,430.1 	"/>
	<polygon class="st27" points="782.1,430.1 786.9,420.7 791.6,420.7 796.3,430.1 	"/>
	<polygon class="st28" points="768,420.7 782.1,416 786.9,420.7 782.1,430.1 768,425.4 	"/>
	<polygon class="st29" points="791.6,420.7 796.3,416 810.4,420.7 810.4,425.4 796.3,430.1 	"/>
	<polygon class="st27" points="786.9,420.7 782.1,416 796.3,416 791.6,420.7 	"/>
	<polygon class="st30" points="915.2,454.4 896,430.4 896,420.8 910.4,416 924.8,416 939.2,420.8 939.2,430.4 920,454.4 	"/>
	<polygon class="st31" points="915.2,454.4 910.4,430.4 896,425.6 896,430.4 	"/>
	<polygon class="st32" points="920,454.4 924.8,430.4 939.2,425.6 939.2,430.4 	"/>
	<polygon class="st30" points="910.4,430.4 915.2,420.8 920,420.8 924.8,430.4 	"/>
	<polygon class="st31" points="896,420.8 910.4,416 915.2,420.8 910.4,430.4 896,425.6 	"/>
	<polygon class="st32" points="920,420.8 924.8,416 939.2,420.8 939.2,425.6 924.8,430.4 	"/>
	<polygon class="st30" points="915.2,420.8 910.4,416 924.8,416 920,420.8 	"/>
	<polygon class="st33" points="1043.2,454.4 1024,430.4 1024,420.8 1038.4,416 1052.8,416 1067.2,420.8 1067.2,430.4 1048,454.4 	
		"/>
	<polygon class="st34" points="1043.2,454.4 1038.4,430.4 1024,425.6 1024,430.4 	"/>
	<polygon class="st35" points="1048,454.4 1052.8,430.4 1067.2,425.6 1067.2,430.4 	"/>
	<polygon class="st33" points="1038.4,430.4 1043.2,420.8 1048,420.8 1052.8,430.4 	"/>
	<polygon class="st34" points="1024,420.8 1038.4,416 1043.2,420.8 1038.4,430.4 1024,425.6 	"/>
	<polygon class="st35" points="1048,420.8 1052.8,416 1067.2,420.8 1067.2,425.6 1052.8,430.4 	"/>
	<polygon class="st33" points="1043.2,420.8 1038.4,416 1052.8,416 1048,420.8 	"/>
	<polygon class="st36" points="1170.9,453.7 1152,430.1 1152,420.7 1166.1,416 1180.3,416 1194.4,420.7 1194.4,430.1 1175.6,453.7 	
		"/>
	<polygon class="st37" points="1170.9,453.7 1166.1,430.1 1152,425.4 1152,430.1 	"/>
	<polygon class="st38" points="1175.6,453.7 1180.3,430.1 1194.4,425.4 1194.4,430.1 	"/>
	<polygon class="st36" points="1166.1,430.1 1170.9,420.7 1175.6,420.7 1180.3,430.1 	"/>
	<polygon class="st37" points="1152,420.7 1166.1,416 1170.9,420.7 1166.1,430.1 1152,425.4 	"/>
	<polygon class="st38" points="1175.6,420.7 1180.3,416 1194.4,420.7 1194.4,425.4 1180.3,430.1 	"/>
	<polygon class="st36" points="1170.9,420.7 1166.1,416 1180.3,416 1175.6,420.7 	"/>
	<polygon class="st39" points="922.2,447.8 934.4,431.2 934.4,424 928.4,420.8 932.2,424 932.2,431.2 	"/>
	<polygon class="st40" points="793.7,447.2 805.7,430.9 805.7,423.9 799.8,420.7 803.6,423.9 803.6,430.9 	"/>
	<polygon class="st41" points="1050.2,447.8 1062.4,431.2 1062.4,424 1056.4,420.8 1060.2,424 1060.2,431.2 	"/>
	<polygon class="st42" points="1177.7,447.2 1189.7,430.9 1189.7,423.9 1183.8,420.7 1187.6,423.9 1187.6,430.9 	"/>
	<path class="st43" d="M824.4,304.1h-35.9v-7.3c0-4-3.5-7.3-7.7-7.3h-5.1c-4.2,0-7.7,3.3-7.7,7.3v24.5c0,4,3.5,7.3,7.7,7.3h5.1
		c4.2,0,7.7-3.3,7.7-7.3v-7.3h25.6v7.3c0,1.3,1.2,2.4,2.6,2.4s2.6-1.1,2.6-2.4v-7.3h5.1v7.3c0,1.3,1.2,2.4,2.6,2.4s2.6-1.1,2.6-2.4
		v-7.3v-2.4V309C829.5,306.3,827.2,304.1,824.4,304.1z M778.3,318.8c-2.8,0-5.1-2.2-5.1-4.9v-9.8c0-2.7,2.3-4.9,5.1-4.9
		c1.4,0,2.7,0.6,3.6,1.4c0.9,0.9,1.5,2.1,1.5,3.5v9.8C783.4,316.6,781.1,318.8,778.3,318.8z"/>
	<path class="st44" d="M952.4,304.1h-35.9v-7.3c0-4-3.5-7.3-7.7-7.3h-5.1c-4.2,0-7.7,3.3-7.7,7.3v24.5c0,4,3.5,7.3,7.7,7.3h5.1
		c4.2,0,7.7-3.3,7.7-7.3v-7.3h25.6v7.3c0,1.3,1.2,2.4,2.6,2.4s2.6-1.1,2.6-2.4v-7.3h5.1v7.3c0,1.3,1.2,2.4,2.6,2.4s2.6-1.1,2.6-2.4
		v-7.3v-2.4V309C957.5,306.3,955.2,304.1,952.4,304.1z M906.3,318.8c-2.8,0-5.1-2.2-5.1-4.9v-9.8c0-2.7,2.3-4.9,5.1-4.9
		c1.4,0,2.7,0.6,3.6,1.4c0.9,0.9,1.5,2.1,1.5,3.5v9.8C911.4,316.6,909.1,318.8,906.3,318.8z"/>
	<path class="st45" d="M1080.4,304.1h-35.9v-7.3c0-4-3.5-7.3-7.7-7.3h-5.1c-4.2,0-7.7,3.3-7.7,7.3v24.5c0,4,3.5,7.3,7.7,7.3h5.1
		c4.2,0,7.7-3.3,7.7-7.3v-7.3h25.6v7.3c0,1.3,1.2,2.4,2.6,2.4c1.4,0,2.6-1.1,2.6-2.4v-7.3h5.1v7.3c0,1.3,1.2,2.4,2.6,2.4
		s2.6-1.1,2.6-2.4v-7.3v-2.4V309C1085.5,306.3,1083.2,304.1,1080.4,304.1z M1034.3,318.8c-2.8,0-5.1-2.2-5.1-4.9v-9.8
		c0-2.7,2.3-4.9,5.1-4.9c1.4,0,2.7,0.6,3.6,1.4c0.9,0.9,1.5,2.1,1.5,3.5v9.8C1039.4,316.6,1037.1,318.8,1034.3,318.8z"/>
	<path class="st30" d="M1208.4,304.1h-35.9v-7.3c0-4-3.5-7.3-7.7-7.3h-5.1c-4.2,0-7.7,3.3-7.7,7.3v24.5c0,4,3.5,7.3,7.7,7.3h5.1
		c4.2,0,7.7-3.3,7.7-7.3v-7.3h25.6v7.3c0,1.3,1.2,2.4,2.6,2.4c1.4,0,2.6-1.1,2.6-2.4v-7.3h5.1v7.3c0,1.3,1.2,2.4,2.6,2.4
		s2.6-1.1,2.6-2.4v-7.3v-2.4V309C1213.5,306.3,1211.2,304.1,1208.4,304.1z M1162.3,318.8c-2.8,0-5.1-2.2-5.1-4.9v-9.8
		c0-2.7,2.3-4.9,5.1-4.9c1.4,0,2.7,0.6,3.6,1.4c0.9,0.9,1.5,2.1,1.5,3.5v9.8C1167.4,316.6,1165.1,318.8,1162.3,318.8z"/>
	<path class="st46" d="M240,516v24c0,2.2-1.8,4-4,4h-88c-2.2,0-4-1.8-4-4v-24c0-2.2,1.8-4,4-4h88C238.2,512,240,513.8,240,516z"/>
	<path class="st5" d="M252,544H132c-2.2,0-4-1.8-4-4l0,0c0-2.2,1.8-4,4-4h120c2.2,0,4,1.8,4,4l0,0C256,542.2,254.2,544,252,544z"/>
	<path class="st46" d="M368,532v12h-96v-12c0-2.2,1.8-4,4-4h88C366.2,528,368,529.8,368,532z"/>
	<path class="st5" d="M384,540c0,1.1-0.5,2.1-1.2,2.8c-0.7,0.7-1.7,1.2-2.8,1.2H260c-2.2,0-4-1.8-4-4c0-1.1,0.5-2.1,1.2-2.8
		c0.7-0.7,1.7-1.2,2.8-1.2h120C382.2,536,384,537.8,384,540z"/>
	<rect x="144" y="532" class="st47" width="96" height="4"/>
	<path class="st48" d="M197.8,514.8h25.9c2.2,0,4.3,0.5,6.2,1.6l0,0c3.7,2,6.2,5.7,6.8,9.9l0.5,3.9l-1.8-4.6c-1.1-2.7-3-4.9-5.5-6.4
		l-0.9-0.5c-1.7-1-3.6-1.6-5.6-1.8L197.8,514.8z"/>
	<rect x="272" y="534" class="st47" width="96" height="2"/>
	<path class="st48" d="M327.1,529.2h25.9c2.2,0,4.3,0.2,6.2,0.5l0,0c3.7,0.6,6.2,1.7,6.8,2.9l0.5,1.1l-1.8-1.3
		c-1.1-0.8-3-1.4-5.5-1.9l-0.9-0.2c-1.7-0.3-3.6-0.5-5.6-0.5L327.1,529.2z"/>
	<g>
		<path class="st49" d="M328,162.8V288h-16V160h7.2l0.8,0.8h2.7l1.2,2.3c0,0,2.5,0.2,3.3,0C327.3,163.1,327.6,163,328,162.8z"/>
		<path class="st10" d="M365.2,216.2l-2,3l3-1.5l2.8,1.5l1.9,0.8l2.3,1l1,3l0.9,0.6c-1.8,4.3-6.1,7.4-11.1,7.4h-62.2l-4.7-3.3
			l-3.2,1h-9l-2.7,1l-1.7,1.3H276c-6.6,0-12-5.4-12-12v-36.3l4.9,1.3l3.5-3.3l3.2-2.3h3l-3-2.3l-5,2.3h-4l-2.5-1.4
			c0.9-5.7,5.9-10.1,11.8-10.1h88c6.6,0,12,5.4,12,12v39.2h-1.3l-1.8-1.7h-3l-2.3-1.3H365.2z"/>
		<rect x="312" y="232" class="st50" width="16" height="4"/>
		<path class="st51" d="M311,176.3h40.7c2.6,0,5.2,0.7,7.4,2.1l0,0c4.2,2.6,6.8,7.2,6.8,12.2v18l-2.6-16.4c-0.7-4.2-3.2-7.9-6.8-10
			l-1-0.6c-1.9-1.1-3.9-1.8-6.1-1.9L311,176.3z"/>
	</g>
	<g>
		<path class="st10" d="M500,206.9l-5.3,4.9l-2.1,0.5l-3,1.3h-3.8l-1,0.5l-1.7,0.8l-3,3.5h3l3-2.3h4.1l-15.4,14.2
			c-5.6,5.1-12.6-1-12.6-10.9v-46.5c0-5,1.8-9.1,4.3-11.2l0.3-0.1h2l1.2,1.7h3.2l1.8,1.7l2.3,0.7h1.5l21.3,19.6
			C505.3,190,505.3,202,500,206.9z"/>
		<path class="st49" d="M440,162.8V288h-16V160h7.2l0.8,0.8h2.7l1.2,2.3c0,0,2.5,0.2,3.3,0C439.3,163.1,439.6,163,440,162.8z"/>
		<rect x="424" y="220" class="st50" width="16" height="4"/>
		<path class="st10" d="M480,184v24c0,6.6-5.4,12-12,12h-64c-1.6,0-3.1-0.3-4.5-0.9l0-0.8l0.7-2.3l0.8-0.7l5.2-0.9l3.8-1.6h-3.5
			l-5.3,0.8H399l-2.7,2.3h-1.3c-1.9-2.1-3.1-4.9-3.1-8v-24c0-6.6,5.4-12,12-12h64C474.6,172,480,177.4,480,184z"/>
		<path class="st51" d="M440.3,178.5h21.3c8.9,0,17.7,2.6,25.2,7.4l10,6.5l-16.8-7.2c-4.1-1.8-8.4-2.9-12.8-3.4L440.3,178.5z"/>
	</g>
	<g>
		<path class="st52" d="M560,288h-16l-6.3-12.6c-6.4-12.8-9.7-26.9-9.7-41.2v-20.6c0-14.3,3.3-28.4,9.7-41.1L544,160h16
			C549.3,202.5,549.3,245.5,560,288z"/>
		<path class="st49" d="M624,213.7v20.6c0,14.3-3.3,28.4-9.7,41.2L608,288h-16c5.3-21.3,8-42.6,8-64s-2.7-42.8-8-64h16l6.3,12.6
			C620.7,185.3,624,199.4,624,213.7z"/>
		<path class="st10" d="M600,224c0,21.4-2.7,42.8-8,64h-32c-10.6-42.5-10.6-85.5,0-128h32C597.3,181.3,600,202.6,600,224z"/>
		<path class="st10" d="M600,224c0,21.4-2.7,42.8-8,64h-32c-10.6-42.5-10.6-85.5,0-128h32C597.3,181.3,600,202.6,600,224z"/>
		<path class="st53" d="M624,232h-96c-4.4,0-4-3.6-4-8v0c0-4.4-0.4-8,4-8h96c4.4,0,4,3.6,4,8v0C628,228.4,628.4,232,624,232z"/>
		<path class="st53" d="M537.8,164.4l-4,8c-0.8,1.6,0.4,3.5,2.2,3.5h80.1c1.8,0,3-1.9,2.2-3.5l-4-8c-1.4-2.7-4.1-4.4-7.2-4.4H545
			C541.9,160,539.2,161.7,537.8,164.4z"/>
		<path class="st53" d="M614.2,283.6l4-8c0.8-1.6-0.4-3.5-2.2-3.5H536c-1.8,0-3,1.9-2.2,3.5l4,8c1.4,2.7,4.1,4.4,7.2,4.4h62.1
			C610.1,288,612.9,286.3,614.2,283.6z"/>
		<polygon class="st54" points="536,176 535,178 616.9,178 616.1,176 		"/>
		<rect x="528" y="232" class="st54" width="96" height="2"/>
		<path class="st13" d="M568.2,162.5h31.2c2.2,0,4.5,0.5,6.4,1.6l0,0c2.6,1.4,4.7,3.5,6,6.1l1.3,2.7l-3.7-3.6c-1-1-2.2-1.9-3.5-2.5
			l-1.6-0.8c-1.7-0.9-3.6-1.4-5.5-1.5L568.2,162.5z"/>
		<path class="st13" d="M568.7,220.2l23-1.2c6-0.3,12-0.2,17.9,0.2l12.4,1l-17.9,1c-2.3,0.1-4.5,0.1-6.8,0.1L568.7,220.2z"/>
		<path class="st13" d="M581.7,274.7h25.9c2.6,0,4.5,2.5,3.8,5l-1.2,4.3l0.1-3.9c0-2.1-1.6-3.9-3.7-4L581.7,274.7z"/>
	</g>
	<path class="st7" d="M208,656h-32c-8.8,0-16,7.2-16,16l0,0h64l0,0C224,663.2,216.8,656,208,656z"/>
	<rect x="184" y="600" class="st10" width="16" height="56"/>
	<path class="st10" d="M208,600h-32c-4.4,0-8-3.6-8-8l0,0c0-4.4,3.6-8,8-8h32c4.4,0,8,3.6,8,8l0,0C216,596.4,212.4,600,208,600z"/>
	<path class="st11" d="M177.5,586.3h26.6c2.2,0,4.2,0.9,5.7,2.4l0,0c1.5,1.5,2.4,3.6,2.4,5.7v1.4l-2.1-3.1c-0.7-1.1-1.7-2-2.9-2.6
		l-1-0.6c-0.9-0.5-2-0.8-3.1-0.9L177.5,586.3z"/>
	<path class="st55" d="M173.8,660h35c2.8,0,5.5,0.9,7.5,2.4l0,0c2,1.5,3.1,3.6,3.1,5.7v1.4l-2.8-3.1c-1-1.1-2.3-2-3.8-2.6l-1.4-0.6
		c-1.2-0.5-2.6-0.8-4-0.9L173.8,660z"/>
	<rect x="184" y="600" class="st56" width="16" height="2"/>
	
		<rect x="294.5" y="618.5" transform="matrix(0.7071 -0.7071 0.7071 0.7071 -368.5626 403.2994)" class="st10" width="16" height="56"/>
	<path class="st10" d="M294.1,615.4l-22.6,22.6c-3.1,3.1-8.2,3.1-11.3,0h0c-3.1-3.1-3.1-8.2,0-11.3l22.6-22.6
		c3.1-3.1,8.2-3.1,11.3,0l0,0C297.2,607.2,297.2,612.3,294.1,615.4z"/>
	<path class="st7" d="M336,656h-32c-8.8,0-16,7.2-16,16l0,0h64l0,0C352,663.2,344.8,656,336,656z"/>
	
		<rect x="275.5" y="626.5" transform="matrix(0.7071 -0.7071 0.7071 0.7071 -360.6545 384.2076)" class="st56" width="16" height="2"/>
	<path class="st55" d="M301.8,660h35c2.8,0,5.5,0.9,7.5,2.4l0,0c2,1.5,3.1,3.6,3.1,5.7v1.4l-2.8-3.1c-1-1.1-2.3-2-3.8-2.6l-1.4-0.6
		c-1.2-0.5-2.6-0.8-4-0.9L301.8,660z"/>
	
		<rect x="457.5" y="618.5" transform="matrix(0.7071 0.7071 -0.7071 0.7071 593.5046 -139.7586)" class="st10" width="16" height="56"/>
	<path class="st10" d="M496.6,638.1l-22.6-22.6c-3.1-3.1-3.1-8.2,0-11.3l0,0c3.1-3.1,8.2-3.1,11.3,0l22.6,22.6
		c3.1,3.1,3.1,8.2,0,11.3h0C504.8,641.2,499.7,641.2,496.6,638.1z"/>
	
		<rect x="476.5" y="626.5" transform="matrix(0.7071 0.7071 -0.7071 0.7071 585.5965 -158.8505)" class="st56" width="16" height="2"/>
	<path class="st7" d="M464,656h-32c-8.8,0-16,7.2-16,16l0,0h64l0,0C480,663.2,472.8,656,464,656z"/>
	<path class="st55" d="M429.8,660h35c2.8,0,5.5,0.9,7.5,2.4l0,0c2,1.5,3.1,3.6,3.1,5.7v1.4l-2.8-3.1c-1-1.1-2.3-2-3.8-2.6l-1.4-0.6
		c-1.2-0.5-2.6-0.8-4-0.9L429.8,660z"/>
	<path class="st11" d="M274.5,615.6l10.6-9.5c0.5-0.4,1.1-0.7,1.7-0.7h2.9c1.4,0,2.6,1.2,2.6,2.6v1.4c0,0.7-0.2,1.3-0.7,1.8
		l-6.8,7.3l4.8-7.6c0.2-0.3,0.3-0.6,0.4-1l0,0c0.3-1.6-1.1-3.1-2.7-3l-0.1,0c-0.5,0-1,0.2-1.3,0.5L274.5,615.6z"/>
	<path class="st11" d="M485.5,623.2l-9.5-10.6c-0.4-0.5-0.7-1.1-0.7-1.7v-2.9c0-1.4,1.2-2.6,2.6-2.6h1.4c0.7,0,1.3,0.2,1.8,0.7
		l7.3,6.8l-7.6-4.8c-0.3-0.2-0.6-0.3-1-0.4h0c-1.6-0.3-3.1,1.1-3,2.7l0,0.1c0,0.5,0.2,1,0.5,1.3L485.5,623.2z"/>
	<path class="st23" d="M797.6,305.4h25.2c0.8,0,1.6,0.2,2.4,0.5l0,0c2.1,0.9,3.4,3,3.4,5.3v1.4l-0.7-1.9c-0.6-1.6-1.9-2.9-3.5-3.4
		l-0.6-0.2c-0.5-0.2-1.1-0.3-1.6-0.3L797.6,305.4z"/>
	<path class="st24" d="M925.4,305.4h25.2c0.8,0,1.6,0.2,2.4,0.5l0,0c2.1,0.9,3.4,3,3.4,5.3v1.4l-0.7-1.9c-0.6-1.6-1.9-2.9-3.5-3.4
		l-0.6-0.2c-0.5-0.2-1.1-0.3-1.6-0.3L925.4,305.4z"/>
	<path class="st25" d="M1053.5,305.4h25.2c0.8,0,1.6,0.2,2.4,0.5l0,0c2.1,0.9,3.4,3,3.4,5.3v1.4l-0.7-1.9c-0.6-1.6-1.9-2.9-3.5-3.4
		l-0.6-0.2c-0.5-0.2-1.1-0.3-1.6-0.3L1053.5,305.4z"/>
	<path class="st26" d="M1181.3,305.4h25.2c0.8,0,1.6,0.2,2.4,0.5l0,0c2.1,0.9,3.4,3,3.4,5.3v1.4l-0.7-1.9c-0.6-1.6-1.9-2.9-3.5-3.4
		l-0.6-0.2c-0.5-0.2-1.1-0.3-1.6-0.3L1181.3,305.4z"/>
	<rect x="232" y="184" class="st10" width="24" height="80"/>
	<rect x="128" y="184" class="st10" width="24" height="80"/>
	<rect x="232" y="261" class="st57" width="24" height="3"/>
	<rect x="232" y="184" class="st57" width="24" height="3"/>
	<rect x="128" y="160" class="st10" width="128" height="24"/>
	<rect x="128" y="264" class="st10" width="128" height="24"/>
	<circle class="st57" cx="140" cy="172" r="3.9"/>
	<circle class="st57" cx="244" cy="172" r="3.9"/>
	<circle class="st57" cx="140" cy="276" r="3.9"/>
	<circle class="st57" cx="244" cy="276" r="3.9"/>
	<rect x="152" y="184" class="st7" width="80" height="16"/>
	<rect x="152" y="200" class="st7" width="80" height="16"/>
	<rect x="152" y="216" class="st7" width="80" height="16"/>
	<rect x="152" y="232" class="st7" width="80" height="16"/>
	<rect x="152" y="248" class="st7" width="80" height="16"/>
	<rect x="152" y="200" class="st57" width="80" height="3"/>
	<rect x="152" y="216" class="st57" width="80" height="3"/>
	<rect x="152" y="232" class="st57" width="80" height="3"/>
	<rect x="152" y="248" class="st57" width="80" height="3"/>
	<polygon class="st10" points="232,184 224,184 152,256 152,264 160,264 232,192 	"/>
	<rect x="128" y="184" class="st57" width="104" height="3"/>
	<rect x="128" y="261" class="st57" width="104" height="3"/>
	<path class="st58" d="M152,168h68.7c7.2,0,14.2,2.9,19.3,8l0,0L152,168z"/>
	<path class="st58" d="M248,192v64l-6.4-44.8C240.6,204.1,243,197,248,192L248,192z"/>
	<path class="st36" d="M801.6,544.5l-0.3-0.1c-0.6-0.2-1.2-0.3-1.8-0.4c0.1,0,0.3,0,0.4,0c-0.3,0-0.6,0-1,0c0,0,0,0,0,0
		c-3.3-0.2-6.5,1.6-8.1,4.6l-2.8,5.3c0,0.1-0.1,0.1-0.1,0.2c-0.1-0.1-0.1-0.1-0.1-0.2l-2.3-4.8c-1.5-3.1-4.6-5-7.8-5
		c-0.1,0-0.3,0-0.4,0h0c-0.2,0-0.4,0-0.6,0c-0.1,0-0.3,0-0.4,0c0.1,0,0.3,0,0.4,0c-0.6,0.1-1.2,0.2-1.8,0.4c-2,0.7-3.8,2-5,3.6
		c-1.2,1.7-1.9,3.7-1.9,5.9c0,1.4,0.5,2.8,1.4,3.9l18.8,21.1l18.8-21.1c0.9-1.1,1.4-2.5,1.4-3.9
		C808.4,549.7,805.7,545.9,801.6,544.5z"/>
	<path class="st59" d="M795.7,547.5l3.6,0.7c1.4,0.3,2.7,1,3.7,2.2l0.7,0.8c0.6,0.6,0.9,1.5,0.9,2.3v1.2c0,1.2-0.4,2.3-1.1,3.2
		l-10.7,13.9l8.8-14.9c0.5-0.8,0.7-1.7,0.7-2.7l0,0c0-0.9-0.3-1.8-1-2.4l-0.9-0.9c-0.3-0.4-0.7-0.7-1.1-0.9L795.7,547.5z"/>
	<polygon class="st60" points="916.5,544 907.7,555.7 896,555.7 904.8,567.4 903.3,579.1 916.5,571.8 929.6,579.1 928.2,567.4 
		937,555.7 925.3,555.7 	"/>
	<path class="st61" d="M916.5,549.4c0.3,0.3,5.7,8.4,5.7,8.4h9.4l-5.4,9.5l3.1-8.1l-7.9,0.4L916.5,549.4z"/>
	<rect id="_x3C_Slice_x3E_" x="128" y="160" class="st62" width="128" height="128"/>
	<rect id="_x3C_Slice_x3E__1_" x="256" y="160" class="st62" width="128" height="128"/>
	<rect id="_x3C_Slice_x3E__2_" x="384" y="160" class="st62" width="128" height="128"/>
	<rect id="_x3C_Slice_x3E__3_" x="512" y="160" class="st62" width="128" height="128"/>
	<rect id="_x3C_Slice_x3E__7_" x="128" y="288" class="st62" width="128" height="128"/>
	<rect id="_x3C_Slice_x3E__6_" x="256" y="288" class="st62" width="128" height="128"/>
	<rect id="_x3C_Slice_x3E__5_" x="384" y="288" class="st62" width="128" height="128"/>
	<rect id="_x3C_Slice_x3E__4_" x="512" y="288" class="st62" width="128" height="128"/>
	<rect id="_x3C_Slice_x3E__10_" x="128" y="416" class="st62" width="128" height="128"/>
	<rect id="_x3C_Slice_x3E__9_" x="256" y="416" class="st62" width="128" height="128"/>
	<rect id="_x3C_Slice_x3E__8_" x="384" y="416" class="st62" width="128" height="128"/>
	<rect id="_x3C_Slice_x3E__13_" x="128" y="544" class="st62" width="128" height="128"/>
	<rect id="_x3C_Slice_x3E__12_" x="256" y="544" class="st62" width="128" height="128"/>
	<rect id="_x3C_Slice_x3E__11_" x="384" y="544" class="st62" width="128" height="128"/>
	<rect id="_x3C_Slice_x3E__14_" x="768" y="160" class="st62" width="48" height="48"/>
	<rect id="_x3C_Slice_x3E__15_" x="896" y="160" class="st62" width="48" height="48"/>
	<rect id="_x3C_Slice_x3E__16_" x="1024" y="160" class="st62" width="48" height="48"/>
	<rect id="_x3C_Slice_x3E__17_" x="768" y="288" class="st62" width="64" height="48"/>
	<rect id="_x3C_Slice_x3E__18_" x="896" y="288" class="st62" width="64" height="48"/>
	<rect id="_x3C_Slice_x3E__19_" x="1024" y="288" class="st62" width="64" height="48"/>
	<rect id="_x3C_Slice_x3E__20_" x="1152" y="288" class="st62" width="64" height="48"/>
	<rect id="_x3C_Slice_x3E__21_" x="768" y="416" class="st62" width="64" height="48"/>
	<rect id="_x3C_Slice_x3E__22_" x="896" y="416" class="st62" width="64" height="48"/>
	<rect id="_x3C_Slice_x3E__23_" x="1024" y="416" class="st62" width="64" height="48"/>
	<rect id="_x3C_Slice_x3E__24_" x="1152" y="416" class="st62" width="64" height="48"/>
	<rect id="_x3C_Slice_x3E__25_" x="768" y="544" class="st62" width="64" height="48"/>
	<rect id="_x3C_Slice_x3E__26_" x="896" y="544" class="st62" width="64" height="48"/>
</g>
<g id="titles">
	<text transform="matrix(1 0 0 1 16 120)" class="st10 st63 st64">2D PLATFORMER OBJECTS</text>
	<text transform="matrix(1 0 0 1 1096 120)" class="st10 st65 st66">TIo AIMAR</text>
</g>
</svg>
