<?xml version="1.0" encoding="utf-8"?>
<!-- Generator: Adobe Illustrator 19.2.1, SVG Export Plug-In . SVG Version: 6.00 Build 0)  -->
<svg version="1.1" xmlns="http://www.w3.org/2000/svg" xmlns:xlink="http://www.w3.org/1999/xlink" x="0px" y="0px"
	 viewBox="0 0 1392 768" style="enable-background:new 0 0 1392 768;" xml:space="preserve">
<style type="text/css">
	.st0{fill:#B6DBDD;}
	.st1{fill:#EBEAE6;}
	.st2{fill:#FFFFFF;}
	.st3{fill:#028CA4;}
	.st4{fill:#C4C3C1;}
	.st5{fill:#00A8C5;}
	.st6{fill:#20667D;}
	.st7{fill:#B7825A;}
	.st8{fill:#875F44;}
	.st9{fill:#633D3F;}
	.st10{fill:#DB336E;}
	.st11{fill:#F14AA5;}
	.st12{font-family:'Impact';}
	.st13{font-size:80px;}
	.st14{font-family:'Aquino-Demo';}
	.st15{font-size:58px;}
	.st16{font-size:48px;}
	.st17{fill:#FDC533;}
	.st18{fill:#DA912A;}
	.st19{fill:#6CA743;}
	.st20{fill:#7BC043;}
	.st21{fill:none;}
	.st22{fill:#51C6DA;}
	.st23{fill:#E9F5FA;}
</style>
<g id="bg">
	<rect x="0" y="0" class="st0" width="1392" height="768"/>
</g>
<g id="ground">
	<path class="st1" d="M1240,536v48h-4v-40c0-8.8-7.2-16-16-16c-0.7,0-1.3,0-2,0.1c-7.9,1-14,7.7-14,15.9v40h-8v-48
		c0-12.6,9.7-22.9,22-23.9C1230.3,513.1,1240,523.4,1240,536z"/>
	<polygon class="st2" points="716,456 708,456 708,448 700,448 700,456 692,456 692,464 700,464 700,480 708,480 708,464 716,464 	
		"/>
	<circle class="st3" cx="704" cy="494" r="16"/>
	<rect x="688" y="496" class="st2" width="32" height="32"/>
	<circle class="st3" cx="704" cy="584" r="64"/>
	<rect x="152" y="144" class="st2" width="128" height="128"/>
	<polygon class="st4" points="152,192 168,192 184,192 200,192 216,192 232,192 248,192 264,192 280,192 280,160 152,160 	"/>
	<polygon class="st5" points="280,184 280,152 152,152 152,184 168,184 	"/>
	<polygon class="st6" points="152,176 168,176 183.7,176 199.7,176 216,176 231.7,176 250,176 266,176 280,176 280,144 152,144 	"/>
	<rect x="152" y="144" class="st5" width="128" height="4"/>
	<path class="st4" d="M168,204c0,1.1-0.5,2.1-1.2,2.8c-0.7,0.7-1.7,1.2-2.8,1.2h-12v-8h12C166.2,200,168,201.8,168,204z"/>
	<path class="st4" d="M264,204c0,1.1,0.5,2.1,1.2,2.8c0.7,0.7,1.7,1.2,2.8,1.2h12v-8h-12C265.8,200,264,201.8,264,204z"/>
	<path class="st4" d="M244,208h-16c-2.2,0-4-1.8-4-4l0,0c0-2.2,1.8-4,4-4h16c2.2,0,4,1.8,4,4l0,0C248,206.2,246.2,208,244,208z"/>
	<path class="st4" d="M204,208h-16c-2.2,0-4-1.8-4-4l0,0c0-2.2,1.8-4,4-4h16c2.2,0,4,1.8,4,4l0,0C208,206.2,206.2,208,204,208z"/>
	<path class="st4" d="M180,224h-16c-2.2,0-4-1.8-4-4l0,0c0-2.2,1.8-4,4-4h16c2.2,0,4,1.8,4,4l0,0C184,222.2,182.2,224,180,224z"/>
	<path class="st4" d="M268,224h-16c-2.2,0-4-1.8-4-4l0,0c0-2.2,1.8-4,4-4h16c2.2,0,4,1.8,4,4l0,0C272,222.2,270.2,224,268,224z"/>
	<path class="st4" d="M228,224h-24c-2.2,0-4-1.8-4-4l0,0c0-2.2,1.8-4,4-4h24c2.2,0,4,1.8,4,4l0,0C232,222.2,230.2,224,228,224z"/>
	<path class="st4" d="M168,236c0,1.1-0.5,2.1-1.2,2.8c-0.7,0.7-1.7,1.2-2.8,1.2h-12v-8h12C166.2,232,168,233.8,168,236z"/>
	<path class="st4" d="M264,236c0,1.1,0.5,2.1,1.2,2.8c0.7,0.7,1.7,1.2,2.8,1.2h12v-8h-12C265.8,232,264,233.8,264,236z"/>
	<path class="st4" d="M244,240h-16c-2.2,0-4-1.8-4-4l0,0c0-2.2,1.8-4,4-4h16c2.2,0,4,1.8,4,4l0,0C248,238.2,246.2,240,244,240z"/>
	<path class="st4" d="M204,240h-16c-2.2,0-4-1.8-4-4l0,0c0-2.2,1.8-4,4-4h16c2.2,0,4,1.8,4,4l0,0C208,238.2,206.2,240,204,240z"/>
	<path class="st4" d="M180,256h-16c-2.2,0-4-1.8-4-4l0,0c0-2.2,1.8-4,4-4h16c2.2,0,4,1.8,4,4l0,0C184,254.2,182.2,256,180,256z"/>
	<path class="st4" d="M268,256h-16c-2.2,0-4-1.8-4-4l0,0c0-2.2,1.8-4,4-4h16c2.2,0,4,1.8,4,4l0,0C272,254.2,270.2,256,268,256z"/>
	<path class="st4" d="M228,256h-24c-2.2,0-4-1.8-4-4l0,0c0-2.2,1.8-4,4-4h24c2.2,0,4,1.8,4,4l0,0C232,254.2,230.2,256,228,256z"/>
	<path class="st4" d="M168,268c0,1.1-0.5,2.1-1.2,2.8c-0.7,0.7-1.7,1.2-2.8,1.2h-12v-8h12C166.2,264,168,265.8,168,268z"/>
	<path class="st4" d="M264,268c0,1.1,0.5,2.1,1.2,2.8c0.7,0.7,1.7,1.2,2.8,1.2h12v-8h-12C265.8,264,264,265.8,264,268z"/>
	<path class="st4" d="M244,272h-16c-2.2,0-4-1.8-4-4l0,0c0-2.2,1.8-4,4-4h16c2.2,0,4,1.8,4,4l0,0C248,270.2,246.2,272,244,272z"/>
	<path class="st4" d="M204,272h-16c-2.2,0-4-1.8-4-4l0,0c0-2.2,1.8-4,4-4h16c2.2,0,4,1.8,4,4l0,0C208,270.2,206.2,272,204,272z"/>
	<path class="st2" d="M144,144v128H16V160c0-2.9,0.8-5.7,2.1-8c0.9-1.5,2-2.9,3.3-4c2.8-2.5,6.5-4,10.6-4H144z"/>
	<polygon class="st4" points="16,192 32,192 48,192 64,192 80,192 96,192 112,192 128,192 144,192 144,160 16,160 	"/>
	<path class="st5" d="M144,152v32H16v-24c0-2.9,0.8-5.7,2.1-8H144z"/>
	<path class="st6" d="M144,144v32H16v-16c0-2.9,0.8-5.7,2.1-8c0.9-1.5,2-2.9,3.3-4c2.8-2.5,6.5-4,10.6-4H144z"/>
	<path class="st5" d="M144,144v4H21.4c2.8-2.5,6.5-4,10.6-4H144z"/>
	<path class="st4" d="M32,204c0,1.1-0.5,2.1-1.2,2.8c-0.7,0.7-1.7,1.2-2.8,1.2H16v-8h12C30.2,200,32,201.8,32,204z"/>
	<path class="st4" d="M128,204c0,1.1,0.5,2.1,1.2,2.8c0.7,0.7,1.7,1.2,2.8,1.2h12v-8h-12C129.8,200,128,201.8,128,204z"/>
	<path class="st4" d="M108,208H92c-2.2,0-4-1.8-4-4l0,0c0-2.2,1.8-4,4-4h16c2.2,0,4,1.8,4,4l0,0C112,206.2,110.2,208,108,208z"/>
	<path class="st4" d="M68,208H52c-2.2,0-4-1.8-4-4l0,0c0-2.2,1.8-4,4-4h16c2.2,0,4,1.8,4,4l0,0C72,206.2,70.2,208,68,208z"/>
	<path class="st4" d="M44,224H28c-2.2,0-4-1.8-4-4l0,0c0-2.2,1.8-4,4-4h16c2.2,0,4,1.8,4,4l0,0C48,222.2,46.2,224,44,224z"/>
	<path class="st4" d="M132,224h-16c-2.2,0-4-1.8-4-4l0,0c0-2.2,1.8-4,4-4h16c2.2,0,4,1.8,4,4l0,0C136,222.2,134.2,224,132,224z"/>
	<path class="st4" d="M92,224H68c-2.2,0-4-1.8-4-4l0,0c0-2.2,1.8-4,4-4h24c2.2,0,4,1.8,4,4l0,0C96,222.2,94.2,224,92,224z"/>
	<path class="st4" d="M32,236c0,1.1-0.5,2.1-1.2,2.8c-0.7,0.7-1.7,1.2-2.8,1.2H16v-8h12C30.2,232,32,233.8,32,236z"/>
	<path class="st4" d="M128,236c0,1.1,0.5,2.1,1.2,2.8c0.7,0.7,1.7,1.2,2.8,1.2h12v-8h-12C129.8,232,128,233.8,128,236z"/>
	<path class="st4" d="M108,240H92c-2.2,0-4-1.8-4-4l0,0c0-2.2,1.8-4,4-4h16c2.2,0,4,1.8,4,4l0,0C112,238.2,110.2,240,108,240z"/>
	<path class="st4" d="M68,240H52c-2.2,0-4-1.8-4-4l0,0c0-2.2,1.8-4,4-4h16c2.2,0,4,1.8,4,4l0,0C72,238.2,70.2,240,68,240z"/>
	<path class="st4" d="M44,256H28c-2.2,0-4-1.8-4-4l0,0c0-2.2,1.8-4,4-4h16c2.2,0,4,1.8,4,4l0,0C48,254.2,46.2,256,44,256z"/>
	<path class="st4" d="M132,256h-16c-2.2,0-4-1.8-4-4l0,0c0-2.2,1.8-4,4-4h16c2.2,0,4,1.8,4,4l0,0C136,254.2,134.2,256,132,256z"/>
	<path class="st4" d="M92,256H68c-2.2,0-4-1.8-4-4l0,0c0-2.2,1.8-4,4-4h24c2.2,0,4,1.8,4,4l0,0C96,254.2,94.2,256,92,256z"/>
	<path class="st4" d="M32,268c0,1.1-0.5,2.1-1.2,2.8c-0.7,0.7-1.7,1.2-2.8,1.2H16v-8h12C30.2,264,32,265.8,32,268z"/>
	<path class="st4" d="M128,268c0,1.1,0.5,2.1,1.2,2.8c0.7,0.7,1.7,1.2,2.8,1.2h12v-8h-12C129.8,264,128,265.8,128,268z"/>
	<path class="st4" d="M108,272H92c-2.2,0-4-1.8-4-4l0,0c0-2.2,1.8-4,4-4h16c2.2,0,4,1.8,4,4l0,0C112,270.2,110.2,272,108,272z"/>
	<path class="st4" d="M68,272H52c-2.2,0-4-1.8-4-4l0,0c0-2.2,1.8-4,4-4h16c2.2,0,4,1.8,4,4l0,0C72,270.2,70.2,272,68,272z"/>
	<path class="st2" d="M416,160v112H288V144h112c4.1,0,7.8,1.5,10.6,4c1.3,1.1,2.4,2.5,3.3,4C415.2,154.3,416,157.1,416,160z"/>
	<polygon class="st4" points="288,192 304,192 320,192 336,192 352,192 368,192 384,192 400,192 416,192 416,160 288,160 	"/>
	<path class="st5" d="M416,160v24H288v-32h125.9C415.2,154.3,416,157.1,416,160z"/>
	<path class="st6" d="M416,160v16H288v-32h112c4.1,0,7.8,1.5,10.6,4c1.3,1.1,2.4,2.5,3.3,4C415.2,154.3,416,157.1,416,160z"/>
	<path class="st5" d="M410.6,148H288v-4h112C404.1,144,407.8,145.5,410.6,148z"/>
	<path class="st4" d="M304,204c0,1.1-0.5,2.1-1.2,2.8c-0.7,0.7-1.7,1.2-2.8,1.2h-12v-8h12C302.2,200,304,201.8,304,204z"/>
	<path class="st4" d="M400,204c0,1.1,0.5,2.1,1.2,2.8c0.7,0.7,1.7,1.2,2.8,1.2h12v-8h-12C401.8,200,400,201.8,400,204z"/>
	<path class="st4" d="M380,208h-16c-2.2,0-4-1.8-4-4l0,0c0-2.2,1.8-4,4-4h16c2.2,0,4,1.8,4,4l0,0C384,206.2,382.2,208,380,208z"/>
	<path class="st4" d="M340,208h-16c-2.2,0-4-1.8-4-4l0,0c0-2.2,1.8-4,4-4h16c2.2,0,4,1.8,4,4l0,0C344,206.2,342.2,208,340,208z"/>
	<path class="st4" d="M316,224h-16c-2.2,0-4-1.8-4-4l0,0c0-2.2,1.8-4,4-4h16c2.2,0,4,1.8,4,4l0,0C320,222.2,318.2,224,316,224z"/>
	<path class="st4" d="M404,224h-16c-2.2,0-4-1.8-4-4l0,0c0-2.2,1.8-4,4-4h16c2.2,0,4,1.8,4,4l0,0C408,222.2,406.2,224,404,224z"/>
	<path class="st4" d="M364,224h-24c-2.2,0-4-1.8-4-4l0,0c0-2.2,1.8-4,4-4h24c2.2,0,4,1.8,4,4l0,0C368,222.2,366.2,224,364,224z"/>
	<path class="st4" d="M304,236c0,1.1-0.5,2.1-1.2,2.8c-0.7,0.7-1.7,1.2-2.8,1.2h-12v-8h12C302.2,232,304,233.8,304,236z"/>
	<path class="st4" d="M400,236c0,1.1,0.5,2.1,1.2,2.8c0.7,0.7,1.7,1.2,2.8,1.2h12v-8h-12C401.8,232,400,233.8,400,236z"/>
	<path class="st4" d="M380,240h-16c-2.2,0-4-1.8-4-4l0,0c0-2.2,1.8-4,4-4h16c2.2,0,4,1.8,4,4l0,0C384,238.2,382.2,240,380,240z"/>
	<path class="st4" d="M340,240h-16c-2.2,0-4-1.8-4-4l0,0c0-2.2,1.8-4,4-4h16c2.2,0,4,1.8,4,4l0,0C344,238.2,342.2,240,340,240z"/>
	<path class="st4" d="M316,256h-16c-2.2,0-4-1.8-4-4l0,0c0-2.2,1.8-4,4-4h16c2.2,0,4,1.8,4,4l0,0C320,254.2,318.2,256,316,256z"/>
	<path class="st4" d="M404,256h-16c-2.2,0-4-1.8-4-4l0,0c0-2.2,1.8-4,4-4h16c2.2,0,4,1.8,4,4l0,0C408,254.2,406.2,256,404,256z"/>
	<path class="st4" d="M364,256h-24c-2.2,0-4-1.8-4-4l0,0c0-2.2,1.8-4,4-4h24c2.2,0,4,1.8,4,4l0,0C368,254.2,366.2,256,364,256z"/>
	<path class="st4" d="M304,268c0,1.1-0.5,2.1-1.2,2.8c-0.7,0.7-1.7,1.2-2.8,1.2h-12v-8h12C302.2,264,304,265.8,304,268z"/>
	<path class="st4" d="M400,268c0,1.1,0.5,2.1,1.2,2.8c0.7,0.7,1.7,1.2,2.8,1.2h12v-8h-12C401.8,264,400,265.8,400,268z"/>
	<path class="st4" d="M380,272h-16c-2.2,0-4-1.8-4-4l0,0c0-2.2,1.8-4,4-4h16c2.2,0,4,1.8,4,4l0,0C384,270.2,382.2,272,380,272z"/>
	<path class="st4" d="M340,272h-16c-2.2,0-4-1.8-4-4l0,0c0-2.2,1.8-4,4-4h16c2.2,0,4,1.8,4,4l0,0C344,270.2,342.2,272,340,272z"/>
	<path class="st2" d="M144,296v96c0,2.9-0.8,5.6-2.1,8c-0.7,1.2-1.6,2.3-2.5,3.3c-2.3,2.3-5.3,3.9-8.6,4.4c0.4,0.2,0.9,0.2,1.3,0.2
		H28c0.5,0,0.9-0.1,1.3-0.2c-3.3-0.6-6.3-2.2-8.6-4.4c-1-1-1.8-2.1-2.5-3.3c-1.4-2.4-2.1-5.1-2.1-8v-96c0-2.9,0.8-5.7,2.1-8
		c0.9-1.5,2-2.9,3.3-4c2.8-2.5,6.5-4,10.6-4h96c4.1,0,7.8,1.5,10.6,4c1.3,1.1,2.4,2.5,3.3,4C143.2,290.3,144,293.1,144,296z"/>
	<polygon class="st4" points="16,328 32,328 48,328 64,328 80,328 96,328 112,328 128,328 144,328 144,296 16,296 	"/>
	<path class="st5" d="M144,296v24H16v-24c0-2.9,0.8-5.7,2.1-8h123.7C143.2,290.3,144,293.1,144,296z"/>
	<path class="st6" d="M144,296v16H16v-16c0-2.9,0.8-5.7,2.1-8c0.9-1.5,2-2.9,3.3-4c2.8-2.5,6.5-4,10.6-4h96c4.1,0,7.8,1.5,10.6,4
		c1.3,1.1,2.4,2.5,3.3,4C143.2,290.3,144,293.1,144,296z"/>
	<path class="st5" d="M138.6,284H21.4c2.8-2.5,6.5-4,10.6-4h96C132.1,280,135.8,281.5,138.6,284z"/>
	<path class="st4" d="M32,340c0,1.1-0.5,2.1-1.2,2.8c-0.7,0.7-1.7,1.2-2.8,1.2H16v-8h12C30.2,336,32,337.8,32,340z"/>
	<path class="st4" d="M128,340c0,1.1,0.5,2.1,1.2,2.8c0.7,0.7,1.7,1.2,2.8,1.2h12v-8h-12C129.8,336,128,337.8,128,340z"/>
	<path class="st4" d="M108,344H92c-2.2,0-4-1.8-4-4l0,0c0-2.2,1.8-4,4-4h16c2.2,0,4,1.8,4,4l0,0C112,342.2,110.2,344,108,344z"/>
	<path class="st4" d="M68,344H52c-2.2,0-4-1.8-4-4l0,0c0-2.2,1.8-4,4-4h16c2.2,0,4,1.8,4,4l0,0C72,342.2,70.2,344,68,344z"/>
	<path class="st4" d="M44,360H28c-2.2,0-4-1.8-4-4l0,0c0-2.2,1.8-4,4-4h16c2.2,0,4,1.8,4,4l0,0C48,358.2,46.2,360,44,360z"/>
	<path class="st4" d="M132,360h-16c-2.2,0-4-1.8-4-4l0,0c0-2.2,1.8-4,4-4h16c2.2,0,4,1.8,4,4l0,0C136,358.2,134.2,360,132,360z"/>
	<path class="st4" d="M92,360H68c-2.2,0-4-1.8-4-4l0,0c0-2.2,1.8-4,4-4h24c2.2,0,4,1.8,4,4l0,0C96,358.2,94.2,360,92,360z"/>
	<path class="st4" d="M32,372c0,1.1-0.5,2.1-1.2,2.8c-0.7,0.7-1.7,1.2-2.8,1.2H16v-8h12C30.2,368,32,369.8,32,372z"/>
	<path class="st4" d="M128,372c0,1.1,0.5,2.1,1.2,2.8c0.7,0.7,1.7,1.2,2.8,1.2h12v-8h-12C129.8,368,128,369.8,128,372z"/>
	<path class="st4" d="M108,376H92c-2.2,0-4-1.8-4-4l0,0c0-2.2,1.8-4,4-4h16c2.2,0,4,1.8,4,4l0,0C112,374.2,110.2,376,108,376z"/>
	<path class="st4" d="M68,376H52c-2.2,0-4-1.8-4-4l0,0c0-2.2,1.8-4,4-4h16c2.2,0,4,1.8,4,4l0,0C72,374.2,70.2,376,68,376z"/>
	<path class="st4" d="M44,392H28c-2.2,0-4-1.8-4-4l0,0c0-2.2,1.8-4,4-4h16c2.2,0,4,1.8,4,4l0,0C48,390.2,46.2,392,44,392z"/>
	<path class="st4" d="M132,392h-16c-2.2,0-4-1.8-4-4l0,0c0-2.2,1.8-4,4-4h16c2.2,0,4,1.8,4,4l0,0C136,390.2,134.2,392,132,392z"/>
	<path class="st4" d="M92,392H68c-2.2,0-4-1.8-4-4l0,0c0-2.2,1.8-4,4-4h24c2.2,0,4,1.8,4,4l0,0C96,390.2,94.2,392,92,392z"/>
	<path class="st4" d="M32,404c0,1.1-0.5,2.1-1.2,2.8c-0.4,0.4-0.9,0.7-1.5,0.9c-3.3-0.6-6.3-2.2-8.6-4.4c-1-1-1.8-2.1-2.5-3.3H28
		C30.2,400,32,401.8,32,404z"/>
	<path class="st4" d="M141.9,400c-0.7,1.2-1.6,2.3-2.5,3.3c-2.3,2.3-5.3,3.9-8.6,4.4c-0.6-0.2-1.1-0.5-1.5-0.9
		c-0.7-0.7-1.2-1.7-1.2-2.8c0-2.2,1.8-4,4-4H141.9z"/>
	<path class="st4" d="M108,408H92c-2.2,0-4-1.8-4-4l0,0c0-2.2,1.8-4,4-4h16c2.2,0,4,1.8,4,4l0,0C112,406.2,110.2,408,108,408z"/>
	<path class="st4" d="M68,408H52c-2.2,0-4-1.8-4-4l0,0c0-2.2,1.8-4,4-4h16c2.2,0,4,1.8,4,4l0,0C72,406.2,70.2,408,68,408z"/>
	<path class="st2" d="M280,296v96c0,2.9-0.8,5.6-2.1,8c-0.7,1.2-1.6,2.3-2.5,3.3c-2.3,2.3-5.3,3.9-8.6,4.4c0.4,0.2,0.9,0.2,1.3,0.2
		H164c0.5,0,0.9-0.1,1.3-0.2c-3.3-0.6-6.3-2.2-8.6-4.4c-1-1-1.8-2.1-2.5-3.3c-1.4-2.4-2.1-5.1-2.1-8v-96c0-8.8,7.2-16,16-16h96
		C272.8,280,280,287.2,280,296z"/>
	<path class="st4" d="M168,404c0,1.1-0.5,2.1-1.2,2.8c-0.4,0.4-0.9,0.7-1.5,0.9c-3.3-0.6-6.3-2.2-8.6-4.4c-1-1-1.8-2.1-2.5-3.3h9.9
		C166.2,400,168,401.8,168,404z"/>
	<path class="st4" d="M277.9,400c-0.7,1.2-1.6,2.3-2.5,3.3c-2.3,2.3-5.3,3.9-8.6,4.4c-0.6-0.2-1.1-0.5-1.5-0.9
		c-0.7-0.7-1.2-1.7-1.2-2.8c0-2.2,1.8-4,4-4H277.9z"/>
	<path class="st4" d="M244,408h-16c-2.2,0-4-1.8-4-4l0,0c0-2.2,1.8-4,4-4h16c2.2,0,4,1.8,4,4l0,0C248,406.2,246.2,408,244,408z"/>
	<path class="st4" d="M204,408h-16c-2.2,0-4-1.8-4-4l0,0c0-2.2,1.8-4,4-4h16c2.2,0,4,1.8,4,4l0,0C208,406.2,206.2,408,204,408z"/>
	<path class="st4" d="M168,308c0,1.1-0.5,2.1-1.2,2.8c-0.7,0.7-1.7,1.2-2.8,1.2h-12v-8h12C166.2,304,168,305.8,168,308z"/>
	<path class="st4" d="M264,308c0,1.1,0.5,2.1,1.2,2.8c0.7,0.7,1.7,1.2,2.8,1.2h12v-8h-12C265.8,304,264,305.8,264,308z"/>
	<path class="st4" d="M244,312h-16c-2.2,0-4-1.8-4-4l0,0c0-2.2,1.8-4,4-4h16c2.2,0,4,1.8,4,4l0,0C248,310.2,246.2,312,244,312z"/>
	<path class="st4" d="M204,312h-16c-2.2,0-4-1.8-4-4l0,0c0-2.2,1.8-4,4-4h16c2.2,0,4,1.8,4,4l0,0C208,310.2,206.2,312,204,312z"/>
	<path class="st4" d="M180,296h-16c-2.2,0-4-1.8-4-4l0,0c0-2.2,1.8-4,4-4h16c2.2,0,4,1.8,4,4l0,0C184,294.2,182.2,296,180,296z"/>
	<path class="st4" d="M268,296h-16c-2.2,0-4-1.8-4-4l0,0c0-2.2,1.8-4,4-4h16c2.2,0,4,1.8,4,4l0,0C272,294.2,270.2,296,268,296z"/>
	<path class="st4" d="M228,296h-24c-2.2,0-4-1.8-4-4l0,0c0-2.2,1.8-4,4-4h24c2.2,0,4,1.8,4,4l0,0C232,294.2,230.2,296,228,296z"/>
	<path class="st4" d="M168,340c0,1.1-0.5,2.1-1.2,2.8c-0.7,0.7-1.7,1.2-2.8,1.2h-12v-8h12C166.2,336,168,337.8,168,340z"/>
	<path class="st4" d="M264,340c0,1.1,0.5,2.1,1.2,2.8c0.7,0.7,1.7,1.2,2.8,1.2h12v-8h-12C265.8,336,264,337.8,264,340z"/>
	<path class="st4" d="M244,344h-16c-2.2,0-4-1.8-4-4l0,0c0-2.2,1.8-4,4-4h16c2.2,0,4,1.8,4,4l0,0C248,342.2,246.2,344,244,344z"/>
	<path class="st4" d="M204,344h-16c-2.2,0-4-1.8-4-4l0,0c0-2.2,1.8-4,4-4h16c2.2,0,4,1.8,4,4l0,0C208,342.2,206.2,344,204,344z"/>
	<path class="st4" d="M180,328h-16c-2.2,0-4-1.8-4-4l0,0c0-2.2,1.8-4,4-4h16c2.2,0,4,1.8,4,4l0,0C184,326.2,182.2,328,180,328z"/>
	<path class="st4" d="M268,328h-16c-2.2,0-4-1.8-4-4l0,0c0-2.2,1.8-4,4-4h16c2.2,0,4,1.8,4,4l0,0C272,326.2,270.2,328,268,328z"/>
	<path class="st4" d="M228,328h-24c-2.2,0-4-1.8-4-4l0,0c0-2.2,1.8-4,4-4h24c2.2,0,4,1.8,4,4l0,0C232,326.2,230.2,328,228,328z"/>
	<path class="st4" d="M168,372c0,1.1-0.5,2.1-1.2,2.8c-0.7,0.7-1.7,1.2-2.8,1.2h-12v-8h12C166.2,368,168,369.8,168,372z"/>
	<path class="st4" d="M264,372c0,1.1,0.5,2.1,1.2,2.8c0.7,0.7,1.7,1.2,2.8,1.2h12v-8h-12C265.8,368,264,369.8,264,372z"/>
	<path class="st4" d="M244,376h-16c-2.2,0-4-1.8-4-4l0,0c0-2.2,1.8-4,4-4h16c2.2,0,4,1.8,4,4l0,0C248,374.2,246.2,376,244,376z"/>
	<path class="st4" d="M204,376h-16c-2.2,0-4-1.8-4-4l0,0c0-2.2,1.8-4,4-4h16c2.2,0,4,1.8,4,4l0,0C208,374.2,206.2,376,204,376z"/>
	<path class="st4" d="M180,360h-16c-2.2,0-4-1.8-4-4l0,0c0-2.2,1.8-4,4-4h16c2.2,0,4,1.8,4,4l0,0C184,358.2,182.2,360,180,360z"/>
	<path class="st4" d="M268,360h-16c-2.2,0-4-1.8-4-4l0,0c0-2.2,1.8-4,4-4h16c2.2,0,4,1.8,4,4l0,0C272,358.2,270.2,360,268,360z"/>
	<path class="st4" d="M228,360h-24c-2.2,0-4-1.8-4-4l0,0c0-2.2,1.8-4,4-4h24c2.2,0,4,1.8,4,4l0,0C232,358.2,230.2,360,228,360z"/>
	<path class="st4" d="M180,392h-16c-2.2,0-4-1.8-4-4l0,0c0-2.2,1.8-4,4-4h16c2.2,0,4,1.8,4,4l0,0C184,390.2,182.2,392,180,392z"/>
	<path class="st4" d="M268,392h-16c-2.2,0-4-1.8-4-4l0,0c0-2.2,1.8-4,4-4h16c2.2,0,4,1.8,4,4l0,0C272,390.2,270.2,392,268,392z"/>
	<path class="st4" d="M228,392h-24c-2.2,0-4-1.8-4-4l0,0c0-2.2,1.8-4,4-4h24c2.2,0,4,1.8,4,4l0,0C232,390.2,230.2,392,228,392z"/>
	<rect x="288" y="280" class="st2" width="128" height="128"/>
	<path class="st4" d="M304,404c0,1.1-0.5,2.1-1.2,2.8c-0.7,0.7-1.7,1.2-2.8,1.2h-12v-8h12C302.2,400,304,401.8,304,404z"/>
	<path class="st4" d="M400,404c0,1.1,0.5,2.1,1.2,2.8c0.7,0.7,1.7,1.2,2.8,1.2h12v-8h-12C401.8,400,400,401.8,400,404z"/>
	<path class="st4" d="M380,408h-16c-2.2,0-4-1.8-4-4l0,0c0-2.2,1.8-4,4-4h16c2.2,0,4,1.8,4,4l0,0C384,406.2,382.2,408,380,408z"/>
	<path class="st4" d="M340,408h-16c-2.2,0-4-1.8-4-4l0,0c0-2.2,1.8-4,4-4h16c2.2,0,4,1.8,4,4l0,0C344,406.2,342.2,408,340,408z"/>
	<path class="st4" d="M304,308c0,1.1-0.5,2.1-1.2,2.8c-0.7,0.7-1.7,1.2-2.8,1.2h-12v-8h12C302.2,304,304,305.8,304,308z"/>
	<path class="st4" d="M400,308c0,1.1,0.5,2.1,1.2,2.8c0.7,0.7,1.7,1.2,2.8,1.2h12v-8h-12C401.8,304,400,305.8,400,308z"/>
	<path class="st4" d="M380,312h-16c-2.2,0-4-1.8-4-4l0,0c0-2.2,1.8-4,4-4h16c2.2,0,4,1.8,4,4l0,0C384,310.2,382.2,312,380,312z"/>
	<path class="st4" d="M340,312h-16c-2.2,0-4-1.8-4-4l0,0c0-2.2,1.8-4,4-4h16c2.2,0,4,1.8,4,4l0,0C344,310.2,342.2,312,340,312z"/>
	<path class="st4" d="M316,296h-16c-2.2,0-4-1.8-4-4l0,0c0-2.2,1.8-4,4-4h16c2.2,0,4,1.8,4,4l0,0C320,294.2,318.2,296,316,296z"/>
	<path class="st4" d="M404,296h-16c-2.2,0-4-1.8-4-4l0,0c0-2.2,1.8-4,4-4h16c2.2,0,4,1.8,4,4l0,0C408,294.2,406.2,296,404,296z"/>
	<path class="st4" d="M364,296h-24c-2.2,0-4-1.8-4-4l0,0c0-2.2,1.8-4,4-4h24c2.2,0,4,1.8,4,4l0,0C368,294.2,366.2,296,364,296z"/>
	<path class="st4" d="M304,340c0,1.1-0.5,2.1-1.2,2.8c-0.7,0.7-1.7,1.2-2.8,1.2h-12v-8h12C302.2,336,304,337.8,304,340z"/>
	<path class="st4" d="M400,340c0,1.1,0.5,2.1,1.2,2.8c0.7,0.7,1.7,1.2,2.8,1.2h12v-8h-12C401.8,336,400,337.8,400,340z"/>
	<path class="st4" d="M380,344h-16c-2.2,0-4-1.8-4-4l0,0c0-2.2,1.8-4,4-4h16c2.2,0,4,1.8,4,4l0,0C384,342.2,382.2,344,380,344z"/>
	<path class="st4" d="M340,344h-16c-2.2,0-4-1.8-4-4l0,0c0-2.2,1.8-4,4-4h16c2.2,0,4,1.8,4,4l0,0C344,342.2,342.2,344,340,344z"/>
	<path class="st4" d="M316,328h-16c-2.2,0-4-1.8-4-4l0,0c0-2.2,1.8-4,4-4h16c2.2,0,4,1.8,4,4l0,0C320,326.2,318.2,328,316,328z"/>
	<path class="st4" d="M404,328h-16c-2.2,0-4-1.8-4-4l0,0c0-2.2,1.8-4,4-4h16c2.2,0,4,1.8,4,4l0,0C408,326.2,406.2,328,404,328z"/>
	<path class="st4" d="M364,328h-24c-2.2,0-4-1.8-4-4l0,0c0-2.2,1.8-4,4-4h24c2.2,0,4,1.8,4,4l0,0C368,326.2,366.2,328,364,328z"/>
	<path class="st4" d="M304,372c0,1.1-0.5,2.1-1.2,2.8c-0.7,0.7-1.7,1.2-2.8,1.2h-12v-8h12C302.2,368,304,369.8,304,372z"/>
	<path class="st4" d="M400,372c0,1.1,0.5,2.1,1.2,2.8c0.7,0.7,1.7,1.2,2.8,1.2h12v-8h-12C401.8,368,400,369.8,400,372z"/>
	<path class="st4" d="M380,376h-16c-2.2,0-4-1.8-4-4l0,0c0-2.2,1.8-4,4-4h16c2.2,0,4,1.8,4,4l0,0C384,374.2,382.2,376,380,376z"/>
	<path class="st4" d="M340,376h-16c-2.2,0-4-1.8-4-4l0,0c0-2.2,1.8-4,4-4h16c2.2,0,4,1.8,4,4l0,0C344,374.2,342.2,376,340,376z"/>
	<path class="st4" d="M316,360h-16c-2.2,0-4-1.8-4-4l0,0c0-2.2,1.8-4,4-4h16c2.2,0,4,1.8,4,4l0,0C320,358.2,318.2,360,316,360z"/>
	<path class="st4" d="M404,360h-16c-2.2,0-4-1.8-4-4l0,0c0-2.2,1.8-4,4-4h16c2.2,0,4,1.8,4,4l0,0C408,358.2,406.2,360,404,360z"/>
	<path class="st4" d="M364,360h-24c-2.2,0-4-1.8-4-4l0,0c0-2.2,1.8-4,4-4h24c2.2,0,4,1.8,4,4l0,0C368,358.2,366.2,360,364,360z"/>
	<path class="st4" d="M316,392h-16c-2.2,0-4-1.8-4-4l0,0c0-2.2,1.8-4,4-4h16c2.2,0,4,1.8,4,4l0,0C320,390.2,318.2,392,316,392z"/>
	<path class="st4" d="M404,392h-16c-2.2,0-4-1.8-4-4l0,0c0-2.2,1.8-4,4-4h16c2.2,0,4,1.8,4,4l0,0C408,390.2,406.2,392,404,392z"/>
	<path class="st4" d="M364,392h-24c-2.2,0-4-1.8-4-4l0,0c0-2.2,1.8-4,4-4h24c2.2,0,4,1.8,4,4l0,0C368,390.2,366.2,392,364,392z"/>
	<path class="st2" d="M552,144v128h-16c-2.6,0-5.3-0.1-7.9-0.3c-2.6-0.2-5.1-0.4-7.6-0.8c-0.4,0-0.8-0.1-1.1-0.2
		c-0.2,0-0.3,0-0.4-0.1c-2.8-0.4-5.6-1-8.4-1.6c-4.5-1-9-2.4-13.3-4c-0.6-0.2-1.1-0.4-1.7-0.6c-6-2.3-11.8-5.2-17.3-8.5H476
		c-2.2,0-4-1.8-4-4v-0.1c-1.5-1-2.9-2.1-4.4-3.2c-1.9-1.5-3.8-3-5.7-4.7c-1.9-1.6-3.7-3.3-5.4-5.1c-0.8-0.8-1.5-1.5-2.2-2.3l0,0
		c-3.7-4-7.1-8.2-10.2-12.6c-1.8-2.6-3.5-5.3-5.1-8c-0.9-1.5-1.7-3-2.5-4.5c-0.6-1.2-1.2-2.3-1.7-3.5c-1.2-2.5-2.3-5-3.3-7.5
		c-0.1-0.1-0.1-0.3-0.2-0.5c-1-2.6-1.9-5.3-2.7-8c-0.4-1.2-0.7-2.4-1-3.6c-0.4-1.4-0.7-2.9-1-4.4c-0.2-0.7-0.3-1.4-0.5-2.1
		c-0.4-1.9-0.7-3.9-1-5.9c0-0.3-0.1-0.7-0.1-1c-0.7-4.9-1-9.9-1-15v-16H552z"/>
	<path class="st4" d="M552,160v32H428.6c-0.4-1.2-0.7-2.4-1-3.6c-0.4-1.4-0.7-2.9-1-4.4c-0.2-0.7-0.3-1.4-0.5-2.1
		c-0.4-1.9-0.7-3.9-1-5.9c0-0.3-0.1-0.7-0.1-1c-0.7-4.9-1-9.9-1-15H552z"/>
	<path class="st5" d="M552,152v32H426.6c-0.2-0.7-0.3-1.4-0.5-2.1c-0.4-1.9-0.7-3.9-1-5.9c0-0.3-0.1-0.7-0.1-1c-0.7-4.9-1-9.9-1-15
		v-8H552z"/>
	<path class="st6" d="M552,144v32H425.1c0-0.3-0.1-0.7-0.1-1c-0.7-4.9-1-9.9-1-15v-16H552z"/>
	<rect x="424" y="144" class="st5" width="128" height="4"/>
	<path class="st4" d="M440,204c0,1.1-0.5,2.1-1.2,2.8c-0.7,0.7-1.7,1.2-2.8,1.2h-1.2c-1.2-2.5-2.3-5-3.3-7.5
		c-0.1-0.1-0.1-0.3-0.2-0.5h4.6C438.2,200,440,201.8,440,204z"/>
	<path class="st4" d="M536,204c0,1.1,0.5,2.1,1.2,2.8c0.7,0.7,1.7,1.2,2.8,1.2h12v-8h-12C537.8,200,536,201.8,536,204z"/>
	<path class="st4" d="M516,208h-16c-2.2,0-4-1.8-4-4l0,0c0-2.2,1.8-4,4-4h16c2.2,0,4,1.8,4,4l0,0C520,206.2,518.2,208,516,208z"/>
	<path class="st4" d="M476,208h-16c-2.2,0-4-1.8-4-4l0,0c0-2.2,1.8-4,4-4h16c2.2,0,4,1.8,4,4l0,0C480,206.2,478.2,208,476,208z"/>
	<path class="st4" d="M456,220c0,1.1-0.5,2.1-1.2,2.8c-0.7,0.7-1.7,1.2-2.8,1.2h-7.9c-1.8-2.6-3.5-5.3-5.1-8h13
		C454.2,216,456,217.8,456,220z"/>
	<path class="st4" d="M540,224h-16c-2.2,0-4-1.8-4-4l0,0c0-2.2,1.8-4,4-4h16c2.2,0,4,1.8,4,4l0,0C544,222.2,542.2,224,540,224z"/>
	<path class="st4" d="M500,224h-24c-2.2,0-4-1.8-4-4l0,0c0-2.2,1.8-4,4-4h24c2.2,0,4,1.8,4,4l0,0C504,222.2,502.2,224,500,224z"/>
	<path class="st4" d="M536,236c0,1.1,0.5,2.1,1.2,2.8c0.7,0.7,1.7,1.2,2.8,1.2h12v-8h-12C537.8,232,536,233.8,536,236z"/>
	<path class="st4" d="M516,240h-16c-2.2,0-4-1.8-4-4l0,0c0-2.2,1.8-4,4-4h16c2.2,0,4,1.8,4,4l0,0C520,238.2,518.2,240,516,240z"/>
	<path class="st4" d="M476,240h-16c-2.2,0-4-1.8-4-4l0,0c0-2.2,1.8-4,4-4h16c2.2,0,4,1.8,4,4l0,0C480,238.2,478.2,240,476,240z"/>
	<path class="st4" d="M540,256h-16c-2.2,0-4-1.8-4-4l0,0c0-2.2,1.8-4,4-4h16c2.2,0,4,1.8,4,4l0,0C544,254.2,542.2,256,540,256z"/>
	<path class="st4" d="M504,252c0,1.1-0.5,2.1-1.2,2.8c-0.7,0.7-1.7,1.2-2.8,1.2h-24c-2.2,0-4-1.8-4-4v-0.1c0-1.1,0.5-2,1.2-2.8
		c0.7-0.7,1.7-1.2,2.8-1.2h24C502.2,248,504,249.8,504,252z"/>
	<path class="st4" d="M536,268c0,1.1,0.5,2.1,1.2,2.8c0.7,0.7,1.7,1.2,2.8,1.2h12v-8h-12C537.8,264,536,265.8,536,268z"/>
	<path class="st4" d="M520,268c0,1-0.4,2-1,2.7c-2.8-0.4-5.6-1-8.4-1.6c-4.5-1-9-2.4-13.3-4c0.7-0.7,1.7-1.1,2.8-1.1h16
		C518.2,264,520,265.8,520,268z"/>
	<path class="st2" d="M688,144v16c0,5.1-0.3,10.1-1,15c0,0.3-0.1,0.7-0.1,1c-0.3,2-0.6,3.9-1,5.9c-0.1,0.7-0.3,1.4-0.5,2.1
		c-0.3,1.5-0.7,2.9-1,4.4c-0.3,1.2-0.7,2.4-1,3.6c-0.8,2.7-1.7,5.4-2.7,8c0,0.2-0.1,0.3-0.2,0.5c-1,2.6-2.1,5.1-3.3,7.5
		c-0.6,1.2-1.1,2.3-1.7,3.5c-0.8,1.5-1.6,3-2.5,4.5c-1.6,2.7-3.3,5.4-5.1,8c-3.1,4.5-6.5,8.7-10.2,12.6l0,0
		c-0.7,0.8-1.5,1.5-2.2,2.3c-1.8,1.8-3.6,3.5-5.4,5.1c-1.8,1.6-3.7,3.2-5.7,4.7c-1.4,1.1-2.9,2.2-4.4,3.2c-2,1.4-4.1,2.8-6.3,4.1
		c-5.5,3.3-11.2,6.1-17.3,8.5c-0.6,0.2-1.1,0.4-1.7,0.6c-4.3,1.6-8.8,2.9-13.3,4h0c-2.8,0.7-5.6,1.2-8.4,1.6c-0.1,0-0.3,0-0.4,0.1h0
		c-0.4,0.1-0.8,0.1-1.1,0.2c-2.5,0.4-5,0.6-7.6,0.8c-2.6,0.2-5.2,0.3-7.9,0.3h-16V144H688z"/>
	<path class="st4" d="M688,160c0,5.1-0.3,10.1-1,15c0,0.3-0.1,0.7-0.1,1c-0.3,2-0.6,3.9-1,5.9c-0.1,0.7-0.3,1.4-0.5,2.1
		c-0.3,1.5-0.7,2.9-1,4.4c-0.3,1.2-0.7,2.4-1,3.6H560v-32H688z"/>
	<path class="st5" d="M688,152v8c0,5.1-0.3,10.1-1,15c0,0.3-0.1,0.7-0.1,1c-0.3,2-0.6,3.9-1,5.9c-0.1,0.7-0.3,1.4-0.5,2.1H560v-32
		H688z"/>
	<path class="st6" d="M688,144v16c0,5.1-0.3,10.1-1,15c0,0.3-0.1,0.7-0.1,1H560v-32H688z"/>
	<rect x="560" y="144" class="st5" width="128" height="4"/>
	<path class="st4" d="M576,204c0,1.1-0.5,2.1-1.2,2.8c-0.7,0.7-1.7,1.2-2.8,1.2h-12v-8h12C574.2,200,576,201.8,576,204z"/>
	<path class="st4" d="M680.6,200c0,0.2-0.1,0.3-0.2,0.5c-1,2.6-2.1,5.1-3.3,7.5H676c-1.1,0-2.1-0.5-2.8-1.2
		c-0.7-0.7-1.2-1.7-1.2-2.8c0-2.2,1.8-4,4-4H680.6z"/>
	<path class="st4" d="M652,208h-16c-2.2,0-4-1.8-4-4l0,0c0-2.2,1.8-4,4-4h16c2.2,0,4,1.8,4,4l0,0C656,206.2,654.2,208,652,208z"/>
	<path class="st4" d="M612,208h-16c-2.2,0-4-1.8-4-4l0,0c0-2.2,1.8-4,4-4h16c2.2,0,4,1.8,4,4l0,0C616,206.2,614.2,208,612,208z"/>
	<path class="st4" d="M588,224h-16c-2.2,0-4-1.8-4-4l0,0c0-2.2,1.8-4,4-4h16c2.2,0,4,1.8,4,4l0,0C592,222.2,590.2,224,588,224z"/>
	<path class="st4" d="M673,216c-1.6,2.7-3.3,5.4-5.1,8H660c-2.2,0-4-1.8-4-4c0-1.1,0.5-2.1,1.2-2.8c0.7-0.7,1.7-1.2,2.8-1.2H673z"/>
	<path class="st4" d="M636,224h-24c-2.2,0-4-1.8-4-4l0,0c0-2.2,1.8-4,4-4h24c2.2,0,4,1.8,4,4l0,0C640,222.2,638.2,224,636,224z"/>
	<path class="st4" d="M576,236c0,1.1-0.5,2.1-1.2,2.8c-0.7,0.7-1.7,1.2-2.8,1.2h-12v-8h12C574.2,232,576,233.8,576,236z"/>
	<path class="st4" d="M652,240h-16c-2.2,0-4-1.8-4-4l0,0c0-2.2,1.8-4,4-4h16c2.2,0,4,1.8,4,4l0,0C656,238.2,654.2,240,652,240z"/>
	<path class="st4" d="M612,240h-16c-2.2,0-4-1.8-4-4l0,0c0-2.2,1.8-4,4-4h16c2.2,0,4,1.8,4,4l0,0C616,238.2,614.2,240,612,240z"/>
	<path class="st4" d="M588,256h-16c-2.2,0-4-1.8-4-4l0,0c0-2.2,1.8-4,4-4h16c2.2,0,4,1.8,4,4l0,0C592,254.2,590.2,256,588,256z"/>
	<path class="st4" d="M640,251.9c-2,1.4-4.1,2.8-6.3,4.1H612c-2.2,0-4-1.8-4-4c0-1.1,0.5-2.1,1.2-2.8c0.7-0.7,1.7-1.2,2.8-1.2h24
		C638.2,248,640,249.8,640,251.9z"/>
	<path class="st4" d="M576,268c0,1.1-0.5,2.1-1.2,2.8c-0.7,0.7-1.7,1.2-2.8,1.2h-12v-8h12C574.2,264,576,265.8,576,268z"/>
	<path class="st4" d="M614.8,265.1c-4.3,1.6-8.8,2.9-13.3,4h0c-2.8,0.7-5.6,1.2-8.4,1.6c-0.6-0.7-1-1.7-1-2.7c0-1.1,0.5-2.1,1.2-2.8
		c0.7-0.7,1.7-1.2,2.8-1.2h16C613.1,264,614,264.4,614.8,265.1z"/>
	<path class="st2" d="M552,280v128h-36c0-2.7-0.1-5.4-0.4-8c0-0.3,0-0.6-0.1-0.9c-0.8-8.1-2.6-15.8-5.3-23.1c-1-2.7-2.1-5.4-3.4-8
		c-1.2-2.4-2.4-4.8-3.8-7.1c-0.3-0.5-0.6-1-1-1.5c-1.6-2.6-3.3-5-5.1-7.4c-0.1-0.2-0.3-0.4-0.4-0.6c-2.3-3-4.8-5.8-7.5-8.5
		c-3.9-3.9-8.1-7.5-12.7-10.6c-1.6-1.1-3.3-2.2-4.9-3.2c-0.6-0.4-1.3-0.8-2-1.2c-1.4-0.8-2.8-1.6-4.3-2.3c-1.1-0.5-2.1-1.1-3.2-1.5
		c-1.1-0.5-2.2-1-3.3-1.4c-2.1-0.9-4.2-1.6-6.4-2.3c-0.5-0.2-0.9-0.3-1.3-0.4c-1.1-0.4-2.2-0.7-3.3-1c-1.5-0.4-3-0.8-4.5-1.1
		c-2.5-0.5-5.1-1-7.7-1.3c-2.4-0.3-4.9-0.5-7.4-0.6c-1.3-0.1-2.6-0.1-3.9-0.1v-36H552z"/>
	<path class="st4" d="M552,296v32h-82.6c-1.4-0.8-2.8-1.6-4.3-2.3c-1.1-0.5-2.1-1.1-3.2-1.5c-1.1-0.5-2.2-1-3.3-1.4
		c-2.1-0.9-4.2-1.6-6.4-2.3c-0.5-0.2-0.9-0.3-1.3-0.4c-1.1-0.4-2.2-0.7-3.3-1c-1.5-0.4-3-0.8-4.5-1.1c-2.5-0.5-5.1-1-7.7-1.3
		c-2.4-0.3-4.9-0.5-7.4-0.6c-1.3-0.1-2.6-0.1-3.9-0.1v-20H552z"/>
	<path class="st5" d="M552,288v32H450.9c-1.1-0.4-2.2-0.7-3.3-1c-1.5-0.4-3-0.8-4.5-1.1c-2.5-0.5-5.1-1-7.7-1.3
		c-2.4-0.3-4.9-0.5-7.4-0.6c-1.3-0.1-2.6-0.1-3.9-0.1v-28H552z"/>
	<polygon class="st6" points="424,312 440,312 455.7,312 471.7,312 488,312 503.7,312 522,312 538,312 552,312 552,280 424,280 	"/>
	<rect x="424" y="280" class="st5" width="128" height="4"/>
	<path class="st4" d="M536,340c0,1.1,0.5,2.1,1.2,2.8c0.7,0.7,1.7,1.2,2.8,1.2h12v-8h-12C537.8,336,536,337.8,536,340z"/>
	<path class="st4" d="M516,344h-16c-2.2,0-4-1.8-4-4l0,0c0-2.2,1.8-4,4-4h16c2.2,0,4,1.8,4,4l0,0C520,342.2,518.2,344,516,344z"/>
	<path class="st4" d="M540,360h-16c-2.2,0-4-1.8-4-4l0,0c0-2.2,1.8-4,4-4h16c2.2,0,4,1.8,4,4l0,0C544,358.2,542.2,360,540,360z"/>
	<path class="st4" d="M504,356c0,1.1-0.5,2.1-1.2,2.8c-0.2,0.2-0.5,0.4-0.7,0.6c-1.6-2.6-3.3-5-5.1-7.4h3
		C502.2,352,504,353.8,504,356z"/>
	<path class="st4" d="M536,372c0,1.1,0.5,2.1,1.2,2.8c0.7,0.7,1.7,1.2,2.8,1.2h12v-8h-12C537.8,368,536,369.8,536,372z"/>
	<path class="st4" d="M520,372c0,1.1-0.5,2.1-1.2,2.8c-0.7,0.7-1.7,1.2-2.8,1.2h-5.7c-1-2.7-2.1-5.4-3.4-8h9.1
		C518.2,368,520,369.8,520,372z"/>
	<path class="st4" d="M540,392h-16c-2.2,0-4-1.8-4-4l0,0c0-2.2,1.8-4,4-4h16c2.2,0,4,1.8,4,4l0,0C544,390.2,542.2,392,540,392z"/>
	<path class="st4" d="M536,404c0,1.1,0.5,2.1,1.2,2.8c0.7,0.7,1.7,1.2,2.8,1.2h12v-8h-12C537.8,400,536,401.8,536,404z"/>
	<path class="st4" d="M520,404c0,1.1-0.5,2.1-1.2,2.8c-0.7,0.7-1.7,1.2-2.8,1.2c0-2.7-0.1-5.4-0.4-8h0.4
		C518.2,400,520,401.8,520,404z"/>
	<path class="st2" d="M688,280v36c-1.3,0-2.6,0-3.9,0.1c-2.5,0.1-5,0.3-7.4,0.6c-2.6,0.3-5.2,0.7-7.7,1.3c-1.5,0.3-3,0.7-4.5,1.1
		c-1.1,0.3-2.2,0.6-3.3,1c-0.5,0.1-0.9,0.3-1.3,0.4c-2.2,0.7-4.3,1.5-6.4,2.3c-1.1,0.4-2.2,0.9-3.3,1.4c-1.1,0.5-2.2,1-3.2,1.5
		c-1.4,0.7-2.9,1.5-4.3,2.3c-0.7,0.4-1.3,0.8-2,1.2c-1.7,1-3.3,2.1-4.9,3.2c-4.5,3.1-8.8,6.7-12.7,10.6c-2.7,2.7-5.2,5.5-7.5,8.5
		c-0.1,0.2-0.3,0.4-0.4,0.6c-1.8,2.4-3.6,4.8-5.1,7.4c-0.3,0.5-0.6,1-1,1.5c-1.4,2.3-2.6,4.6-3.8,7.1c-1.3,2.6-2.4,5.3-3.4,8
		c-2.7,7.3-4.5,15.1-5.3,23.1c0,0.3-0.1,0.6-0.1,0.9c-0.3,2.6-0.4,5.3-0.4,8h-36V280H688z"/>
	<path class="st4" d="M688,296v20c-1.3,0-2.6,0-3.9,0.1c-2.5,0.1-5,0.3-7.4,0.6c-2.6,0.3-5.2,0.7-7.7,1.3c-1.5,0.3-3,0.7-4.5,1.1
		c-1.1,0.3-2.2,0.6-3.3,1c-0.5,0.1-0.9,0.3-1.3,0.4c-2.2,0.7-4.3,1.5-6.4,2.3c-1.1,0.4-2.2,0.9-3.3,1.4c-1.1,0.5-2.2,1-3.2,1.5
		c-1.4,0.7-2.9,1.5-4.3,2.3H560v-32H688z"/>
	<path class="st5" d="M688,288v28c-1.3,0-2.6,0-3.9,0.1c-2.5,0.1-5,0.3-7.4,0.6c-2.6,0.3-5.2,0.7-7.7,1.3c-1.5,0.3-3,0.7-4.5,1.1
		c-1.1,0.3-2.2,0.6-3.3,1H560v-32H688z"/>
	<polygon class="st6" points="560,312 576,312 591.7,312 607.7,312 624,312 639.7,312 658,312 674,312 688,312 688,280 560,280 	"/>
	<rect x="560" y="280" class="st5" width="128" height="4"/>
	<path class="st4" d="M576,340c0,1.1-0.5,2.1-1.2,2.8c-0.7,0.7-1.7,1.2-2.8,1.2h-12v-8h12C574.2,336,576,337.8,576,340z"/>
	<path class="st4" d="M612,344h-16c-2.2,0-4-1.8-4-4l0,0c0-2.2,1.8-4,4-4h16c2.2,0,4,1.8,4,4l0,0C616,342.2,614.2,344,612,344z"/>
	<path class="st4" d="M588,360h-16c-2.2,0-4-1.8-4-4l0,0c0-2.2,1.8-4,4-4h16c2.2,0,4,1.8,4,4l0,0C592,358.2,590.2,360,588,360z"/>
	<path class="st4" d="M615,352c-1.8,2.4-3.6,4.8-5.1,7.4c-1.1-0.7-1.9-2-1.9-3.4c0-1.1,0.5-2.1,1.2-2.8c0.7-0.7,1.7-1.2,2.8-1.2H615
		z"/>
	<path class="st4" d="M576,372c0,1.1-0.5,2.1-1.2,2.8c-0.7,0.7-1.7,1.2-2.8,1.2h-12v-8h12C574.2,368,576,369.8,576,372z"/>
	<path class="st4" d="M605.1,368c-1.3,2.6-2.4,5.3-3.4,8H596c-2.2,0-4-1.8-4-4c0-1.1,0.5-2.1,1.2-2.8c0.7-0.7,1.7-1.2,2.8-1.2H605.1
		z"/>
	<path class="st4" d="M588,392h-16c-2.2,0-4-1.8-4-4l0,0c0-2.2,1.8-4,4-4h16c2.2,0,4,1.8,4,4l0,0C592,390.2,590.2,392,588,392z"/>
	<path class="st4" d="M576,404c0,1.1-0.5,2.1-1.2,2.8c-0.7,0.7-1.7,1.2-2.8,1.2h-12v-8h12C574.2,400,576,401.8,576,404z"/>
	<path class="st4" d="M596.4,400c-0.3,2.6-0.4,5.3-0.4,8c-2.2,0-4-1.8-4-4c0-1.1,0.5-2.1,1.2-2.8c0.7-0.7,1.7-1.2,2.8-1.2H596.4z"/>
	<rect x="696" y="144" class="st2" width="128" height="64"/>
	<polygon class="st4" points="696,192 712,192 728,192 744,192 760,192 776,192 792,192 808,192 824,192 824,160 696,160 	"/>
	<polygon class="st5" points="824,184 824,152 696,152 696,184 712,184 	"/>
	<polygon class="st6" points="696,176 712,176 727.7,176 743.7,176 760,176 775.7,176 794,176 810,176 824,176 824,144 696,144 	"/>
	<rect x="696" y="144" class="st5" width="128" height="4"/>
	<path class="st4" d="M712,204c0,1.1-0.5,2.1-1.2,2.8c-0.7,0.7-1.7,1.2-2.8,1.2h-12v-8h12C710.2,200,712,201.8,712,204z"/>
	<path class="st4" d="M824,200v8h-12c-1.1,0-2.1-0.5-2.8-1.2c-0.7-0.7-1.2-1.7-1.2-2.8c0-2.2,1.8-4,4-4H824z"/>
	<path class="st4" d="M792,204c0,1.1-0.5,2.1-1.2,2.8c-0.7,0.7-1.7,1.2-2.8,1.2h-16c-2.2,0-4-1.8-4-4c0-1.1,0.5-2.1,1.2-2.8
		c0.7-0.7,1.7-1.2,2.8-1.2h16C790.2,200,792,201.8,792,204z"/>
	<path class="st4" d="M752,204c0,1.1-0.5,2.1-1.2,2.8c-0.7,0.7-1.7,1.2-2.8,1.2h-16c-2.2,0-4-1.8-4-4c0-1.1,0.5-2.1,1.2-2.8
		c0.7-0.7,1.7-1.2,2.8-1.2h16C750.2,200,752,201.8,752,204z"/>
	<path class="st2" d="M960,160v32c0,2.9-0.8,5.6-2.1,8c-0.7,1.2-1.6,2.3-2.5,3.3c-2.3,2.3-5.3,3.9-8.6,4.4c-0.9,0.2-1.8,0.2-2.7,0.2
		H832v-64h112c4.1,0,7.8,1.5,10.6,4c1.3,1.1,2.4,2.5,3.3,4C959.2,154.3,960,157.1,960,160z"/>
	<polygon class="st4" points="832,192 848,192 864,192 880,192 896,192 912,192 928,192 944,192 960,192 960,160 832,160 	"/>
	<path class="st5" d="M960,160v24H832v-32h125.9C959.2,154.3,960,157.1,960,160z"/>
	<path class="st6" d="M960,160v16H832v-32h112c4.1,0,7.8,1.5,10.6,4c1.3,1.1,2.4,2.5,3.3,4C959.2,154.3,960,157.1,960,160z"/>
	<path class="st5" d="M954.6,148H832v-4h112C948.1,144,951.8,145.5,954.6,148z"/>
	<path class="st4" d="M848,204c0,1.1-0.5,2.1-1.2,2.8c-0.7,0.7-1.7,1.2-2.8,1.2h-12v-8h12C846.2,200,848,201.8,848,204z"/>
	<path class="st4" d="M957.9,200c-0.7,1.2-1.6,2.3-2.5,3.3c-2.3,2.3-5.3,3.9-8.6,4.4c-0.6-0.2-1.1-0.5-1.5-0.9
		c-0.7-0.7-1.2-1.7-1.2-2.8c0-2.2,1.8-4,4-4H957.9z"/>
	<path class="st4" d="M928,204c0,1.1-0.5,2.1-1.2,2.8c-0.7,0.7-1.7,1.2-2.8,1.2h-16c-2.2,0-4-1.8-4-4c0-1.1,0.5-2.1,1.2-2.8
		c0.7-0.7,1.7-1.2,2.8-1.2h16C926.2,200,928,201.8,928,204z"/>
	<path class="st4" d="M888,204c0,1.1-0.5,2.1-1.2,2.8c-0.7,0.7-1.7,1.2-2.8,1.2h-16c-2.2,0-4-1.8-4-4c0-1.1,0.5-2.1,1.2-2.8
		c0.7-0.7,1.7-1.2,2.8-1.2h16C886.2,200,888,201.8,888,204z"/>
	<path class="st2" d="M1096,144v64H984c-0.9,0-1.8-0.1-2.7-0.2c-3.3-0.6-6.3-2.2-8.6-4.4c-1-1-1.8-2.1-2.5-3.3
		c-1.4-2.4-2.1-5.1-2.1-8v-32c0-2.9,0.8-5.7,2.1-8c0.9-1.5,2-2.9,3.3-4c2.8-2.5,6.5-4,10.6-4H1096z"/>
	<polygon class="st4" points="968,192 984,192 1000,192 1016,192 1032,192 1048,192 1064,192 1080,192 1096,192 1096,160 968,160 	
		"/>
	<path class="st5" d="M1096,152v32H968v-24c0-2.9,0.8-5.7,2.1-8H1096z"/>
	<path class="st6" d="M1096,144v32H968v-16c0-2.9,0.8-5.7,2.1-8c0.9-1.5,2-2.9,3.3-4c2.8-2.5,6.5-4,10.6-4H1096z"/>
	<path class="st5" d="M1096,144v4H973.4c2.8-2.5,6.5-4,10.6-4H1096z"/>
	<path class="st4" d="M984,204c0,1.1-0.5,2.1-1.2,2.8c-0.4,0.4-0.9,0.7-1.5,0.9c-3.3-0.6-6.3-2.2-8.6-4.4c-1-1-1.8-2.1-2.5-3.3h9.9
		C982.2,200,984,201.8,984,204z"/>
	<path class="st4" d="M1096,200v8h-12c-1.1,0-2.1-0.5-2.8-1.2c-0.7-0.7-1.2-1.7-1.2-2.8c0-2.2,1.8-4,4-4H1096z"/>
	<path class="st4" d="M1064,204c0,1.1-0.4,2.1-1.2,2.8c-0.7,0.7-1.7,1.2-2.8,1.2h-16c-2.2,0-4-1.8-4-4c0-1.1,0.5-2.1,1.2-2.8
		c0.7-0.7,1.7-1.2,2.8-1.2h16C1062.2,200,1064,201.8,1064,204z"/>
	<path class="st4" d="M1024,204c0,1.1-0.5,2.1-1.2,2.8c-0.7,0.7-1.7,1.2-2.8,1.2h-16c-2.2,0-4-1.8-4-4c0-1.1,0.5-2.1,1.2-2.8
		c0.7-0.7,1.7-1.2,2.8-1.2h16C1022.2,200,1024,201.8,1024,204z"/>
	<path class="st2" d="M1232,160v32c0,2.9-0.8,5.6-2.1,8c-0.7,1.2-1.6,2.3-2.5,3.3c-2.3,2.3-5.3,3.9-8.6,4.4
		c-0.9,0.2-1.8,0.2-2.7,0.2h-96c-0.9,0-1.8-0.1-2.7-0.2c-3.3-0.6-6.3-2.2-8.6-4.4c-1-1-1.8-2.1-2.5-3.3c-1.4-2.4-2.1-5.1-2.1-8v-32
		c0-2.9,0.8-5.7,2.1-8c0.9-1.5,2-2.9,3.3-4c2.8-2.5,6.5-4,10.6-4h96c4.1,0,7.8,1.5,10.6,4c1.3,1.1,2.4,2.5,3.3,4
		C1231.2,154.3,1232,157.1,1232,160z"/>
	<polygon class="st4" points="1104,192 1120,192 1136,192 1152,192 1168,192 1184,192 1200,192 1216,192 1232,192 1232,160 
		1104,160 	"/>
	<path class="st5" d="M1232,160v24h-128v-24c0-2.9,0.8-5.7,2.1-8h123.7C1231.2,154.3,1232,157.1,1232,160z"/>
	<path class="st6" d="M1232,160v16h-128v-16c0-2.9,0.8-5.7,2.1-8c0.9-1.5,2-2.9,3.3-4c2.8-2.5,6.5-4,10.6-4h96c4.1,0,7.8,1.5,10.6,4
		c1.3,1.1,2.4,2.5,3.3,4C1231.2,154.3,1232,157.1,1232,160z"/>
	<path class="st5" d="M1226.6,148h-117.2c2.8-2.5,6.5-4,10.6-4h96C1220.1,144,1223.8,145.5,1226.6,148z"/>
	<path class="st4" d="M1120,204c0,1.1-0.4,2.1-1.2,2.8c-0.4,0.4-0.9,0.7-1.5,0.9c-3.3-0.6-6.3-2.2-8.6-4.4c-1-1-1.8-2.1-2.5-3.3h9.9
		C1118.2,200,1120,201.8,1120,204z"/>
	<path class="st4" d="M1229.9,200c-0.7,1.2-1.6,2.3-2.5,3.3c-2.3,2.3-5.3,3.9-8.6,4.4c-0.6-0.2-1.1-0.5-1.5-0.9
		c-0.7-0.7-1.2-1.7-1.2-2.8c0-2.2,1.8-4,4-4H1229.9z"/>
	<path class="st4" d="M1200,204c0,1.1-0.4,2.1-1.2,2.8c-0.7,0.7-1.7,1.2-2.8,1.2h-16c-2.2,0-4-1.8-4-4c0-1.1,0.5-2.1,1.2-2.8
		c0.7-0.7,1.7-1.2,2.8-1.2h16C1198.2,200,1200,201.8,1200,204z"/>
	<path class="st4" d="M1160,204c0,1.1-0.4,2.1-1.2,2.8c-0.7,0.7-1.7,1.2-2.8,1.2h-16c-2.2,0-4-1.8-4-4c0-1.1,0.5-2.1,1.2-2.8
		c0.7-0.7,1.7-1.2,2.8-1.2h16C1158.2,200,1160,201.8,1160,204z"/>
	<rect x="640" y="592" class="st2" width="128" height="112"/>
	<rect x="664" y="608" class="st3" width="16" height="32"/>
	<rect x="728" y="608" class="st3" width="16" height="32"/>
	<rect x="832" y="576" class="st2" width="128" height="128"/>
	<rect x="960" y="576" class="st1" width="128" height="128"/>
	<rect x="856" y="608" class="st3" width="16" height="32"/>
	<rect x="920" y="608" class="st3" width="16" height="32"/>
	<rect x="992" y="608" class="st6" width="16" height="32"/>
	<rect x="1056" y="608" class="st6" width="16" height="32"/>
	<path class="st6" d="M992,608L992,608c3.3-6.6,12.7-6.6,16,0l0,0H992z"/>
	<path class="st6" d="M1056,608L1056,608c3.3-6.6,12.7-6.6,16,0l0,0H1056z"/>
	<rect x="880" y="658.1" class="st3" width="32" height="45.9"/>
	<path class="st3" d="M880,658.1L880,658.1c6.6-9.4,25.4-9.4,32,0l0,0H880z"/>
	<path class="st2" d="M1280,640v64h-24v-24c0-20.7-15.8-37.8-36-39.8h0c-1.3-0.1-2.7-0.2-4-0.2c-22.1,0-40,17.9-40,40v24h-24v-64
		c0-35.4,28.7-64,64-64c1.3,0,2.7,0,4,0.1c0,0,0,0,0,0C1253.5,578.2,1280,606,1280,640z"/>
	<path class="st2" d="M1240,536v48h-8v-40c0-8.2-6.1-14.9-14-15.9c-0.7-0.1-1.3-0.1-2-0.1c-8.8,0-16,7.2-16,16v40h-8v-48
		c0-13.3,10.8-24,24-24c0.7,0,1.3,0,2,0.1C1230.3,513.1,1240,523.4,1240,536z"/>
	<polygon class="st2" points="1228,488 1220,488 1220,480 1212,480 1212,488 1204,488 1204,496 1212,496 1212,512 1220,512 
		1220,496 1228,496 	"/>
	<rect x="1184" y="600" class="st3" width="16" height="32"/>
	<path class="st3" d="M1184,600L1184,600c3.3-6.6,12.7-6.6,16,0l0,0H1184z"/>
	<rect x="1232" y="600" class="st3" width="16" height="32"/>
	<path class="st3" d="M1232,600L1232,600c3.3-6.6,12.7-6.6,16,0l0,0H1232z"/>
	<path class="st1" d="M1212,640.2c-1.3,0.1-2.5,0.3-3.7,0.5c-0.3,0.1-0.6,0.1-0.9,0.2c-0.3,0.1-0.5,0.1-0.8,0.2
		c-0.2,0-0.4,0.1-0.6,0.1c-0.3,0.1-0.6,0.2-1,0.3c-0.3,0.1-0.6,0.2-0.9,0.3c-0.3,0.1-0.5,0.2-0.8,0.3c-1.1,0.3-2.1,0.7-3.1,1.2
		c-0.5,0.2-1.1,0.5-1.6,0.7c0,0,0,0,0,0c-0.5,0.3-1.1,0.5-1.6,0.8c-1.5,0.8-2.9,1.7-4.2,2.6c-0.3,0.2-0.5,0.4-0.8,0.6
		c-0.2,0.2-0.5,0.4-0.7,0.5c-0.3,0.2-0.5,0.4-0.8,0.7c-0.5,0.4-1,0.8-1.5,1.3c-1.4,1.3-2.8,2.7-4,4.2c-0.2,0.3-0.4,0.5-0.6,0.8
		s-0.4,0.5-0.6,0.8c-1.2,1.5-2.2,3.2-3.1,4.9c-0.2,0.3-0.3,0.6-0.5,0.8c-0.2,0.3-0.3,0.7-0.5,1c-0.3,0.5-0.5,1.1-0.7,1.6
		c0,0,0,0,0,0c-0.2,0.6-0.5,1.1-0.7,1.7c-0.3,0.9-0.7,1.9-0.9,2.9c-0.1,0.3-0.2,0.6-0.3,1c-0.1,0.3-0.1,0.5-0.2,0.8
		c-0.1,0.2-0.1,0.5-0.2,0.7c-0.1,0.3-0.1,0.6-0.2,0.8c0,0.2-0.1,0.4-0.1,0.6c0,0.3-0.1,0.5-0.1,0.8c-0.1,0.4-0.1,0.8-0.2,1.3
		c0,0.3-0.1,0.6-0.1,1c0,0.3-0.1,0.7-0.1,1c0,0.2,0,0.4,0,0.6c0,0.2,0,0.4,0,0.5c0,0.6-0.1,1.3-0.1,1.9v24h-8v-24
		c0-22.1,17.9-40,40-40C1209.3,640,1210.7,640.1,1212,640.2z"/>
	<rect x="1080" y="384" class="st7" width="16" height="64"/>
	<polygon class="st3" points="1152,384 1024,384 1088,320 	"/>
	<rect x="640" y="584" class="st6" width="128" height="8"/>
	<rect x="688" y="492" class="st6" width="32" height="4"/>
	<rect x="1112" y="424" class="st7" width="8" height="24"/>
	<rect x="1120" y="424" class="st7" width="24" height="8"/>
	<rect x="1136" y="432" class="st7" width="8" height="16"/>
	<rect x="1112" y="416" class="st3" width="32" height="16"/>
	<rect x="1112" y="424" class="st6" width="32" height="8"/>
	<polyline class="st6" points="1088,320 1128,384 1152,384 	"/>
	<polygon class="st6" points="1144,376 1144,384 1024,384 1032,376 	"/>
	<rect x="1080" y="384" class="st8" width="16" height="8"/>
	<g>
		<polygon class="st1" points="576,608 576,704 480,704 480,688 496,688 496,672 512,672 512,656 528,656 528,640 544,640 544,624 
			560,624 560,608 		"/>
		<rect x="448" y="688" class="st2" width="32" height="16"/>
		<rect x="480" y="656" class="st2" width="32" height="16"/>
		<rect x="496" y="640" class="st2" width="32" height="16"/>
		<rect x="512" y="624" class="st2" width="32" height="16"/>
		<rect x="528" y="608" class="st2" width="32" height="16"/>
		<rect x="464" y="672" class="st2" width="32" height="16"/>
	</g>
	<rect x="1032" y="424" class="st7" width="8" height="24"/>
	<rect x="1040" y="424" class="st7" width="24" height="8"/>
	<rect x="1056" y="432" class="st7" width="8" height="16"/>
	<rect x="1032" y="416" class="st3" width="32" height="16"/>
	<rect x="1032" y="424" class="st6" width="32" height="8"/>
</g>
<g id="groundtexture">
</g>
<g id="topshadow">
</g>
<g id="topsecond">
</g>
<g id="topmain">
</g>
<g id="topline">
</g>
<g id="trees">
	<polygon class="st9" points="376,704 376,656 392,640 392,632 368,608 368,584 376,584 376,608 400,632 400,640 392,656 392,704 	
		"/>
	<polygon class="st9" points="384,616 408,600 408,568 424,560 416,568 416,600 384,624 	"/>
	<polygon class="st9" points="336,600 360,600 376,616 376,608 360,592 	"/>
	<polygon class="st9" points="368,584 368,568 384,552 384,536 392,536 392,552 376,568 376,584 	"/>
	<polygon class="st9" points="384,536 376,528 392,536 	"/>
	<polygon class="st9" points="384,560 360,560 344,544 344,552 360,568 	"/>
	<circle class="st10" cx="344" cy="545.2" r="3"/>
	<circle class="st11" cx="344" cy="542.2" r="1.5"/>
	<circle class="st11" cx="344" cy="548.2" r="1.5"/>
	<circle class="st11" cx="347" cy="545.2" r="1.5"/>
	<circle class="st11" cx="341" cy="545.2" r="1.5"/>
	<circle class="st10" cx="352.4" cy="560" r="3"/>
	<circle class="st11" cx="352.4" cy="557" r="1.5"/>
	<circle class="st11" cx="352.4" cy="563" r="1.5"/>
	<circle class="st11" cx="355.4" cy="560" r="1.5"/>
	<circle class="st11" cx="349.4" cy="560" r="1.5"/>
	<circle class="st10" cx="338.9" cy="599.2" r="3"/>
	<circle class="st11" cx="338.9" cy="596.2" r="1.5"/>
	<circle class="st11" cx="338.9" cy="602.2" r="1.5"/>
	<circle class="st11" cx="341.9" cy="599.2" r="1.5"/>
	<circle class="st11" cx="335.9" cy="599.2" r="1.5"/>
	<circle class="st10" cx="359.9" cy="592" r="3"/>
	<circle class="st11" cx="359.9" cy="589" r="1.5"/>
	<circle class="st11" cx="359.9" cy="595" r="1.5"/>
	<circle class="st11" cx="362.9" cy="592" r="1.5"/>
	<circle class="st11" cx="356.9" cy="592" r="1.5"/>
	<circle class="st10" cx="423.6" cy="560.2" r="3"/>
	<circle class="st11" cx="423.6" cy="557.2" r="1.5"/>
	<circle class="st11" cx="423.6" cy="563.2" r="1.5"/>
	<circle class="st11" cx="426.6" cy="560.2" r="1.5"/>
	<circle class="st11" cx="420.6" cy="560.2" r="1.5"/>
	<circle class="st10" cx="408.1" cy="568" r="3"/>
	<circle class="st11" cx="408.1" cy="565" r="1.5"/>
	<circle class="st11" cx="408.1" cy="571" r="1.5"/>
	<circle class="st11" cx="411.1" cy="568" r="1.5"/>
	<circle class="st11" cx="405.1" cy="568" r="1.5"/>
	<circle class="st10" cx="376" cy="528.3" r="3"/>
	<circle class="st11" cx="376" cy="525.3" r="1.5"/>
	<circle class="st11" cx="376" cy="531.3" r="1.5"/>
	<circle class="st11" cx="379" cy="528.3" r="1.5"/>
	<circle class="st11" cx="373" cy="528.3" r="1.5"/>
	<circle class="st10" cx="392" cy="536.5" r="3"/>
	<circle class="st11" cx="392" cy="533.5" r="1.5"/>
	<circle class="st11" cx="392" cy="539.5" r="1.5"/>
	<circle class="st11" cx="395" cy="536.5" r="1.5"/>
	<circle class="st11" cx="389" cy="536.5" r="1.5"/>
	<circle class="st10" cx="415.6" cy="600" r="3"/>
	<circle class="st11" cx="415.6" cy="597" r="1.5"/>
	<circle class="st11" cx="415.6" cy="603" r="1.5"/>
	<circle class="st11" cx="418.6" cy="600" r="1.5"/>
	<circle class="st11" cx="412.6" cy="600" r="1.5"/>
	<circle class="st10" cx="376" cy="560" r="3"/>
	<circle class="st11" cx="376" cy="557" r="1.5"/>
	<circle class="st11" cx="376" cy="563" r="1.5"/>
	<circle class="st11" cx="379" cy="560" r="1.5"/>
	<circle class="st11" cx="373" cy="560" r="1.5"/>
	<circle class="st10" cx="368" cy="607.5" r="3"/>
	<circle class="st11" cx="368" cy="604.5" r="1.5"/>
	<circle class="st11" cx="368" cy="610.5" r="1.5"/>
	<circle class="st11" cx="371" cy="607.5" r="1.5"/>
	<circle class="st11" cx="365" cy="607.5" r="1.5"/>
</g>
<g id="water">
</g>
<g id="titles">
	<text transform="matrix(1 0 0 1 32 104)"><tspan x="0" y="0" class="st6 st12 st13">2D</tspan><tspan x="84.4" y="0" class="st6 st14 st15"> SantOrini PLATFORMER</tspan></text>
	<text transform="matrix(1 0 0 1 1080 104)" class="st6 st14 st16">TIo AIMAR</text>
</g>
<g id="hills_x5F_palms">
	<rect x="248" y="552" class="st17" width="16" height="151.8"/>
	<rect x="248" y="543.8" class="st18" width="16" height="16"/>
	<rect x="120" y="488" class="st17" width="16" height="216"/>
	<rect x="120" y="480" class="st18" width="16" height="16"/>
	<path class="st19" d="M135.1,480l-10.7-5.3l-0.7-0.4l-11.8-5.8l-33.7-16.6c15-7.4,33-3.6,43.6,8.8c0.9,1,1.8,2.1,2.5,3.3l2.7,4
		l1,1.5L135.1,480z"/>
	<path class="st19" d="M177.8,451.9l-33.7,16.6l-11.8,5.8l-0.7,0.4l-10.7,5.3l7.1-10.5l1-1.5l2.7-4c0.8-1.2,1.6-2.3,2.5-3.3
		C144.8,448.4,162.8,444.5,177.8,451.9z"/>
	<path class="st19" d="M127,479.3l-3.3,6.4l-17.1,33.7c-6.7-13.2-4.3-28.9,5.3-39.5c2-2.2,4.3-4.3,7-6l2.9-1.9
		c0.9,1,1.8,2.1,2.5,3.3L127,479.3z"/>
	<path class="st19" d="M149.3,520l-17.1-33.7l-3.3-6.4l2.7-4c0.8-1.2,1.6-2.3,2.5-3.3l2.9,1.9c2.6,1.7,5,3.7,7,6
		C153.6,491.1,156,506.8,149.3,520z"/>
	<path class="st19" d="M119.5,471.1l9.1,7.7l0.6,0.5l10,8.5L168,512c0.8-16.7-9.9-31.6-25.5-36.4c-1.3-0.4-2.7-0.7-4-1l-4.7-0.9
		l-1.8-0.3L119.5,471.1z"/>
	<path class="st19" d="M136.5,471.1l-9.1,7.7l-0.6,0.5l-10,8.5L88,512c-0.8-16.7,9.9-31.6,25.5-36.4c1.3-0.4,2.7-0.7,4-1l4.7-0.9
		l1.8-0.3L136.5,471.1z"/>
	<path class="st20" d="M160,512l-32-21.7l-12.5-8.5c0.8-0.7,1.7-1.3,2.5-1.9h-5.3l-11.6-7.9c9.1-1.7,18.2-0.7,26.4,2.4
		c0.2,0.1,0.3,0.1,0.5,0.2c0.6,0.2,1.2,0.5,1.8,0.7c2.9,1.3,5.6,2.8,8.3,4.6c0.9,0.6,1.7,1.2,2.5,1.9c6.5,5.1,11.9,11.9,15.2,20
		L160,512z"/>
	<path class="st20" d="M143.3,480H138c0.9,0.6,1.7,1.2,2.5,1.9l-12.5,8.5L96,512l4.2-10.2c3.4-8.1,8.7-14.9,15.2-20
		c0.8-0.7,1.7-1.3,2.5-1.9c2.6-1.8,5.4-3.3,8.2-4.6c0.6-0.3,1.2-0.5,1.8-0.7c0.2-0.1,0.3-0.1,0.5-0.2c8.2-3.1,17.3-4.1,26.4-2.4
		L143.3,480z"/>
	<path class="st20" d="M192,480h-71.1c1.7-1.7,3.5-3.2,5.3-4.6c0.4-0.3,0.8-0.6,1.3-0.9c16.3-11.2,38.3-11.8,55.3-0.6L192,480z"/>
	<path class="st20" d="M135.1,480H64l9.2-6c17-11.2,39-10.7,55.3,0.6c0.4,0.3,0.9,0.6,1.3,0.9C131.6,476.8,133.4,478.3,135.1,480z"
		/>
	<rect x="120" y="672" class="st18" width="16" height="16"/>
	<rect x="120" y="640" class="st18" width="16" height="16"/>
	<rect x="120" y="608" class="st18" width="16" height="16"/>
	<rect x="120" y="576" class="st18" width="16" height="16"/>
	<rect x="120" y="544" class="st18" width="16" height="16"/>
	<rect x="120" y="512" class="st18" width="16" height="16"/>
	<path class="st19" d="M263.1,543.8l-10.7-5.3l-0.7-0.4l-11.8-5.8l-33.7-16.6c15-7.4,33-3.6,43.6,8.8c0.9,1,1.8,2.1,2.5,3.3l2.7,4
		l1,1.5L263.1,543.8z"/>
	<path class="st19" d="M305.8,515.8l-33.7,16.6l-11.8,5.8l-0.7,0.4l-10.7,5.3l7.1-10.5l1-1.5l2.7-4c0.8-1.2,1.6-2.3,2.5-3.3
		C272.8,512.2,290.8,508.4,305.8,515.8z"/>
	<path class="st19" d="M255,543.1l-3.3,6.4l-17.1,33.7c-6.7-13.2-4.3-28.9,5.3-39.5c2-2.2,4.3-4.3,7-6l2.9-1.9
		c0.9,1,1.8,2.1,2.5,3.3L255,543.1z"/>
	<path class="st19" d="M277.3,583.8l-17.1-33.7l-3.3-6.4l2.7-4c0.8-1.2,1.6-2.3,2.5-3.3l2.9,1.9c2.6,1.7,5,3.7,7,6
		C281.6,555,284,570.6,277.3,583.8z"/>
	<path class="st19" d="M247.5,534.9l9.1,7.7l0.6,0.5l10,8.5l28.8,24.2c0.8-16.7-9.9-31.6-25.5-36.4c-1.3-0.4-2.7-0.7-4-1l-4.7-0.9
		l-1.8-0.3L247.5,534.9z"/>
	<path class="st19" d="M264.5,534.9l-9.1,7.7l-0.6,0.5l-10,8.5L216,575.8c-0.8-16.7,9.9-31.6,25.5-36.4c1.3-0.4,2.7-0.7,4-1l4.7-0.9
		l1.8-0.3L264.5,534.9z"/>
	<path class="st20" d="M288,575.8l-32-21.7l-12.5-8.5c0.8-0.7,1.7-1.3,2.5-1.9h-5.3l-11.6-7.9c9.1-1.7,18.2-0.7,26.4,2.4
		c0.2,0.1,0.3,0.1,0.5,0.2c0.6,0.2,1.2,0.5,1.8,0.7c2.9,1.3,5.6,2.8,8.3,4.6c0.9,0.6,1.7,1.2,2.5,1.9c6.5,5.1,11.9,11.9,15.2,20
		L288,575.8z"/>
	<path class="st20" d="M271.3,543.8H266c0.9,0.6,1.7,1.2,2.5,1.9l-12.5,8.5l-32,21.7l4.2-10.2c3.4-8.1,8.7-14.9,15.2-20
		c0.8-0.7,1.7-1.3,2.5-1.9c2.6-1.8,5.4-3.3,8.2-4.6c0.6-0.3,1.2-0.5,1.8-0.7c0.2-0.1,0.3-0.1,0.5-0.2c8.2-3.1,17.3-4.1,26.4-2.4
		L271.3,543.8z"/>
	<path class="st20" d="M320,543.8h-71.1c1.7-1.7,3.5-3.2,5.3-4.6c0.4-0.3,0.8-0.6,1.3-0.9c16.3-11.2,38.3-11.8,55.3-0.6L320,543.8z"
		/>
	<path class="st20" d="M263.1,543.8H192l9.2-6c17-11.2,39-10.7,55.3,0.6c0.4,0.3,0.9,0.6,1.3,0.9
		C259.6,540.6,261.4,542.1,263.1,543.8z"/>
	<rect x="248" y="671.8" class="st18" width="16" height="16"/>
	<rect x="248" y="639.8" class="st18" width="16" height="16"/>
	<rect x="248" y="607.8" class="st18" width="16" height="16"/>
	<rect x="248" y="575.8" class="st18" width="16" height="16"/>
	<rect id="_x3C_Slice_x3E_" x="16" y="144" class="st21" width="128" height="128"/>
	<rect id="_x3C_Slice_x3E__1_" x="152" y="144" class="st21" width="128" height="128"/>
	<rect id="_x3C_Slice_x3E__3_" x="288" y="144" class="st21" width="128" height="128"/>
	<rect id="_x3C_Slice_x3E__2_" x="424" y="144" class="st21" width="128" height="128"/>
	<rect id="_x3C_Slice_x3E__5_" x="560" y="144" class="st21" width="128" height="128"/>
	<rect id="_x3C_Slice_x3E__4_" x="696" y="144" class="st21" width="128" height="128"/>
	<rect id="_x3C_Slice_x3E__6_" x="968" y="144" class="st21" width="128" height="128"/>
	<rect id="_x3C_Slice_x3E__8_" x="1104" y="144" class="st21" width="128" height="128"/>
	<rect id="_x3C_Slice_x3E__15_" x="16" y="280" class="st21" width="128" height="128"/>
	<rect id="_x3C_Slice_x3E__14_" x="152" y="280" class="st21" width="128" height="128"/>
	<rect id="_x3C_Slice_x3E__13_" x="288" y="280" class="st21" width="128" height="128"/>
	<rect id="_x3C_Slice_x3E__12_" x="424" y="280" class="st21" width="128" height="128"/>
	<rect id="_x3C_Slice_x3E__11_" x="560" y="280" class="st21" width="128" height="128"/>
	<rect id="_x3C_Slice_x3E__16_" x="1024" y="320" class="st21" width="128" height="128"/>
	<rect id="_x3C_Slice_x3E__18_" x="448" y="576" class="st21" width="128" height="128"/>
	<rect id="_x3C_Slice_x3E__19_" x="64" y="448" class="st21" width="128" height="256"/>
	<rect id="_x3C_Slice_x3E__20_" x="640" y="448" class="st21" width="128" height="256"/>
	<rect id="_x3C_Slice_x3E__21_" x="1152" y="448" class="st21" width="128" height="256"/>
	<rect id="_x3C_Slice_x3E__22_" x="320" y="512" class="st21" width="128" height="192"/>
	<rect id="_x3C_Slice_x3E__23_" x="192" y="512" class="st21" width="128" height="192"/>
	<rect id="_x3C_Slice_x3E__24_" x="832" y="576" class="st21" width="256" height="128"/>
	<rect id="_x3C_Slice_x3E__10_" x="696" y="280" class="st21" width="128" height="128"/>
	<rect id="_x3C_Slice_x3E__25_" x="856" y="280" class="st21" width="128" height="128"/>
</g>
<g id="Layer_1">
	<rect x="856" y="280" class="st22" width="128" height="128"/>
	<path class="st3" d="M984,286v22.1c0,0-32.4,31.6-64,0s-64,0-64,0V286c0,0,3-2.9,8-6h49c2.4,1.7,4.7,3.7,7.1,6
		C951.6,317.7,984,286,984,286z"/>
	<path class="st3" d="M984,310.1v22.1c0,0-32.4,31.6-64,0s-64,0-64,0v-22.1c0,0,32.4-31.6,64,0S984,310.1,984,310.1z"/>
	<path class="st3" d="M984,379.9V402c0,0-3,2.9-8,6h-49c-2.4-1.7-4.7-3.7-7.1-6c-0.7-0.7-1.4-1.3-2-2c-31-28.3-62,2-62,2v-22.1
		c0,0,32.4-31.6,64,0C951.6,411.5,984,379.9,984,379.9z"/>
	<path class="st3" d="M984,355.9V378c0,0-32.4,31.6-64,0s-64,0-64,0v-22.1c0,0,32.4-31.6,64,0S984,355.9,984,355.9z"/>
	<path class="st3" d="M976,280c-10.3,6.5-29.3,14.2-49,0H976z"/>
	<path class="st3" d="M912.9,408h-49C874.3,401.5,893.3,393.8,912.9,408z"/>
	<path class="st22" d="M824,332.1V408H696v-75.9c0,0,32.4-31.6,64,0S824,332.1,824,332.1z"/>
	<path class="st3" d="M824,379.9V402c0,0-3,2.9-8,6h-49c-2.4-1.7-4.7-3.7-7.1-6c-0.7-0.7-1.4-1.3-2-2c-31-28.3-62,2-62,2v-22.1
		c0,0,32.4-31.6,64,0C791.6,411.5,824,379.9,824,379.9z"/>
	<path class="st3" d="M824,355.9V378c0,0-32.4,31.6-64,0s-64,0-64,0v-22.1c0,0,32.4-31.6,64,0S824,355.9,824,355.9z"/>
	<path class="st3" d="M752.9,408h-49C714.3,401.5,733.3,393.8,752.9,408z"/>
	<path class="st23" d="M824,326.1v6.1c0,0-32.4,31.6-64,0s-64,0-64,0v-6.1c0,0,32.4-31.6,64,0S824,326.1,824,326.1z"/>
	<rect id="_x3C_Slice_x3E__9_" x="696" y="280" class="st21" width="128" height="128"/>
	<rect id="_x3C_Slice_x3E__7_" x="856" y="280" class="st21" width="128" height="128"/>
</g>
<g id="sky">
</g>
</svg>
